AnekTamil-SemiExpanded.ufo
<glyph name="exclam" format="2">
  <advance width="512.39"/>
  <unicode hex="0021"/>
  <outline>
    <contour>
      <point x="328.89250000000004" y="393.54499999999996" type="line"/>
      <point x="348.02250000000004" y="1278.0" type="line"/>
      <point x="164.1525" y="1278.0" type="line"/>
      <point x="183.7825" y="393.54499999999996" type="line"/>
    </contour>
    <contour>
      <point x="255.97999999999996" y="-20.4575" type="curve" smooth="yes"/>
      <point x="331.585" y="-20.4575"/>
      <point x="368.0325" y="19.63"/>
      <point x="368.0325" y="88.315" type="curve" smooth="yes"/>
      <point x="368.0325" y="95.315" type="line" smooth="yes"/>
      <point x="368.0325" y="163.3925"/>
      <point x="331.585" y="203.26500000000001"/>
      <point x="255.97999999999996" y="203.26500000000001" type="curve" smooth="yes"/>
      <point x="181.305" y="203.26500000000001"/>
      <point x="144.75" y="163.3925"/>
      <point x="144.75" y="95.315" type="curve" smooth="yes"/>
      <point x="144.75" y="88.315" type="line" smooth="yes"/>
      <point x="144.75" y="19.63"/>
      <point x="181.305" y="-20.4575"/>
    </contour>
  </outline>
</glyph>
<glyph name="numbersign" format="2">
  <advance width="1351.5575"/>
  <unicode hex="0023"/>
  <outline>
    <contour>
      <point x="255.20000000000002" y="0.0" type="line"/>
      <point x="396.4975" y="0.0" type="line"/>
      <point x="581.4224999999999" y="1278.0" type="line"/>
      <point x="440.125" y="1278.0" type="line"/>
    </contour>
    <contour>
      <point x="74.05250000000001" y="324.40500000000003" type="line"/>
      <point x="1210.075" y="324.40500000000003" type="line"/>
      <point x="1210.075" y="448.64250000000004" type="line"/>
      <point x="74.05250000000001" y="448.64250000000004" type="line"/>
    </contour>
    <contour>
      <point x="775.775" y="0.0" type="line"/>
      <point x="918.0725" y="0.0" type="line"/>
      <point x="1097.9275" y="1278.0" type="line"/>
      <point x="955.845" y="1278.0" type="line"/>
    </contour>
    <contour>
      <point x="144.1975" y="832.2925" type="line"/>
      <point x="1277.8975" y="832.2925" type="line"/>
      <point x="1277.8975" y="956.9225" type="line"/>
      <point x="144.1975" y="956.9225" type="line"/>
    </contour>
  </outline>
</glyph>
<glyph name="dollar" format="2">
  <advance width="1250.1999999999998"/>
  <unicode hex="0024"/>
  <anchor x="618.9575" y="0.0" name="bottom"/>
  <anchor x="618.9575" y="1278.0" name="top"/>
  <outline>
    <contour>
      <point x="694.9725" y="1210.49" type="line"/>
      <point x="694.9725" y="1511.51" type="line"/>
      <point x="538.0824999999999" y="1511.51" type="line"/>
      <point x="538.0824999999999" y="1210.49" type="line"/>
    </contour>
    <contour>
      <point x="694.9725" y="-236.83249999999998" type="line"/>
      <point x="694.9725" y="83.60249999999999" type="line"/>
      <point x="538.0824999999999" y="83.60249999999999" type="line"/>
      <point x="538.0824999999999" y="-236.83249999999998" type="line"/>
    </contour>
    <component base="S"/>
  </outline>
</glyph>
<glyph name="percent" format="2">
  <advance width="1668.0625"/>
  <unicode hex="0025"/>
  <outline>
    <contour>
      <point x="296.735" y="0.0" type="line"/>
      <point x="466.1525" y="0.0" type="line"/>
      <point x="1374.075" y="1278.0" type="line"/>
      <point x="1205.05" y="1278.0" type="line"/>
    </contour>
    <contour>
      <point x="1265.5075" y="-28.135" type="curve" smooth="yes"/>
      <point x="1460.3375" y="-28.135"/>
      <point x="1571.9675" y="84.1825"/>
      <point x="1571.9675" y="274.415" type="curve" smooth="yes"/>
      <point x="1571.9675" y="323.49" type="line" smooth="yes"/>
      <point x="1571.9675" y="513.4375"/>
      <point x="1460.0525" y="624.47"/>
      <point x="1265.5075" y="624.47" type="curve" smooth="yes"/>
      <point x="1071.5700000000002" y="624.47"/>
      <point x="960.51" y="511.4750000000001"/>
      <point x="960.51" y="323.49" type="curve" smooth="yes"/>
      <point x="960.51" y="274.415" type="line" smooth="yes"/>
      <point x="960.51" y="84.1825"/>
      <point x="1070.4625" y="-28.135"/>
    </contour>
    <contour>
      <point x="1265.5075" y="88.645" type="curve" smooth="yes"/>
      <point x="1159.7250000000001" y="88.645"/>
      <point x="1097.6674999999998" y="153.81"/>
      <point x="1097.6674999999998" y="272.7375" type="curve" smooth="yes"/>
      <point x="1097.6674999999998" y="323.99" type="line" smooth="yes"/>
      <point x="1097.6674999999998" y="442.4175"/>
      <point x="1158.6175" y="508.47499999999997"/>
      <point x="1265.5075" y="508.47499999999997" type="curve" smooth="yes"/>
      <point x="1371.9675" y="508.47499999999997"/>
      <point x="1433.24" y="442.4175"/>
      <point x="1433.24" y="323.99" type="curve" smooth="yes"/>
      <point x="1433.24" y="272.7375" type="line" smooth="yes"/>
      <point x="1433.24" y="153.81"/>
      <point x="1373.075" y="88.645"/>
    </contour>
    <contour>
      <point x="400.8075" y="654.3149999999999" type="curve" smooth="yes"/>
      <point x="595.03" y="654.3149999999999"/>
      <point x="707.2675" y="767.4174999999999"/>
      <point x="707.2675" y="955.6875" type="curve" smooth="yes"/>
      <point x="707.2675" y="1005.155" type="line" smooth="yes"/>
      <point x="707.2675" y="1194.3175"/>
      <point x="595.745" y="1306.135"/>
      <point x="400.8075" y="1306.135" type="curve" smooth="yes"/>
      <point x="205.655" y="1306.135"/>
      <point x="95.4175" y="1194.3175"/>
      <point x="95.4175" y="1005.155" type="curve" smooth="yes"/>
      <point x="95.4175" y="955.6875" type="line" smooth="yes"/>
      <point x="95.4175" y="766.24"/>
      <point x="205.655" y="654.3149999999999"/>
    </contour>
    <contour>
      <point x="400.8075" y="770.3100000000001" type="curve" smooth="yes"/>
      <point x="294.9175" y="770.3100000000001"/>
      <point x="232.4675" y="835.3675"/>
      <point x="232.4675" y="954.01" type="curve" smooth="yes"/>
      <point x="232.4675" y="1006.44" type="line" smooth="yes"/>
      <point x="232.4675" y="1124.0825"/>
      <point x="293.9175" y="1190.5325"/>
      <point x="400.8075" y="1190.5325" type="curve" smooth="yes"/>
      <point x="507.2675" y="1190.5325"/>
      <point x="568.5400000000001" y="1124.0825"/>
      <point x="568.5400000000001" y="1006.44" type="curve" smooth="yes"/>
      <point x="568.5400000000001" y="954.01" type="line" smooth="yes"/>
      <point x="568.5400000000001" y="835.3675"/>
      <point x="507.9825" y="770.3100000000001"/>
    </contour>
  </outline>
</glyph>
<glyph name="ampersand" format="2">
  <advance width="1458.455"/>
  <unicode hex="0026"/>
  <outline>
    <contour>
      <point x="1260.7475000000002" y="0.0" type="curve"/>
      <point x="1466.79" y="0.0" type="line"/>
      <point x="1466.79" y="15.667499999999999" type="line"/>
      <point x="1355.2250000000001" y="117.3675"/>
      <point x="1254.235" y="206.85750000000002"/>
      <point x="1139.9225" y="304.4175" type="curve"/>
      <point x="1087.14" y="350.705" type="line"/>
      <point x="553.1049999999999" y="782.0275" type="line" smooth="yes"/>
      <point x="468.535" y="851.3825"/>
      <point x="417.31" y="906.5375"/>
      <point x="417.31" y="986.455" type="curve" smooth="yes"/>
      <point x="417.31" y="990.1700000000001" type="line" smooth="yes"/>
      <point x="417.31" y="1090.71"/>
      <point x="486.19" y="1154.7024999999999"/>
      <point x="671.7824999999999" y="1154.7024999999999" type="curve" smooth="yes"/>
      <point x="833.4849999999999" y="1154.7024999999999"/>
      <point x="970.3725" y="1110.6925"/>
      <point x="1072.1475" y="1058.5049999999999" type="curve"/>
      <point x="1052.91" y="1212.3675" type="line"/>
      <point x="968.9575" y="1257.41"/>
      <point x="835.5975" y="1302.28"/>
      <point x="645.13" y="1302.28" type="curve" smooth="yes"/>
      <point x="363.7425" y="1302.28"/>
      <point x="235.90249999999997" y="1187.785"/>
      <point x="235.90249999999997" y="1000.6600000000001" type="curve" smooth="yes"/>
      <point x="235.90249999999997" y="994.4825" type="line" smooth="yes"/>
      <point x="235.90249999999997" y="882.9125"/>
      <point x="285.23" y="808.1975"/>
      <point x="384.2575" y="725.2075" type="curve"/>
      <point x="410.3125" y="695.1574999999999" type="line"/>
      <point x="986.7475000000001" y="234.8175" type="line"/>
      <point x="1014.0875" y="212.9725" type="line"/>
      <point x="1058.07" y="174.78"/>
      <point x="1214.345" y="40.795"/>
    </contour>
    <contour>
      <point x="601.4525" y="-25.3875" type="curve" smooth="yes"/>
      <point x="836.265" y="-25.3875"/>
      <point x="993.055" y="55.015"/>
      <point x="1116.1575" y="193.74499999999998" type="curve"/>
      <point x="1160.16" y="237.6775" type="line"/>
      <point x="1265.075" y="371.64000000000004"/>
      <point x="1335.9575" y="555.2425"/>
      <point x="1366.2425" y="776.49" type="curve"/>
      <point x="1195.61" y="776.49" type="line"/>
      <point x="1170.5725" y="598.3575000000001"/>
      <point x="1120.0674999999999" y="454.155"/>
      <point x="1041.0625000000002" y="338.715" type="curve"/>
      <point x="1001.055" y="290.89" type="line"/>
      <point x="909.1800000000001" y="179.785"/>
      <point x="783.1925" y="119.05"/>
      <point x="615.3349999999999" y="119.05" type="curve" smooth="yes"/>
      <point x="402.14" y="119.05"/>
      <point x="287.78749999999997" y="216.0"/>
      <point x="287.78749999999997" y="383.47999999999996" type="curve" smooth="yes"/>
      <point x="287.78749999999997" y="405.3825" type="line" smooth="yes"/>
      <point x="287.78749999999997" y="539.4175"/>
      <point x="348.3725" y="617.0875"/>
      <point x="478.7725" y="670.8549999999999" type="curve"/>
      <point x="381.6225" y="780.495" type="line"/>
      <point x="187.52" y="695.1775"/>
      <point x="107.95" y="575.3874999999999"/>
      <point x="107.95" y="388.36" type="curve" smooth="yes"/>
      <point x="107.95" y="365.6025" type="line" smooth="yes"/>
      <point x="107.95" y="121.99499999999999"/>
      <point x="274.76750000000004" y="-25.3875"/>
    </contour>
  </outline>
</glyph>
<glyph name="quotesingle" format="2">
  <advance width="398.1275"/>
  <unicode hex="0027"/>
  <outline>
    <contour>
      <point x="265.5" y="818.24" type="line"/>
      <point x="283.63" y="1322.575" type="line"/>
      <point x="114.4975" y="1322.575" type="line"/>
      <point x="131.55749999999998" y="818.24" type="line"/>
    </contour>
  </outline>
</glyph>
<glyph name="parenleft" format="2">
  <advance width="671.4174999999999"/>
  <unicode hex="0028"/>
  <outline>
    <contour>
      <point x="326.23749999999995" y="591.515" type="line" smooth="yes"/>
      <point x="326.23749999999995" y="885.9925"/>
      <point x="416.3825" y="1135.585"/>
      <point x="605.5925" y="1349.285" type="curve"/>
      <point x="424.68" y="1349.285" type="line"/>
      <point x="245.7875" y="1143.0800000000002"/>
      <point x="158.9975" y="898.4125"/>
      <point x="158.9975" y="593.8" type="curve" smooth="yes"/>
      <point x="158.9975" y="518.4200000000001" type="line" smooth="yes"/>
      <point x="158.9975" y="207.275"/>
      <point x="242.6475" y="-36.43"/>
      <point x="422.32500000000005" y="-243.3125" type="curve"/>
      <point x="605.5925" y="-243.3125" type="line"/>
      <point x="415.99" y="-27.112499999999997"/>
      <point x="326.23749999999995" y="223.54999999999998"/>
      <point x="326.23749999999995" y="521.0975000000001" type="curve" smooth="yes"/>
    </contour>
  </outline>
</glyph>
<glyph name="parenright" format="2">
  <advance width="672.2025"/>
  <unicode hex="0029"/>
  <outline>
    <contour>
      <point x="345.965" y="591.515" type="curve" smooth="yes"/>
      <point x="345.965" y="521.0975000000001" type="line" smooth="yes"/>
      <point x="345.965" y="223.54999999999998"/>
      <point x="256.2125" y="-27.112499999999997"/>
      <point x="66.61" y="-243.3125" type="curve"/>
      <point x="249.8775" y="-243.3125" type="line"/>
      <point x="429.555" y="-36.43"/>
      <point x="513.205" y="207.275"/>
      <point x="513.205" y="518.4200000000001" type="curve" smooth="yes"/>
      <point x="513.205" y="593.8" type="line" smooth="yes"/>
      <point x="513.205" y="898.4125"/>
      <point x="426.41499999999996" y="1143.0800000000002"/>
      <point x="247.5225" y="1349.285" type="curve"/>
      <point x="66.61" y="1349.285" type="line"/>
      <point x="255.82" y="1135.585"/>
      <point x="345.965" y="885.9925"/>
    </contour>
  </outline>
</glyph>
<glyph name="asterisk" format="2">
  <advance width="837.5825000000001"/>
  <unicode hex="002A"/>
  <outline>
    <contour>
      <point x="254.78250000000003" y="629.35" type="line"/>
      <point x="419.0275" y="858.23" type="line"/>
      <point x="418.27" y="858.23" type="line"/>
      <point x="583.4775" y="629.35" type="line"/>
      <point x="700.22" y="714.1175000000001" type="line"/>
      <point x="507.635" y="919.6899999999999" type="line"/>
      <point x="507.99" y="918.5025" type="line"/>
      <point x="774.7025000000001" y="974.8825" type="line"/>
      <point x="738.905" y="1111.3625" type="line"/>
      <point x="474.8" y="1014.475" type="line"/>
      <point x="475.235" y="1013.1474999999999" type="line"/>
      <point x="495.2575" y="1278.0" type="line"/>
      <point x="342.54" y="1278.0" type="line"/>
      <point x="363.0625" y="1013.1474999999999" type="line"/>
      <point x="362.675" y="1014.475" type="line"/>
      <point x="98.57000000000001" y="1111.3625" type="line"/>
      <point x="62.88" y="974.8825" type="line"/>
      <point x="329.3075" y="918.5025" type="line"/>
      <point x="329.1625" y="919.6899999999999" type="line"/>
      <point x="136.685" y="714.1175000000001" type="line"/>
    </contour>
  </outline>
</glyph>
<glyph name="plus" format="2">
  <advance width="1170.7150000000001"/>
  <unicode hex="002B"/>
  <outline>
    <contour>
      <point x="658.7725" y="145.725" type="line"/>
      <point x="658.7725" y="1083.9625" type="line"/>
      <point x="512.1575" y="1083.9625" type="line"/>
      <point x="512.1575" y="145.725" type="line"/>
    </contour>
    <contour>
      <point x="124.94500000000001" y="546.8725" type="line"/>
      <point x="1045.77" y="546.8725" type="line"/>
      <point x="1045.77" y="682.8149999999999" type="line"/>
      <point x="124.94500000000001" y="682.8149999999999" type="line"/>
    </contour>
  </outline>
</glyph>
<glyph name="comma" format="2">
  <advance width="416.28"/>
  <unicode hex="002C"/>
  <outline>
    <contour>
      <point x="294.4425" y="275.46" type="curve"/>
      <point x="130.0575" y="275.46" type="line"/>
      <point x="135.27249999999998" y="235.8575"/>
      <point x="137.4875" y="198.17999999999998"/>
      <point x="137.4875" y="155.6475" type="curve" smooth="yes"/>
      <point x="137.4875" y="1.4000000000000008"/>
      <point x="104.665" y="-119.4175"/>
      <point x="26.6175" y="-236.23999999999998" type="curve"/>
      <point x="148.5275" y="-272.7625" type="line"/>
      <point x="261.94750000000005" y="-141.2675"/>
      <point x="304.22749999999996" y="-4.669999999999999"/>
      <point x="304.22749999999996" y="162.25" type="curve" smooth="yes"/>
      <point x="304.22749999999996" y="207.67999999999998"/>
      <point x="298.62" y="249.965"/>
    </contour>
  </outline>
</glyph>
<glyph name="hyphen" format="2">
  <advance width="930.7475"/>
  <unicode hex="002D"/>
  <outline>
    <contour>
      <point x="136.3525" y="456.125" type="line"/>
      <point x="794.5024999999999" y="456.125" type="line"/>
      <point x="794.5024999999999" y="593.745" type="line"/>
      <point x="136.3525" y="593.745" type="line"/>
    </contour>
  </outline>
</glyph>
<glyph name="period" format="2">
  <advance width="433.2475"/>
  <unicode hex="002E"/>
  <outline>
    <contour>
      <point x="216.2125" y="-20.4575" type="curve" smooth="yes"/>
      <point x="291.8175" y="-20.4575"/>
      <point x="328.265" y="19.63"/>
      <point x="328.265" y="88.315" type="curve" smooth="yes"/>
      <point x="328.265" y="95.315" type="line" smooth="yes"/>
      <point x="328.265" y="163.3925"/>
      <point x="291.8175" y="203.26500000000001"/>
      <point x="216.2125" y="203.26500000000001" type="curve" smooth="yes"/>
      <point x="141.53750000000002" y="203.26500000000001"/>
      <point x="104.9825" y="163.3925"/>
      <point x="104.9825" y="95.315" type="curve" smooth="yes"/>
      <point x="104.9825" y="88.315" type="line" smooth="yes"/>
      <point x="104.9825" y="19.63"/>
      <point x="141.53750000000002" y="-20.4575"/>
    </contour>
  </outline>
</glyph>
<glyph name="slash" format="2">
  <advance width="986.9300000000001"/>
  <unicode hex="002F"/>
  <outline>
    <contour>
      <point x="31.47" y="-238.9525" type="line"/>
      <point x="197.8925" y="-238.9525" type="line"/>
      <point x="955.46" y="1335.42" type="line"/>
      <point x="789.8225" y="1335.42" type="line"/>
    </contour>
  </outline>
</glyph>
<glyph name="zero" format="2">
  <advance width="1329.6275"/>
  <unicode hex="0030"/>
  <outline>
    <contour>
      <point x="664.3675" y="-27.35" type="curve" smooth="yes"/>
      <point x="1027.0525" y="-27.35"/>
      <point x="1213.285" y="178.2525"/>
      <point x="1213.285" y="551.1625" type="curve"/>
      <point x="1213.285" y="725.9075" type="line"/>
      <point x="1213.285" y="1097.6399999999999"/>
      <point x="1027.0525" y="1304.85"/>
      <point x="664.3675" y="1304.85" type="curve" smooth="yes"/>
      <point x="302.1825" y="1304.85"/>
      <point x="116.3425" y="1097.6399999999999"/>
      <point x="116.3425" y="725.9075" type="curve"/>
      <point x="116.3425" y="551.1625" type="line"/>
      <point x="116.3425" y="178.2525"/>
      <point x="302.96750000000003" y="-27.35"/>
    </contour>
    <contour>
      <point x="664.3675" y="117.8725" type="curve" smooth="yes"/>
      <point x="415.78" y="117.8725"/>
      <point x="294.895" y="272.61750000000006"/>
      <point x="294.895" y="547.1300000000001" type="curve" smooth="yes"/>
      <point x="294.895" y="729.2624999999999" type="line" smooth="yes"/>
      <point x="294.895" y="1004.4900000000001"/>
      <point x="414.6025" y="1159.6274999999998"/>
      <point x="664.3675" y="1159.6274999999998" type="curve" smooth="yes"/>
      <point x="914.6324999999999" y="1159.6274999999998"/>
      <point x="1034.7324999999998" y="1004.8825"/>
      <point x="1034.7324999999998" y="729.2624999999999" type="curve" smooth="yes"/>
      <point x="1034.7324999999998" y="547.1300000000001" type="line" smooth="yes"/>
      <point x="1034.7324999999998" y="272.61750000000006"/>
      <point x="914.6324999999999" y="117.8725"/>
    </contour>
  </outline>
</glyph>
<glyph name="one" format="2">
  <advance width="764.5675"/>
  <unicode hex="0031"/>
  <outline>
    <contour>
      <point x="419.05" y="0.0" type="line"/>
      <point x="593.0699999999999" y="0.0" type="line"/>
      <point x="593.0699999999999" y="1278.0" type="line"/>
      <point x="419.455" y="1278.0" type="line"/>
      <point x="66.655" y="1093.7875000000001" type="line"/>
      <point x="60.23" y="931.86" type="line"/>
      <point x="404.97999999999996" y="1109.1575" type="line"/>
      <point x="419.05" y="1109.1575" type="line"/>
    </contour>
  </outline>
</glyph>
<glyph name="two" format="2">
  <advance width="1118.9049999999997"/>
  <unicode hex="0032"/>
  <outline>
    <contour>
      <point x="81.1225" y="0.0" type="line"/>
      <point x="1029.0299999999997" y="0.0" type="line"/>
      <point x="1029.0299999999997" y="146.4" type="line"/>
      <point x="245.8525" y="146.4" type="line"/>
      <point x="317.5175" y="114.63" type="line"/>
      <point x="317.5175" y="155.47000000000003" type="line"/>
      <point x="627.5875" y="389.5075" type="line" smooth="yes"/>
      <point x="863.2375" y="566.4575"/>
      <point x="1005.525" y="700.1075"/>
      <point x="1005.525" y="914.23" type="curve" smooth="yes"/>
      <point x="1005.525" y="926.1925" type="line" smooth="yes"/>
      <point x="1005.525" y="1167.29"/>
      <point x="846.395" y="1301.6025"/>
      <point x="544.21" y="1301.6025" type="curve" smooth="yes"/>
      <point x="348.275" y="1301.6025"/>
      <point x="199.8175" y="1240.4099999999999"/>
      <point x="105.215" y="1184.475" type="curve"/>
      <point x="87.0475" y="1025.4724999999999" type="line"/>
      <point x="197.085" y="1091.805"/>
      <point x="343.94" y="1152.8474999999999"/>
      <point x="514.4499999999999" y="1152.8474999999999" type="curve" smooth="yes"/>
      <point x="727.41" y="1152.8474999999999"/>
      <point x="826.9725000000001" y="1062.22"/>
      <point x="826.9725000000001" y="908.53" type="curve" smooth="yes"/>
      <point x="826.9725000000001" y="900.4224999999999" type="line" smooth="yes"/>
      <point x="826.9725000000001" y="733.84"/>
      <point x="690.3625000000001" y="624.1374999999999"/>
      <point x="484.7675" y="466.57" type="curve" smooth="yes"/>
      <point x="81.1225" y="164.685" type="line"/>
    </contour>
  </outline>
</glyph>
<glyph name="three" format="2">
  <advance width="1177.7375"/>
  <unicode hex="0033"/>
  <outline>
    <contour>
      <point x="550.7624999999999" y="-24.6025" type="curve" smooth="yes"/>
      <point x="907.265" y="-24.6025"/>
      <point x="1076.82" y="116.42999999999999"/>
      <point x="1076.82" y="346.3075" type="curve" smooth="yes"/>
      <point x="1076.82" y="371.52750000000003" type="line" smooth="yes"/>
      <point x="1076.82" y="548.7525"/>
      <point x="987.6175000000001" y="645.305"/>
      <point x="781.6975" y="670.215" type="curve"/>
      <point x="784.0425" y="651.8325" type="line"/>
      <point x="784.6875" y="674.6999999999999" type="line"/>
      <point x="979.6550000000001" y="695.47"/>
      <point x="1064.1750000000002" y="797.85"/>
      <point x="1064.1750000000002" y="954.215" type="curve" smooth="yes"/>
      <point x="1064.1750000000002" y="971.79" type="line" smooth="yes"/>
      <point x="1064.1750000000002" y="1182.1725"/>
      <point x="909.695" y="1301.8875"/>
      <point x="578.1500000000001" y="1301.8875" type="curve" smooth="yes"/>
      <point x="366.5375" y="1301.8875"/>
      <point x="212.4625" y="1249.555"/>
      <point x="117.22500000000001" y="1196.98" type="curve"/>
      <point x="99.95" y="1045.1875" type="line"/>
      <point x="208.7675" y="1102.59"/>
      <point x="372.075" y="1155.8799999999999"/>
      <point x="553.8850000000001" y="1155.8799999999999" type="curve" smooth="yes"/>
      <point x="792.99" y="1155.8799999999999"/>
      <point x="886.015" y="1083.71"/>
      <point x="886.015" y="949.4174999999999" type="curve" smooth="yes"/>
      <point x="886.015" y="936.0525" type="line" smooth="yes"/>
      <point x="886.015" y="813.3775"/>
      <point x="808.2475" y="735.4875"/>
      <point x="584.2724999999999" y="732.0250000000001" type="curve" smooth="yes"/>
      <point x="293.8575" y="727.385" type="line"/>
      <point x="293.8575" y="589.91" type="line"/>
      <point x="582.8050000000001" y="586.555" type="line" smooth="yes"/>
      <point x="814.57" y="583.5925"/>
      <point x="896.305" y="511.955"/>
      <point x="896.305" y="373.16749999999996" type="curve" smooth="yes"/>
      <point x="896.305" y="355.26500000000004" type="line" smooth="yes"/>
      <point x="896.305" y="213.575"/>
      <point x="793.8075" y="126.89999999999999"/>
      <point x="540.165" y="126.89999999999999" type="curve" smooth="yes"/>
      <point x="356.45" y="126.89999999999999"/>
      <point x="199.8375" y="177.19"/>
      <point x="92.165" y="233.265" type="curve"/>
      <point x="110.22500000000001" y="66.19749999999999" type="line"/>
      <point x="191.29" y="28.73"/>
      <point x="349.435" y="-24.6025"/>
    </contour>
  </outline>
</glyph>
<glyph name="four" format="2">
  <advance width="1226.9025"/>
  <unicode hex="0034"/>
  <outline>
    <contour>
      <point x="823.9225" y="0.0" type="line"/>
      <point x="992.055" y="0.0" type="line"/>
      <point x="992.055" y="1278.0" type="line"/>
      <point x="698.805" y="1278.0" type="line"/>
      <point x="64.22" y="433.67749999999995" type="line"/>
      <point x="64.22" y="257.7125" type="line"/>
      <point x="1194.0475" y="257.7125" type="line"/>
      <point x="1194.0475" y="402.71999999999997" type="line"/>
      <point x="179.565" y="402.71999999999997" type="line"/>
      <point x="247.09" y="332.5125" type="line"/>
      <point x="247.09" y="419.07500000000005" type="line"/>
      <point x="796.95" y="1155.01" type="line"/>
      <point x="828.0625" y="1155.01" type="line"/>
      <point x="823.9225" y="888.0625" type="line"/>
    </contour>
  </outline>
</glyph>
<glyph name="five" format="2">
  <advance width="1239.55"/>
  <unicode hex="0035"/>
  <outline>
    <contour>
      <point x="612.155" y="-22.8875" type="curve" smooth="yes"/>
      <point x="977.245" y="-22.8875"/>
      <point x="1138.9924999999998" y="142.63500000000002"/>
      <point x="1138.9924999999998" y="393.40999999999997" type="curve" smooth="yes"/>
      <point x="1138.9924999999998" y="435.85" type="line" smooth="yes"/>
      <point x="1138.9924999999998" y="680.0224999999999"/>
      <point x="1003.38" y="824.3025"/>
      <point x="728.4825000000001" y="824.3025" type="curve" smooth="yes"/>
      <point x="521.855" y="824.3025"/>
      <point x="393.2" y="742.0775"/>
      <point x="323.255" y="634.53" type="curve"/>
      <point x="319.2325" y="633.7775" type="line"/>
      <point x="321.7325" y="831.015" type="line"/>
      <point x="321.7325" y="1132.7075" type="line"/>
      <point x="1093.9275" y="1132.7075" type="line"/>
      <point x="1093.9275" y="1278.0" type="line"/>
      <point x="153.1375" y="1278.0" type="line"/>
      <point x="153.1375" y="545.445" type="line"/>
      <point x="304.135" y="516.25" type="line"/>
      <point x="386.87" y="619.9625"/>
      <point x="505.39000000000004" y="682.0425"/>
      <point x="670.6775" y="682.0425" type="curve" smooth="yes"/>
      <point x="871.835" y="682.0425"/>
      <point x="964.365" y="589.0825"/>
      <point x="964.365" y="432.28" type="curve" smooth="yes"/>
      <point x="964.365" y="396.0875" type="line" smooth="yes"/>
      <point x="964.365" y="231.07"/>
      <point x="856.9" y="129.0075"/>
      <point x="600.38" y="129.0075" type="curve" smooth="yes"/>
      <point x="408.23" y="129.0075"/>
      <point x="251.315" y="182.32999999999998"/>
      <point x="145.46" y="238.335" type="curve"/>
      <point x="164.23499999999999" y="72.5525" type="line"/>
      <point x="248.09" y="29.939999999999998"/>
      <point x="400.82750000000004" y="-22.8875"/>
    </contour>
  </outline>
</glyph>
<glyph name="six" format="2">
  <advance width="1275.815"/>
  <unicode hex="0036"/>
  <outline>
    <contour>
      <point x="668.5174999999999" y="-26.0275" type="curve" smooth="yes"/>
      <point x="998.1324999999999" y="-26.0275"/>
      <point x="1175.0099999999998" y="130.29"/>
      <point x="1175.0099999999998" y="385.8125" type="curve" smooth="yes"/>
      <point x="1175.0099999999998" y="426.2525" type="line" smooth="yes"/>
      <point x="1175.0099999999998" y="674.5975"/>
      <point x="1026.655" y="817.9849999999999"/>
      <point x="744.4775000000001" y="817.9849999999999" type="curve" smooth="yes"/>
      <point x="484.985" y="817.9849999999999"/>
      <point x="344.0675" y="695.3000000000001"/>
      <point x="293.7825" y="543.0875" type="curve"/>
      <point x="265.62" y="543.0875" type="line"/>
      <point x="287.2975" y="415.85499999999996" type="line"/>
      <point x="345.3025" y="570.755"/>
      <point x="486.215" y="680.935"/>
      <point x="692.415" y="680.935" type="curve" smooth="yes"/>
      <point x="911.7025000000001" y="680.935"/>
      <point x="1001.1675" y="580.34"/>
      <point x="1001.1675" y="423.29" type="curve" smooth="yes"/>
      <point x="1001.1675" y="388.59749999999997" type="line" smooth="yes"/>
      <point x="1001.1675" y="225.44"/>
      <point x="890.4224999999999" y="119.19500000000001"/>
      <point x="672.0500000000001" y="119.19500000000001" type="curve" smooth="yes"/>
      <point x="430.6875" y="119.19500000000001"/>
      <point x="285.2925" y="259.51"/>
      <point x="285.2925" y="531.4475" type="curve"/>
      <point x="285.2925" y="699.9225" type="line" smooth="yes"/>
      <point x="285.2925" y="995.92"/>
      <point x="428.0175" y="1153.9175"/>
      <point x="708.9449999999999" y="1153.9175" type="curve" smooth="yes"/>
      <point x="895.2299999999999" y="1153.9175"/>
      <point x="1005.2950000000001" y="1112.2725"/>
      <point x="1111.15" y="1055.305" type="curve"/>
      <point x="1092.4125" y="1212.415" type="line"/>
      <point x="1000.7075" y="1257.56"/>
      <point x="875.2925" y="1301.1025"/>
      <point x="686.18" y="1301.1025" type="curve" smooth="yes"/>
      <point x="308.855" y="1301.1025"/>
      <point x="110.66499999999999" y="1079.935"/>
      <point x="110.66499999999999" y="702.2774999999999" type="curve" smooth="yes"/>
      <point x="110.66499999999999" y="540.0825000000001" type="line" smooth="yes"/>
      <point x="110.66499999999999" y="174.6775"/>
      <point x="320.94" y="-26.0275"/>
    </contour>
  </outline>
</glyph>
<glyph name="seven" format="2">
  <advance width="1096.9650000000001"/>
  <unicode hex="0037"/>
  <outline>
    <contour>
      <point x="260.835" y="0.0" type="line"/>
      <point x="456.4475" y="0.0" type="line"/>
      <point x="1027.9225" y="1130.3525" type="line"/>
      <point x="1027.9225" y="1278.0" type="line"/>
      <point x="69.655" y="1278.0" type="line"/>
      <point x="69.655" y="1132.7075" type="line"/>
      <point x="839.8425" y="1132.7075" type="line"/>
    </contour>
  </outline>
</glyph>
<glyph name="eight" format="2">
  <advance width="1320.8725"/>
  <unicode hex="0038"/>
  <outline>
    <contour>
      <point x="659.705" y="-30.6725" type="curve" smooth="yes"/>
      <point x="1062.4675" y="-30.6725"/>
      <point x="1214.7025" y="115.1625"/>
      <point x="1214.7025" y="327.995" type="curve" smooth="yes"/>
      <point x="1214.7025" y="349.855" type="line" smooth="yes"/>
      <point x="1214.7025" y="534.515"/>
      <point x="1094.335" y="638.3375000000001"/>
      <point x="917.865" y="668.5" type="curve"/>
      <point x="917.865" y="676.0275" type="line"/>
      <point x="1081.615" y="695.0125"/>
      <point x="1196.95" y="791.0875000000001"/>
      <point x="1196.95" y="954.4300000000001" type="curve" smooth="yes"/>
      <point x="1196.95" y="976.3975" type="line" smooth="yes"/>
      <point x="1196.95" y="1183.72"/>
      <point x="1023.095" y="1305.4950000000001"/>
      <point x="659.705" y="1305.4950000000001" type="curve" smooth="yes"/>
      <point x="298.17" y="1305.4950000000001"/>
      <point x="124.4225" y="1183.72"/>
      <point x="124.4225" y="976.3975" type="curve" smooth="yes"/>
      <point x="124.4225" y="954.4300000000001" type="line" smooth="yes"/>
      <point x="124.4225" y="790.5875000000001"/>
      <point x="239.5425" y="695.0125"/>
      <point x="403.4" y="676.0275" type="curve"/>
      <point x="403.4" y="668.5" type="line"/>
      <point x="227.8225" y="638.73"/>
      <point x="106.5625" y="535.3"/>
      <point x="106.5625" y="349.855" type="curve" smooth="yes"/>
      <point x="106.5625" y="327.995" type="line" smooth="yes"/>
      <point x="106.5625" y="108.49"/>
      <point x="268.71750000000003" y="-30.6725"/>
    </contour>
    <contour>
      <point x="662.845" y="111.0175" type="curve" smooth="yes"/>
      <point x="404.44" y="111.0175"/>
      <point x="285.115" y="198.215"/>
      <point x="285.115" y="343.15749999999997" type="curve" smooth="yes"/>
      <point x="285.115" y="363.0225" type="line" smooth="yes"/>
      <point x="285.115" y="502.68"/>
      <point x="405.9725" y="586.7"/>
      <point x="654.6025" y="600.045" type="curve"/>
      <point x="910.1899999999999" y="586.6999999999999"/>
      <point x="1036.15" y="505.03499999999997"/>
      <point x="1036.15" y="363.0225" type="curve" smooth="yes"/>
      <point x="1036.15" y="343.15749999999997" type="line" smooth="yes"/>
      <point x="1036.15" y="199.785"/>
      <point x="919.1800000000001" y="111.0175"/>
    </contour>
    <contour>
      <point x="665.985" y="723.6425" type="curve"/>
      <point x="424.14500000000004" y="731.1"/>
      <point x="299.33500000000004" y="807.2974999999999"/>
      <point x="299.33500000000004" y="942.37" type="curve" smooth="yes"/>
      <point x="299.33500000000004" y="958.5575" type="line" smooth="yes"/>
      <point x="299.33500000000004" y="1091.355"/>
      <point x="415.2625" y="1168.1225"/>
      <point x="659.705" y="1168.1225" type="curve" smooth="yes"/>
      <point x="906.395" y="1168.1225"/>
      <point x="1022.0375" y="1091.355"/>
      <point x="1022.0375" y="957.7724999999999" type="curve" smooth="yes"/>
      <point x="1022.0375" y="941.585" type="line" smooth="yes"/>
      <point x="1022.0375" y="806.12"/>
      <point x="892.3025" y="731.1"/>
    </contour>
  </outline>
</glyph>
<glyph name="nine" format="2">
  <advance width="1273.67"/>
  <unicode hex="0039"/>
  <outline>
    <contour>
      <point x="612.7975" y="1302.28" type="curve" smooth="yes"/>
      <point x="278.5375" y="1302.28"/>
      <point x="100.80499999999999" y="1145.2475000000002"/>
      <point x="100.80499999999999" y="890.5474999999999" type="curve" smooth="yes"/>
      <point x="100.80499999999999" y="847.15" type="line" smooth="yes"/>
      <point x="100.80499999999999" y="600.8000000000001"/>
      <point x="251.085" y="456.48249999999996"/>
      <point x="537.5525" y="456.48249999999996" type="curve" smooth="yes"/>
      <point x="789.2924999999999" y="456.48249999999996"/>
      <point x="931.7425000000001" y="576.3725"/>
      <point x="981.3875" y="725.6825" type="curve"/>
      <point x="1014.26" y="725.6825" type="line"/>
      <point x="988.3725" y="852.5225" type="line"/>
      <point x="928.5450000000001" y="699.17"/>
      <point x="789.3475" y="593.5325"/>
      <point x="592.755" y="593.5325" type="curve" smooth="yes"/>
      <point x="373.8875" y="593.5325"/>
      <point x="275.04" y="690.9175"/>
      <point x="275.04" y="853.0749999999999" type="curve" smooth="yes"/>
      <point x="275.04" y="889.155" type="line" smooth="yes"/>
      <point x="275.04" y="1050.8825"/>
      <point x="385.71" y="1157.0575000000001"/>
      <point x="609.6575" y="1157.0575000000001" type="curve" smooth="yes"/>
      <point x="862.7725" y="1157.0575000000001"/>
      <point x="988.9475" y="1019.3824999999999"/>
      <point x="988.9475" y="733.51" type="curve"/>
      <point x="988.9475" y="557.19" type="line" smooth="yes"/>
      <point x="988.9475" y="271.4725"/>
      <point x="848.0775" y="122.33500000000001"/>
      <point x="544.2624999999999" y="122.33500000000001" type="curve" smooth="yes"/>
      <point x="373.97249999999997" y="122.33500000000001"/>
      <point x="260.79999999999995" y="164.26500000000001"/>
      <point x="160.1925" y="217.98000000000002" type="curve"/>
      <point x="179.5375" y="55.160000000000004" type="line"/>
      <point x="264.10249999999996" y="15.1225"/>
      <point x="382.8075" y="-25.2425"/>
      <point x="561.925" y="-25.2425" type="curve" smooth="yes"/>
      <point x="961.675" y="-25.2425"/>
      <point x="1163.86" y="183.5325"/>
      <point x="1163.86" y="552.0875" type="curve" smooth="yes"/>
      <point x="1163.86" y="724.3050000000001" type="line" smooth="yes"/>
      <point x="1163.86" y="1101.8600000000001"/>
      <point x="976.015" y="1302.28"/>
    </contour>
  </outline>
</glyph>
<glyph name="less" format="2">
  <advance width="1201.09"/>
  <unicode hex="003C"/>
  <outline>
    <contour>
      <point x="251.4675" y="623.65" type="line"/>
      <point x="1045.77" y="834.285" type="line"/>
      <point x="1045.77" y="984.3625" type="line"/>
      <point x="124.94500000000001" y="728.6125" type="line"/>
      <point x="124.94500000000001" y="497.54249999999996" type="line"/>
      <point x="1045.77" y="241.00750000000002" type="line"/>
      <point x="1045.77" y="391.4775" type="line"/>
      <point x="251.4675" y="603.29" type="line"/>
    </contour>
  </outline>
</glyph>
<glyph name="equal" format="2">
  <advance width="1196.9775"/>
  <unicode hex="003D"/>
  <outline>
    <contour>
      <point x="140.23499999999999" y="323.8675" type="line"/>
      <point x="1056.7425" y="323.8675" type="line"/>
      <point x="1056.7425" y="459.91749999999996" type="line"/>
      <point x="140.23499999999999" y="459.91749999999996" type="line"/>
    </contour>
    <contour>
      <point x="140.23499999999999" y="770.2325" type="line"/>
      <point x="1056.7425" y="770.2325" type="line"/>
      <point x="1056.7425" y="906.2825" type="line"/>
      <point x="140.23499999999999" y="906.2825" type="line"/>
    </contour>
  </outline>
</glyph>
<glyph name="greater" format="2">
  <advance width="1201.09"/>
  <unicode hex="003E"/>
  <outline>
    <contour>
      <point x="949.6225000000001" y="623.65" type="line"/>
      <point x="949.6225000000001" y="603.29" type="line"/>
      <point x="155.32000000000002" y="391.4775" type="line"/>
      <point x="155.32000000000002" y="241.00750000000002" type="line"/>
      <point x="1076.145" y="497.54249999999996" type="line"/>
      <point x="1076.145" y="728.6125" type="line"/>
      <point x="155.32000000000002" y="984.3625" type="line"/>
      <point x="155.32000000000002" y="834.285" type="line"/>
    </contour>
  </outline>
</glyph>
<glyph name="question" format="2">
  <advance width="1073.7625"/>
  <unicode hex="003F"/>
  <outline>
    <contour>
      <point x="315.98" y="333.67499999999995" type="line"/>
      <point x="471.085" y="333.67499999999995" type="line"/>
      <point x="471.085" y="583.545" type="line"/>
      <point x="408.83000000000004" y="531.2149999999999" type="line"/>
      <point x="526.9200000000001" y="535.9300000000001" type="line"/>
      <point x="831.2850000000001" y="550.4350000000001"/>
      <point x="975.2375" y="668.1225"/>
      <point x="975.2375" y="901.505" type="curve" smooth="yes"/>
      <point x="975.2375" y="949.8325" type="line" smooth="yes"/>
      <point x="975.2375" y="1176.7475"/>
      <point x="831.8275" y="1300.3875"/>
      <point x="518.52" y="1300.3875" type="curve" smooth="yes"/>
      <point x="320.295" y="1300.3875"/>
      <point x="166.08" y="1238.2325"/>
      <point x="82.4025" y="1187.4375" type="curve"/>
      <point x="62.7725" y="1041.64" type="line"/>
      <point x="176.44" y="1103.865"/>
      <point x="326.12749999999994" y="1156.5575"/>
      <point x="492.615" y="1156.5575" type="curve" smooth="yes"/>
      <point x="719.16" y="1156.5575"/>
      <point x="800.8625000000001" y="1079.78"/>
      <point x="800.8625000000001" y="936.38" type="curve" smooth="yes"/>
      <point x="800.8625000000001" y="897.1875" type="line" smooth="yes"/>
      <point x="800.8625000000001" y="746.53"/>
      <point x="706.655" y="659.9350000000001"/>
      <point x="464.15250000000003" y="648.8225" type="curve" smooth="yes"/>
      <point x="315.98" y="644.1075" type="line"/>
    </contour>
    <contour>
      <point x="393.03249999999997" y="-21.2425" type="curve" smooth="yes"/>
      <point x="467.46" y="-21.2425"/>
      <point x="503.9075" y="17.6675"/>
      <point x="503.9075" y="83.9975" type="curve" smooth="yes"/>
      <point x="503.9075" y="90.605" type="line" smooth="yes"/>
      <point x="503.9075" y="156.72"/>
      <point x="467.46" y="195.0225"/>
      <point x="393.03249999999997" y="195.0225" type="curve" smooth="yes"/>
      <point x="319.535" y="195.0225"/>
      <point x="283.76500000000004" y="156.72"/>
      <point x="283.76500000000004" y="90.605" type="curve" smooth="yes"/>
      <point x="283.76500000000004" y="83.9975" type="line" smooth="yes"/>
      <point x="283.76500000000004" y="17.6675"/>
      <point x="319.535" y="-21.2425"/>
    </contour>
  </outline>
</glyph>
<glyph name="at" format="2">
  <advance width="1869.7450000000001"/>
  <unicode hex="0040"/>
  <outline>
    <contour>
      <point x="836.4175" y="72.1875" type="curve" smooth="yes"/>
      <point x="1007.5775" y="72.1875"/>
      <point x="1098.7525" y="161.0675"/>
      <point x="1138.85" y="279.84499999999997" type="curve"/>
      <point x="1180.4275" y="279.84499999999997" type="line"/>
      <point x="1156.4750000000001" y="400.8825" type="line"/>
      <point x="1123.4699999999998" y="286.0575"/>
      <point x="1027.44" y="206.56"/>
      <point x="908.8625" y="206.56" type="curve" smooth="yes"/>
      <point x="788.14" y="206.56"/>
      <point x="720.33" y="269.01"/>
      <point x="720.33" y="396.3725" type="curve" smooth="yes"/>
      <point x="720.33" y="409.2375"/>
      <point x="721.0825" y="426.6825"/>
      <point x="728.26" y="494.03249999999997" type="curve" smooth="yes"/>
      <point x="737.405" y="661.3725"/>
      <point x="812.29" y="771.225"/>
      <point x="967.695" y="771.225" type="curve" smooth="yes"/>
      <point x="1089.3274999999999" y="771.225"/>
      <point x="1172.4375" y="699.355"/>
      <point x="1172.1525" y="557.245" type="curve" smooth="yes"/>
      <point x="1172.1525" y="549.745"/>
      <point x="1172.1525" y="541.46"/>
      <point x="1171.76" y="533.1750000000001" type="curve"/>
      <point x="1223.6275" y="687.2425000000001" type="line"/>
      <point x="1178.765" y="687.2425000000001" type="line"/>
      <point x="1164.1125000000002" y="818.1850000000001"/>
      <point x="1082.2925" y="900.78"/>
      <point x="920.2025" y="900.78" type="curve" smooth="yes"/>
      <point x="690.74" y="900.78"/>
      <point x="576.9825000000001" y="732.0475"/>
      <point x="563.3050000000001" y="473.94" type="curve" smooth="yes"/>
      <point x="556.235" y="406.41249999999997"/>
      <point x="555.375" y="388.14500000000004"/>
      <point x="555.375" y="372.71000000000004" type="curve" smooth="yes"/>
      <point x="555.375" y="176.935"/>
      <point x="663.02" y="72.1875"/>
    </contour>
    <contour>
      <point x="1120.3675" y="87.0475" type="line"/>
      <point x="1274.7250000000001" y="113.05999999999999" type="line"/>
      <point x="1354.9025" y="881.1025000000001" type="line"/>
      <point x="1201.0449999999998" y="881.1025000000001" type="line"/>
      <point x="1200.1525000000001" y="871.3225" type="line"/>
      <point x="1181.7224999999999" y="659.9525" type="line"/>
      <point x="1179.7225" y="633.64" type="line"/>
      <point x="1147.975" y="348.2475" type="line"/>
      <point x="1148.8675" y="318.6925" type="line"/>
    </contour>
    <contour>
      <point x="1238.4225000000001" y="208.82250000000002" type="curve"/>
      <point x="1120.3675" y="87.0475" type="line"/>
      <point x="1163.6425" y="80.2625"/>
      <point x="1199.8049999999998" y="79.655"/>
      <point x="1247.7299999999998" y="80.0475" type="curve" smooth="yes"/>
      <point x="1569.31" y="81.22500000000001"/>
      <point x="1737.8325" y="218.5425"/>
      <point x="1755.08" y="543.08" type="curve" smooth="yes"/>
      <point x="1763.22" y="607.3874999999999"/>
      <point x="1766.22" y="643.7525"/>
      <point x="1767.3274999999999" y="668.0325" type="curve" smooth="yes"/>
      <point x="1777.01" y="1093.2375"/>
      <point x="1497.165" y="1327.5549999999998"/>
      <point x="1003.1575" y="1327.5549999999998" type="curve" smooth="yes"/>
      <point x="453.425" y="1327.5549999999998"/>
      <point x="149.20749999999998" y="1025.0275"/>
      <point x="122.9975" y="488.6825" type="curve" smooth="yes"/>
      <point x="115.3575" y="414.81"/>
      <point x="111.9975" y="370.32250000000005"/>
      <point x="111.24499999999999" y="326.10249999999996" type="curve" smooth="yes"/>
      <point x="108.3425" y="-121.705"/>
      <point x="389.225" y="-358.21"/>
      <point x="900.0124999999999" y="-358.21" type="curve" smooth="yes"/>
      <point x="1187.1200000000001" y="-358.21"/>
      <point x="1392.4199999999998" y="-301.63"/>
      <point x="1551.5125" y="-211.10500000000002" type="curve"/>
      <point x="1577.175" y="-69.54499999999999" type="line"/>
      <point x="1418.3024999999998" y="-172.3175"/>
      <point x="1194.9475" y="-236.6125"/>
      <point x="916.75" y="-236.6125" type="curve" smooth="yes"/>
      <point x="480.7675" y="-236.6125"/>
      <point x="252.495" y="-41.222500000000004"/>
      <point x="255.29" y="330.705" type="curve" smooth="yes"/>
      <point x="256.0425" y="370.57"/>
      <point x="259.51" y="410.6325"/>
      <point x="267.935" y="491.85999999999996" type="curve" smooth="yes"/>
      <point x="288.78999999999996" y="942.8725000000001"/>
      <point x="529.0200000000001" y="1208.5975"/>
      <point x="996.34" y="1208.5975" type="curve" smooth="yes"/>
      <point x="1415.8274999999999" y="1208.5975"/>
      <point x="1632.3950000000002" y="1013.755"/>
      <point x="1623.39" y="667.0699999999999" type="curve" smooth="yes"/>
      <point x="1622.2824999999998" y="645.86"/>
      <point x="1618.39" y="602.5"/>
      <point x="1610.6425" y="545.8275" type="curve" smooth="yes"/>
      <point x="1597.9275" y="307.155"/>
      <point x="1494.0375" y="204.5"/>
      <point x="1311.8475" y="204.5" type="curve" smooth="yes"/>
      <point x="1275.7775" y="204.5"/>
      <point x="1260.455" y="205.715"/>
    </contour>
  </outline>
</glyph>
<glyph name="A" format="2">
  <advance width="1376.3"/>
  <unicode hex="0041"/>
  <anchor x="688.4" y="0.0" name="bottom"/>
  <anchor x="1364.6399999999999" y="1.9625" name="ogonek"/>
  <anchor x="688.4" y="1278.0" name="top"/>
  <outline>
    <contour>
      <point x="51.917500000000004" y="0.0" type="line"/>
      <point x="231.185" y="0.0" type="line"/>
      <point x="674.3625" y="1163.575" type="line"/>
      <point x="703.2924999999999" y="1163.575" type="line"/>
      <point x="1145.1149999999998" y="0.0" type="line"/>
      <point x="1324.3825" y="0.0" type="line"/>
      <point x="824.7775" y="1278.0" type="line"/>
      <point x="552.8775" y="1278.0" type="line"/>
    </contour>
    <contour>
      <point x="334.4275" y="375.71000000000004" type="line"/>
      <point x="1040.98" y="375.71000000000004" type="line"/>
      <point x="1040.98" y="518.9325" type="line"/>
      <point x="334.4275" y="518.9325" type="line"/>
    </contour>
  </outline>
</glyph>
<glyph name="B" format="2">
  <advance width="1383.7275000000002"/>
  <unicode hex="0042"/>
  <anchor x="693.2375000000001" y="0.0" name="bottom"/>
  <anchor x="693.2375000000001" y="1278.0" name="top"/>
  <outline>
    <contour>
      <point x="294.83250000000004" y="0.0" type="line"/>
      <point x="865.5749999999999" y="0.0" type="line" smooth="yes"/>
      <point x="1156.54" y="0.0"/>
      <point x="1281.81" y="130.1075"/>
      <point x="1281.81" y="342.5875" type="curve" smooth="yes"/>
      <point x="1281.81" y="371.845" type="line" smooth="yes"/>
      <point x="1281.81" y="555.85"/>
      <point x="1189.5850000000003" y="659.1875"/>
      <point x="996.9" y="683.0975" type="curve"/>
      <point x="995.61" y="687.8675" type="line"/>
      <point x="1166.1175" y="702.395"/>
      <point x="1248.8799999999999" y="798.0925"/>
      <point x="1248.8799999999999" y="951.6075000000001" type="curve" smooth="yes"/>
      <point x="1248.8799999999999" y="969.29" type="line" smooth="yes"/>
      <point x="1248.8799999999999" y="1164.2424999999998"/>
      <point x="1130.8574999999998" y="1278.0"/>
      <point x="844.215" y="1278.0" type="curve" smooth="yes"/>
      <point x="293.2625" y="1278.0" type="line"/>
      <point x="293.2625" y="1136.3474999999999" type="line"/>
      <point x="832.225" y="1136.3474999999999" type="line" smooth="yes"/>
      <point x="1005.7" y="1136.3474999999999"/>
      <point x="1073.5749999999998" y="1062.1399999999999"/>
      <point x="1073.5749999999998" y="940.03" type="curve" smooth="yes"/>
      <point x="1073.5749999999998" y="924.6325" type="line" smooth="yes"/>
      <point x="1073.5749999999998" y="804.0224999999999"/>
      <point x="1003.3774999999999" y="727.1"/>
      <point x="834.9825" y="727.1" type="curve" smooth="yes"/>
      <point x="295.08500000000004" y="727.1" type="line"/>
      <point x="295.08500000000004" y="589.48" type="line"/>
      <point x="844.3325" y="589.48" type="line" smooth="yes"/>
      <point x="1030.92" y="589.48"/>
      <point x="1102.9725" y="510.95000000000005"/>
      <point x="1102.9725" y="378.47999999999996" type="curve" smooth="yes"/>
      <point x="1102.9725" y="353.79249999999996" type="line" smooth="yes"/>
      <point x="1102.9725" y="223.86"/>
      <point x="1029.8125" y="143.22250000000003"/>
      <point x="851.2299999999999" y="143.22250000000003" type="curve" smooth="yes"/>
      <point x="294.83250000000004" y="143.22250000000003" type="line"/>
    </contour>
    <contour>
      <point x="173.60500000000002" y="0.0" type="line"/>
      <point x="345.6625" y="0.0" type="line"/>
      <point x="345.6625" y="1278.0" type="line"/>
      <point x="173.60500000000002" y="1278.0" type="line"/>
    </contour>
  </outline>
</glyph>
<glyph name="C" format="2">
  <advance width="1258.1825"/>
  <unicode hex="0043"/>
  <anchor x="683.8825" y="0.0" name="bottom"/>
  <anchor x="683.8825" y="1278.0" name="top"/>
  <outline>
    <contour>
      <point x="713.5875" y="-26.9575" type="curve" smooth="yes"/>
      <point x="909.3874999999999" y="-26.9575"/>
      <point x="1055.07" y="32.9175"/>
      <point x="1142.2424999999998" y="90.32" type="curve"/>
      <point x="1157.055" y="252.4625" type="line"/>
      <point x="1053.9474999999998" y="182.485"/>
      <point x="914.4799999999999" y="124.6525"/>
      <point x="733.7825" y="124.6525" type="curve" smooth="yes"/>
      <point x="439.635" y="124.6525"/>
      <point x="291.0725" y="285.0"/>
      <point x="291.0725" y="562.9799999999999" type="curve" smooth="yes"/>
      <point x="291.0725" y="720.3375" type="line" smooth="yes"/>
      <point x="291.0725" y="997.4625"/>
      <point x="439.92" y="1156.2025"/>
      <point x="721.7825" y="1156.2025" type="curve" smooth="yes"/>
      <point x="908.5450000000001" y="1156.2025"/>
      <point x="1044.055" y="1096.0475000000001"/>
      <point x="1145.4475000000002" y="1028.8925" type="curve"/>
      <point x="1130.0275" y="1188.9650000000001" type="line"/>
      <point x="1043.3925" y="1245.4375"/>
      <point x="900.35" y="1304.9575"/>
      <point x="706.19" y="1304.9575" type="curve" smooth="yes"/>
      <point x="314.8325" y="1304.9575"/>
      <point x="111.3425" y="1091.9675"/>
      <point x="111.3425" y="721.1225000000001" type="curve" smooth="yes"/>
      <point x="111.3425" y="559.84" type="line" smooth="yes"/>
      <point x="111.3425" y="186.355"/>
      <point x="315.61749999999995" y="-26.9575"/>
    </contour>
  </outline>
</glyph>
<glyph name="D" format="2">
  <advance width="1406.7225"/>
  <unicode hex="0044"/>
  <anchor x="690.3825" y="0.0" name="bottom"/>
  <anchor x="707.8075" y="639.0" name="center"/>
  <anchor x="690.3825" y="1278.0" name="top"/>
  <outline>
    <contour>
      <point x="297.40749999999997" y="0.0" type="line"/>
      <point x="699.26" y="0.0" type="line" smooth="yes"/>
      <point x="1090.4175" y="0.0"/>
      <point x="1297.6275" y="201.4625"/>
      <point x="1297.6275" y="563.4575" type="curve" smooth="yes"/>
      <point x="1297.6275" y="717.005" type="line" smooth="yes"/>
      <point x="1297.6275" y="1077.93"/>
      <point x="1090.0249999999999" y="1278.0"/>
      <point x="699.26" y="1278.0" type="curve" smooth="yes"/>
      <point x="293.2625" y="1278.0" type="line"/>
      <point x="293.2625" y="1133.9925" type="line"/>
      <point x="693.6575" y="1133.9925" type="line" smooth="yes"/>
      <point x="972.5400000000001" y="1133.9925"/>
      <point x="1119.0749999999998" y="984.9250000000001"/>
      <point x="1119.0749999999998" y="716.1125000000001" type="curve" smooth="yes"/>
      <point x="1119.0749999999998" y="563.9575" type="line" smooth="yes"/>
      <point x="1119.0749999999998" y="295.86"/>
      <point x="972.5400000000001" y="144.7925"/>
      <point x="693.6575" y="144.7925" type="curve" smooth="yes"/>
      <point x="297.40749999999997" y="144.7925" type="line"/>
    </contour>
    <contour>
      <point x="173.60500000000002" y="0.0" type="line"/>
      <point x="347.34" y="0.0" type="line"/>
      <point x="347.34" y="1278.0" type="line"/>
      <point x="173.60500000000002" y="1278.0" type="line"/>
    </contour>
  </outline>
</glyph>
<glyph name="E" format="2">
  <advance width="1258.4099999999999"/>
  <unicode hex="0045"/>
  <anchor x="664.3924999999999" y="0.0" name="bottom"/>
  <anchor x="1170.27" y="1.9625" name="ogonek"/>
  <anchor x="664.3924999999999" y="1278.0" name="top"/>
  <anchor x="20.645" y="1278.0" name="topleft"/>
  <outline>
    <contour>
      <point x="173.60500000000002" y="0.0" type="line"/>
      <point x="345.6625" y="0.0" type="line"/>
      <point x="345.6625" y="1278.0" type="line"/>
      <point x="173.60500000000002" y="1278.0" type="line"/>
    </contour>
    <contour>
      <point x="204.8425" y="0.0" type="line"/>
      <point x="1143.035" y="0.0" type="line"/>
      <point x="1143.035" y="144.4" type="line"/>
      <point x="204.8425" y="144.4" type="line"/>
    </contour>
    <contour>
      <point x="267.60999999999996" y="579.6949999999999" type="line"/>
      <point x="1114.0725" y="579.6949999999999" type="line"/>
      <point x="1114.0725" y="722.1324999999999" type="line"/>
      <point x="267.60999999999996" y="722.1324999999999" type="line"/>
    </contour>
    <contour>
      <point x="204.23499999999999" y="1133.9925" type="line"/>
      <point x="1133.18" y="1133.9925" type="line"/>
      <point x="1133.18" y="1278.0" type="line"/>
      <point x="204.23499999999999" y="1278.0" type="line"/>
    </contour>
  </outline>
</glyph>
<glyph name="F" format="2">
  <advance width="1205.77"/>
  <unicode hex="0046"/>
  <anchor x="603.5275" y="0.0" name="bottom"/>
  <anchor x="603.5275" y="1278.0" name="top"/>
  <outline>
    <contour>
      <point x="173.60500000000002" y="0.0" type="line"/>
      <point x="346.9475" y="0.0" type="line"/>
      <point x="346.9475" y="1278.0" type="line"/>
      <point x="173.60500000000002" y="1278.0" type="line"/>
    </contour>
    <contour>
      <point x="267.60999999999996" y="528.2525" type="line"/>
      <point x="1089.7549999999999" y="528.2525" type="line"/>
      <point x="1089.7549999999999" y="672.6525" type="line"/>
      <point x="267.60999999999996" y="672.6525" type="line"/>
    </contour>
    <contour>
      <point x="204.23499999999999" y="1133.6000000000001" type="line"/>
      <point x="1107.04" y="1133.6000000000001" type="line"/>
      <point x="1107.04" y="1278.0" type="line"/>
      <point x="204.23499999999999" y="1278.0" type="line"/>
    </contour>
  </outline>
</glyph>
<glyph name="G" format="2">
  <advance width="1429.2925"/>
  <unicode hex="0047"/>
  <anchor x="713.0550000000001" y="0.0" name="bottom"/>
  <anchor x="713.0550000000001" y="1278.0" name="top"/>
  <outline>
    <contour>
      <point x="674.2724999999999" y="-27.35" type="curve" smooth="yes"/>
      <point x="944.615" y="-27.35"/>
      <point x="1065.4625" y="99.1425"/>
      <point x="1104.785" y="236.0775" type="curve"/>
      <point x="1275.1225" y="235.47" type="line"/>
      <point x="1275.1225" y="708.9649999999999" type="line"/>
      <point x="739.34" y="708.9649999999999" type="line"/>
      <point x="739.34" y="566.7425" type="line"/>
      <point x="1132.5175000000002" y="567.5274999999999" type="line"/>
      <point x="1106.3124999999998" y="628.2774999999999" type="line"/>
      <point x="1106.3124999999998" y="349.2275" type="line"/>
      <point x="1061.9525" y="225.01000000000002"/>
      <point x="936.1750000000001" y="120.2275"/>
      <point x="727.0125" y="120.2275" type="curve" smooth="yes"/>
      <point x="439.855" y="120.2275"/>
      <point x="291.0725" y="277.435"/>
      <point x="291.0725" y="552.42" type="curve" smooth="yes"/>
      <point x="291.0725" y="711.1225000000001" type="line" smooth="yes"/>
      <point x="291.0725" y="997.85"/>
      <point x="449.6675" y="1156.9875"/>
      <point x="764.37" y="1156.9875" type="curve" smooth="yes"/>
      <point x="971.525" y="1156.9875"/>
      <point x="1126.4925" y="1096.0475"/>
      <point x="1243.4125000000001" y="1027.7849999999999" type="curve"/>
      <point x="1226.4225000000001" y="1183.325" type="line"/>
      <point x="1124.9374999999998" y="1243.3674999999998"/>
      <point x="963.9375" y="1304.9575"/>
      <point x="742.32" y="1304.9575" type="curve" smooth="yes"/>
      <point x="328.6825" y="1304.9575"/>
      <point x="111.3425" y="1088.8225"/>
      <point x="111.3425" y="711.515" type="curve" smooth="yes"/>
      <point x="111.3425" y="551.135" type="line" smooth="yes"/>
      <point x="111.3425" y="182.5"/>
      <point x="313.6975" y="-27.35"/>
    </contour>
    <contour>
      <point x="1112.6675" y="279.55249999999995" type="line"/>
      <point x="1104.7424999999998" y="0.0" type="line"/>
      <point x="1275.1225" y="0.0" type="line"/>
      <point x="1275.1225" y="279.55249999999995" type="line"/>
    </contour>
  </outline>
</glyph>
<glyph name="H" format="2">
  <advance width="1460.7875000000001"/>
  <unicode hex="0048"/>
  <anchor x="730.4475" y="0.0" name="bottom"/>
  <anchor x="730.4475" y="639.0" name="center"/>
  <anchor x="730.4475" y="1278.0" name="top"/>
  <anchor x="20.645" y="1278.0" name="topleft"/>
  <outline>
    <contour>
      <point x="348.51750000000004" y="0.0" type="line"/>
      <point x="348.51750000000004" y="1278.0" type="line"/>
      <point x="173.60500000000002" y="1278.0" type="line"/>
      <point x="173.60500000000002" y="0.0" type="line"/>
    </contour>
    <contour>
      <point x="1287.1825" y="0.0" type="line"/>
      <point x="1287.1825" y="1278.0" type="line"/>
      <point x="1112.2700000000002" y="1278.0" type="line"/>
      <point x="1112.2700000000002" y="0.0" type="line"/>
    </contour>
    <contour>
      <point x="268.7175" y="731.525" type="line"/>
      <point x="268.7175" y="587.0175" type="line"/>
      <point x="1186.0800000000002" y="587.0175" type="line"/>
      <point x="1186.0800000000002" y="731.525" type="line"/>
    </contour>
  </outline>
</glyph>
<glyph name="I" format="2">
  <advance width="525.9825"/>
  <unicode hex="0049"/>
  <anchor x="263.045" y="0.0" name="bottom"/>
  <anchor x="391.8125" y="1.9625" name="ogonek"/>
  <anchor x="263.045" y="1278.0" name="top"/>
  <anchor x="20.645" y="1278.0" name="topleft"/>
  <outline>
    <contour>
      <point x="350.44750000000005" y="0.0" type="line"/>
      <point x="350.44750000000005" y="1278.0" type="line"/>
      <point x="175.53500000000003" y="1278.0" type="line"/>
      <point x="175.53500000000003" y="0.0" type="line"/>
    </contour>
  </outline>
</glyph>
<glyph name="J" format="2">
  <advance width="986.7725"/>
  <unicode hex="004A"/>
  <anchor x="494.83250000000004" y="0.0" name="bottom"/>
  <anchor x="734.0875" y="1278.0" name="top"/>
  <outline>
    <contour>
      <point x="381.7025" y="-15.3175" type="curve" smooth="yes"/>
      <point x="701.0749999999999" y="-15.3175"/>
      <point x="823.275" y="135.565"/>
      <point x="823.275" y="428.4325" type="curve" smooth="yes"/>
      <point x="823.275" y="1278.0" type="line"/>
      <point x="648.3625" y="1278.0" type="line"/>
      <point x="648.3625" y="437.17499999999995" type="line" smooth="yes"/>
      <point x="648.3625" y="233.42000000000002"/>
      <point x="571.4175" y="135.5075"/>
      <point x="355.62" y="135.5075" type="curve" smooth="yes"/>
      <point x="256.1475" y="135.5075"/>
      <point x="159.03" y="156.33"/>
      <point x="71.52000000000001" y="194.0175" type="curve"/>
      <point x="87.9025" y="38.1925" type="line"/>
      <point x="170.655" y="3.6875"/>
      <point x="276.3375" y="-15.3175"/>
    </contour>
  </outline>
</glyph>
<glyph name="K" format="2">
  <advance width="1332.605"/>
  <unicode hex="004B"/>
  <anchor x="672.0875000000001" y="0.0" name="bottom"/>
  <anchor x="672.0875000000001" y="1278.0" name="top"/>
  <outline>
    <contour>
      <point x="1063.8975" y="0.0" type="line"/>
      <point x="1284.8925" y="0.0" type="line"/>
      <point x="644.445" y="683.0550000000001" type="line"/>
      <point x="644.945" y="637.1125" type="line"/>
      <point x="1270.5" y="1278.0" type="line"/>
      <point x="1057.0375000000001" y="1278.0" type="line"/>
      <point x="514.54" y="723.95" type="line"/>
      <point x="332.1675" y="723.95" type="line"/>
      <point x="332.1675" y="581.5125" type="line"/>
      <point x="513.1475" y="581.5125" type="line"/>
    </contour>
    <contour>
      <point x="173.60500000000002" y="0.0" type="line"/>
      <point x="347.34000000000003" y="0.0" type="line"/>
      <point x="347.34000000000003" y="1278.0" type="line"/>
      <point x="173.60500000000002" y="1278.0" type="line"/>
    </contour>
  </outline>
</glyph>
<glyph name="L" format="2">
  <advance width="1167.7799999999997"/>
  <unicode hex="004C"/>
  <anchor x="629.435" y="0.0" name="bottom"/>
  <anchor x="573.3275000000001" y="643.2524999999999" name="center"/>
  <anchor x="261.50750000000005" y="1278.0" name="top"/>
  <anchor x="792.745" y="1278.0" name="topright"/>
  <outline>
    <contour>
      <point x="348.51750000000004" y="0.0" type="line"/>
      <point x="348.51750000000004" y="1278.0" type="line"/>
      <point x="173.60500000000002" y="1278.0" type="line"/>
      <point x="173.60500000000002" y="0.0" type="line"/>
    </contour>
    <contour>
      <point x="265.28749999999997" y="145.97" type="line"/>
      <point x="265.28749999999997" y="0.0" type="line"/>
      <point x="1094.8400000000001" y="0.0" type="line"/>
      <point x="1094.8400000000001" y="145.97" type="line"/>
    </contour>
  </outline>
</glyph>
<glyph name="M" format="2">
  <advance width="1731.53"/>
  <unicode hex="004D"/>
  <anchor x="866.265" y="0.0" name="bottom"/>
  <anchor x="866.265" y="1278.0" name="top"/>
  <outline>
    <contour>
      <point x="143.6325" y="0.0" type="line"/>
      <point x="315.5125" y="0.0" type="line"/>
      <point x="342.6675" y="555.8275" type="line"/>
      <point x="367.43" y="1100.06" type="line"/>
      <point x="389.505" y="1100.06" type="line"/>
      <point x="773.245" y="152.5" type="line"/>
      <point x="958.6775" y="152.5" type="line"/>
      <point x="1341.6325000000002" y="1100.06" type="line"/>
      <point x="1363.4225" y="1100.06" type="line"/>
      <point x="1388.185" y="555.8275" type="line"/>
      <point x="1416.125" y="0.0" type="line"/>
      <point x="1587.8975" y="0.0" type="line"/>
      <point x="1517.135" y="1278.0" type="line"/>
      <point x="1251.3700000000001" y="1278.0" type="line"/>
      <point x="873.41" y="342.6075" type="line"/>
      <point x="857.7275" y="342.6075" type="line"/>
      <point x="480.5525" y="1278.0" type="line"/>
      <point x="214.5025" y="1278.0" type="line"/>
    </contour>
  </outline>
</glyph>
<glyph name="N" format="2">
  <advance width="1460.7875000000001"/>
  <unicode hex="004E"/>
  <anchor x="731.625" y="0.0" name="bottom"/>
  <anchor x="731.625" y="1278.0" name="top"/>
  <outline>
    <contour>
      <point x="435.365" y="1278.0" type="line"/>
      <point x="173.60500000000002" y="1278.0" type="line"/>
      <point x="173.60500000000002" y="0.0" type="line"/>
      <point x="346.16249999999997" y="0.0" type="line"/>
      <point x="346.16249999999997" y="535.86" type="line"/>
      <point x="339.56" y="1111.765" type="line"/>
      <point x="354.77500000000003" y="1111.765" type="line"/>
      <point x="1033.2725" y="0.0" type="line"/>
      <point x="1287.1825" y="0.0" type="line"/>
      <point x="1287.1825" y="1278.0" type="line"/>
      <point x="1115.0175000000002" y="1278.0" type="line"/>
      <point x="1115.0175000000002" y="715.465" type="line"/>
      <point x="1121.62" y="178.1175" type="line"/>
      <point x="1106.405" y="178.1175" type="line"/>
    </contour>
  </outline>
</glyph>
<glyph name="O" format="2">
  <advance width="1440.885"/>
  <unicode hex="004F"/>
  <anchor x="720.55" y="0.0" name="bottom"/>
  <anchor x="720.55" y="639.0" name="center"/>
  <anchor x="1011.3725000000001" y="4.4625" name="ogonek"/>
  <anchor x="720.55" y="1278.0" name="top"/>
  <anchor x="13.1075" y="1278.0" name="topleft"/>
  <anchor x="1203.7024999999999" y="1278.0" name="topright"/>
  <outline>
    <contour>
      <point x="720.3349999999999" y="-27.35" type="curve" smooth="yes"/>
      <point x="1115.02" y="-27.35"/>
      <point x="1329.5425" y="184.8925"/>
      <point x="1329.5425" y="561.1300000000001" type="curve" smooth="yes"/>
      <point x="1329.5425" y="717.7625" type="line" smooth="yes"/>
      <point x="1329.6499999999999" y="1093.6075"/>
      <point x="1115.02" y="1305.35"/>
      <point x="720.3349999999999" y="1305.35" type="curve" smooth="yes"/>
      <point x="325.365" y="1305.35"/>
      <point x="111.3425" y="1093.6075"/>
      <point x="111.3425" y="717.7625" type="curve" smooth="yes"/>
      <point x="111.3425" y="561.1300000000001" type="line" smooth="yes"/>
      <point x="111.3425" y="184.8925"/>
      <point x="325.365" y="-27.35"/>
    </contour>
    <contour>
      <point x="720.3349999999999" y="117.8725" type="curve" smooth="yes"/>
      <point x="436.9625" y="117.8725"/>
      <point x="291.0725" y="279.43500000000006"/>
      <point x="291.0725" y="557.5975000000001" type="curve" smooth="yes"/>
      <point x="291.0725" y="721.4025" type="line" smooth="yes"/>
      <point x="291.0725" y="999.6724999999999"/>
      <point x="436.9625" y="1160.1274999999998"/>
      <point x="720.3349999999999" y="1160.1274999999998" type="curve" smooth="yes"/>
      <point x="1003.1374999999999" y="1160.1274999999998"/>
      <point x="1149.8125" y="999.6724999999999"/>
      <point x="1149.8125" y="721.4025" type="curve" smooth="yes"/>
      <point x="1149.8125" y="557.5975000000001" type="line" smooth="yes"/>
      <point x="1149.8125" y="279.43500000000006"/>
      <point x="1003.1374999999999" y="117.8725"/>
    </contour>
  </outline>
</glyph>
<glyph name="P" format="2">
  <advance width="1321.83"/>
  <unicode hex="0050"/>
  <anchor x="659.9150000000001" y="0.0" name="bottom"/>
  <anchor x="659.9150000000001" y="1278.0" name="top"/>
  <outline>
    <contour>
      <point x="294.375" y="427.4425" type="line"/>
      <point x="773.22" y="427.4425" type="line" smooth="yes"/>
      <point x="1087.9325" y="427.4425"/>
      <point x="1229.95" y="579.19"/>
      <point x="1229.95" y="824.3475" type="curve" smooth="yes"/>
      <point x="1229.95" y="881.8475" type="line" smooth="yes"/>
      <point x="1229.95" y="1127.4675"/>
      <point x="1088.4325" y="1278.0"/>
      <point x="773.935" y="1278.0" type="curve" smooth="yes"/>
      <point x="290.22999999999996" y="1278.0" type="line"/>
      <point x="290.22999999999996" y="1135.2775" type="line"/>
      <point x="771.9350000000001" y="1135.2775" type="line" smooth="yes"/>
      <point x="968.5925" y="1135.2775"/>
      <point x="1052.6825" y="1040.28"/>
      <point x="1052.6825" y="879.4549999999999" type="curve" smooth="yes"/>
      <point x="1052.6825" y="827.0250000000001" type="line" smooth="yes"/>
      <point x="1052.6825" y="667.055"/>
      <point x="968.485" y="571.0575"/>
      <point x="770.8275" y="571.0575" type="curve" smooth="yes"/>
      <point x="294.375" y="571.0575" type="line"/>
    </contour>
    <contour>
      <point x="173.60500000000002" y="0.0" type="line"/>
      <point x="346.1625" y="0.0" type="line"/>
      <point x="346.1625" y="451.6425" type="line"/>
      <point x="345.77" y="526.91" type="line"/>
      <point x="345.77" y="1278.0" type="line"/>
      <point x="173.60500000000002" y="1278.0" type="line"/>
    </contour>
  </outline>
</glyph>
<glyph name="Q" format="2">
  <advance width="1442.385"/>
  <unicode hex="0051"/>
  <anchor x="721.4425" y="0.0" name="bottom"/>
  <anchor x="721.4425" y="1278.0" name="top"/>
  <outline>
    <contour>
      <point x="1438.5525" y="-43.5925" type="line"/>
      <point x="1438.5525" y="109.7325" type="line"/>
      <point x="953.0175" y="102.27499999999999" type="line"/>
      <point x="955.705" y="109.7275" type="line"/>
      <point x="1164.3474999999999" y="140.895"/>
      <point x="1329.5425" y="281.59749999999997"/>
      <point x="1329.5425" y="578.185" type="curve" smooth="yes"/>
      <point x="1329.5425" y="721.6875" type="line" smooth="yes"/>
      <point x="1329.5425" y="1091.9675"/>
      <point x="1115.9125" y="1305.35"/>
      <point x="720.3349999999999" y="1305.35" type="curve" smooth="yes"/>
      <point x="325.25750000000005" y="1305.35"/>
      <point x="111.3425" y="1093.9299999999998"/>
      <point x="111.3425" y="718.155" type="curve" smooth="yes"/>
      <point x="111.3425" y="562.2375000000001" type="line" smooth="yes"/>
      <point x="111.3425" y="188.715"/>
      <point x="326.47749999999996" y="-15.71"/>
      <point x="782.2075" y="-27.205000000000002" type="curve" smooth="yes"/>
    </contour>
    <contour>
      <point x="755.5175" y="118.6575" type="line" smooth="yes"/>
      <point x="463.14" y="125.33"/>
      <point x="291.0725" y="279.795"/>
      <point x="291.0725" y="558.3825" type="curve" smooth="yes"/>
      <point x="291.0725" y="721.4025" type="line" smooth="yes"/>
      <point x="291.0725" y="999.8875"/>
      <point x="437.355" y="1160.1274999999998"/>
      <point x="719.9425" y="1160.1274999999998" type="curve" smooth="yes"/>
      <point x="1002.745" y="1160.1274999999998"/>
      <point x="1149.8125" y="999.8875"/>
      <point x="1149.8125" y="721.4025" type="curve" smooth="yes"/>
      <point x="1149.8125" y="558.5600000000001" type="line" smooth="yes"/>
      <point x="1149.8125" y="277.5275"/>
      <point x="976.6600000000001" y="151.4425"/>
      <point x="784.5775000000001" y="117.8725" type="curve"/>
    </contour>
  </outline>
</glyph>
<glyph name="R" format="2">
  <advance width="1362.7275"/>
  <unicode hex="0052"/>
  <anchor x="692.1675" y="0.0" name="bottom"/>
  <anchor x="682.0600000000001" y="1278.0" name="top"/>
  <outline>
    <contour>
      <point x="1081.3274999999999" y="0.0" type="line"/>
      <point x="1264.6975" y="0.0" type="line"/>
      <point x="1215.7675" y="266.36" type="line" smooth="yes"/>
      <point x="1177.9125" y="470.9525"/>
      <point x="1119.3375" y="592.645"/>
      <point x="879.2675" y="605.64" type="curve"/>
      <point x="962.6099999999999" y="579.8" type="line"/>
      <point x="962.825" y="599.5275" type="line"/>
      <point x="1159.0800000000002" y="621.0825"/>
      <point x="1242.455" y="732.9625"/>
      <point x="1242.455" y="905.7249999999999" type="curve" smooth="yes"/>
      <point x="1242.455" y="930.1225000000001" type="line" smooth="yes"/>
      <point x="1242.455" y="1146.6775"/>
      <point x="1111.5075000000002" y="1278.0"/>
      <point x="816.1875" y="1278.0" type="curve" smooth="yes"/>
      <point x="289.0525" y="1278.0" type="line"/>
      <point x="289.0525" y="1135.9550000000002" type="line"/>
      <point x="794.5625" y="1135.9550000000002" type="line" smooth="yes"/>
      <point x="986.35" y="1135.9550000000002"/>
      <point x="1065.58" y="1048.3225"/>
      <point x="1065.58" y="902.3249999999999" type="curve" smooth="yes"/>
      <point x="1065.58" y="881.3199999999999" type="line" smooth="yes"/>
      <point x="1065.58" y="734.1825"/>
      <point x="985.3874999999999" y="638.7975"/>
      <point x="795.89" y="638.7975" type="curve" smooth="yes"/>
      <point x="291.26750000000004" y="637.905" type="line"/>
      <point x="291.26750000000004" y="501.07" type="line"/>
      <point x="759.88" y="500.285" type="line" smooth="yes"/>
      <point x="962.775" y="499.8925"/>
      <point x="1012.8175" y="400.25"/>
      <point x="1041.0" y="239.735" type="curve" smooth="yes"/>
    </contour>
    <contour>
      <point x="173.60500000000002" y="0.0" type="line"/>
      <point x="345.77" y="0.0" type="line"/>
      <point x="345.77" y="523.06" type="line"/>
      <point x="345.3775" y="588.4449999999999" type="line"/>
      <point x="345.3775" y="1278.0" type="line"/>
      <point x="173.60500000000002" y="1278.0" type="line"/>
    </contour>
  </outline>
</glyph>
<glyph name="S" format="2">
  <advance width="1250.1999999999998"/>
  <unicode hex="0053"/>
  <anchor x="618.9575" y="0.0" name="bottom"/>
  <anchor x="618.9575" y="1278.0" name="top"/>
  <outline>
    <contour>
      <point x="618.3599999999999" y="-24.995" type="curve" smooth="yes"/>
      <point x="969.6474999999999" y="-24.995"/>
      <point x="1146.2450000000001" y="97.10749999999999"/>
      <point x="1146.2450000000001" y="342.01750000000004" type="curve" smooth="yes"/>
      <point x="1146.2450000000001" y="354.51750000000004" type="line" smooth="yes"/>
      <point x="1146.2450000000001" y="597.1425"/>
      <point x="1011.555" y="674.755"/>
      <point x="657.5725" y="725.6750000000001" type="curve" smooth="yes"/>
      <point x="350.2" y="769.7075"/>
      <point x="281.185" y="829.6899999999999"/>
      <point x="281.185" y="956.305" type="curve" smooth="yes"/>
      <point x="281.185" y="958.9125" type="line" smooth="yes"/>
      <point x="281.185" y="1082.3875"/>
      <point x="369.93" y="1156.2725"/>
      <point x="611.255" y="1156.2725" type="curve" smooth="yes"/>
      <point x="813.3075" y="1156.2725"/>
      <point x="974.2650000000001" y="1104.515"/>
      <point x="1092.2175" y="1039.87" type="curve"/>
      <point x="1074.265" y="1197.6575" type="line"/>
      <point x="976.2425000000001" y="1249.055"/>
      <point x="817.705" y="1302.28"/>
      <point x="592.0600000000001" y="1302.28" type="curve" smooth="yes"/>
      <point x="260.15" y="1302.28"/>
      <point x="101.84750000000001" y="1180.4624999999999"/>
      <point x="101.84750000000001" y="961.66" type="curve" smooth="yes"/>
      <point x="101.84750000000001" y="955.52" type="line" smooth="yes"/>
      <point x="101.84750000000001" y="735.0450000000001"/>
      <point x="226.5" y="637.8675"/>
      <point x="589.3750000000001" y="588.625" type="curve" smooth="yes"/>
      <point x="878.3925" y="549.8775"/>
      <point x="966.515" y="498.895"/>
      <point x="966.515" y="352.34000000000003" type="curve" smooth="yes"/>
      <point x="966.515" y="343.08750000000003" type="line" smooth="yes"/>
      <point x="966.515" y="197.92999999999998"/>
      <point x="852.98" y="126.5075"/>
      <point x="612.5100000000001" y="126.5075" type="curve" smooth="yes"/>
      <point x="402.785" y="126.5075"/>
      <point x="222.44" y="192.5825"/>
      <point x="99.0525" y="262.84" type="curve"/>
      <point x="117.1125" y="91.24000000000001" type="line"/>
      <point x="216.28" y="39.59"/>
      <point x="389.8125" y="-24.995"/>
    </contour>
  </outline>
</glyph>
<glyph name="T" format="2">
  <advance width="1272.18"/>
  <unicode hex="0054"/>
  <anchor x="636.3399999999999" y="0.0" name="bottom"/>
  <anchor x="636.3399999999999" y="639.0" name="center"/>
  <anchor x="636.3399999999999" y="1278.0" name="top"/>
  <outline>
    <contour>
      <point x="548.83" y="0.0" type="line"/>
      <point x="723.7425" y="0.0" type="line"/>
      <point x="723.7425" y="1236.395" type="line"/>
      <point x="548.83" y="1236.395" type="line"/>
    </contour>
    <contour>
      <point x="76.655" y="1133.7075" type="line"/>
      <point x="1195.525" y="1133.7075" type="line"/>
      <point x="1195.525" y="1278.0" type="line"/>
      <point x="76.655" y="1278.0" type="line"/>
    </contour>
  </outline>
</glyph>
<glyph name="U" format="2">
  <advance width="1437.2875"/>
  <unicode hex="0055"/>
  <anchor x="718.84" y="0.0" name="bottom"/>
  <anchor x="999.425" y="4.4625" name="ogonek"/>
  <anchor x="718.84" y="1278.0" name="top"/>
  <anchor x="1405.525" y="1278.0" name="topright"/>
  <outline>
    <contour>
      <point x="718.84" y="-27.35" type="curve" smooth="yes"/>
      <point x="1099.9075" y="-27.35"/>
      <point x="1275.3975" y="164.29"/>
      <point x="1275.3975" y="524.6625" type="curve" smooth="yes"/>
      <point x="1275.3975" y="1278.0" type="line"/>
      <point x="1100.485" y="1278.0" type="line"/>
      <point x="1100.485" y="523.3075" type="line" smooth="yes"/>
      <point x="1100.485" y="262.1875"/>
      <point x="985.385" y="120.61999999999999"/>
      <point x="718.84" y="120.61999999999999" type="curve" smooth="yes"/>
      <point x="452.295" y="120.61999999999999"/>
      <point x="336.8025" y="262.1875"/>
      <point x="336.8025" y="523.3075" type="curve" smooth="yes"/>
      <point x="336.8025" y="1278.0" type="line"/>
      <point x="161.89000000000001" y="1278.0" type="line"/>
      <point x="161.89000000000001" y="524.6625" type="line" smooth="yes"/>
      <point x="161.89000000000001" y="164.29"/>
      <point x="338.34250000000003" y="-27.35"/>
    </contour>
  </outline>
</glyph>
<glyph name="V" format="2">
  <advance width="1347.3475"/>
  <unicode hex="0056"/>
  <anchor x="674.12" y="0.0" name="bottom"/>
  <anchor x="674.12" y="1278.0" name="top"/>
  <outline>
    <contour>
      <point x="537.5274999999999" y="0.0" type="line"/>
      <point x="811.105" y="0.0" type="line"/>
      <point x="1295.645" y="1278.0" type="line"/>
      <point x="1109.705" y="1278.0" type="line"/>
      <point x="686.4425" y="133.3725" type="line"/>
      <point x="660.905" y="133.3725" type="line"/>
      <point x="237.6425" y="1278.0" type="line"/>
      <point x="51.7025" y="1278.0" type="line"/>
    </contour>
  </outline>
</glyph>
<glyph name="W" format="2">
  <advance width="1916.04"/>
  <unicode hex="0057"/>
  <anchor x="958.3775" y="0.0" name="bottom"/>
  <anchor x="958.3775" y="1278.0" name="top"/>
  <outline>
    <contour>
      <point x="404.7475" y="0.0" type="line"/>
      <point x="675.54" y="0.0" type="line"/>
      <point x="869.0300000000001" y="762.8000000000001" type="line"/>
      <point x="949.555" y="1099.0625" type="line"/>
      <point x="966.8774999999999" y="1099.0625" type="line"/>
      <point x="1047.4025000000001" y="762.8000000000001" type="line"/>
      <point x="1241.5" y="0.0" type="line"/>
      <point x="1511.685" y="0.0" type="line"/>
      <point x="1845.1225" y="1278.0" type="line"/>
      <point x="1662.8225" y="1278.0" type="line"/>
      <point x="1410.9424999999999" y="278.035" type="line"/>
      <point x="1381.92" y="146.6475" type="line"/>
      <point x="1362.2375" y="146.6475" type="line"/>
      <point x="1333.6075" y="277.9275" type="line"/>
      <point x="1085.4375000000002" y="1242.64" type="line"/>
      <point x="830.7800000000001" y="1242.64" type="line"/>
      <point x="582.54" y="278.32" type="line"/>
      <point x="553.9100000000001" y="146.6475" type="line"/>
      <point x="534.7275000000001" y="146.6475" type="line"/>
      <point x="505.3125" y="278.32" type="line"/>
      <point x="254.2175" y="1278.0" type="line"/>
      <point x="70.9175" y="1278.0" type="line"/>
    </contour>
  </outline>
</glyph>
<glyph name="X" format="2">
  <advance width="1349.605"/>
  <unicode hex="0058"/>
  <anchor x="675.3025" y="0.0" name="bottom"/>
  <anchor x="675.3025" y="1278.0" name="top"/>
  <outline>
    <contour>
      <point x="57.9925" y="0.0" type="line"/>
      <point x="259.35249999999996" y="0.0" type="line"/>
      <point x="667.7325" y="558.85" type="line"/>
      <point x="682.48" y="558.85" type="line"/>
      <point x="1090.3600000000001" y="0.0" type="line"/>
      <point x="1291.6125" y="0.0" type="line"/>
      <point x="798.3575" y="677.0925" type="line"/>
      <point x="798.75" y="642.6500000000001" type="line"/>
      <point x="1282.0800000000002" y="1278.0" type="line"/>
      <point x="1083.4675" y="1278.0" type="line"/>
      <point x="682.48" y="750.365" type="line"/>
      <point x="668.125" y="750.365" type="line"/>
      <point x="266.53000000000003" y="1278.0" type="line"/>
      <point x="68.025" y="1278.0" type="line"/>
      <point x="551.355" y="642.6500000000001" type="line"/>
      <point x="551.7475000000001" y="677.0925" type="line"/>
    </contour>
  </outline>
</glyph>
<glyph name="Y" format="2">
  <advance width="1304.2450000000001"/>
  <unicode hex="0059"/>
  <anchor x="652.3725" y="0.0" name="bottom"/>
  <anchor x="652.3725" y="1278.0" name="top"/>
  <anchor x="20.645" y="1278.0" name="topleft"/>
  <outline>
    <contour>
      <point x="576.7825" y="378.32" type="line"/>
      <point x="728.2475000000001" y="378.32" type="line"/>
      <point x="1261.6825000000001" y="1278.0" type="line"/>
      <point x="1069.8875" y="1278.0" type="line"/>
      <point x="773.7425000000001" y="772.985" type="line"/>
      <point x="659.0500000000001" y="569.0875" type="line"/>
      <point x="645.5875" y="569.0875" type="line"/>
      <point x="530.61" y="773.77" type="line"/>
      <point x="234.3575" y="1278.0" type="line"/>
      <point x="42.5625" y="1278.0" type="line"/>
    </contour>
    <contour>
      <point x="566.1474999999999" y="0.0" type="line"/>
      <point x="738.8824999999999" y="0.0" type="line"/>
      <point x="738.8824999999999" y="533.785" type="line"/>
      <point x="566.1474999999999" y="533.785" type="line"/>
    </contour>
  </outline>
</glyph>
<glyph name="Z" format="2">
  <advance width="1238.3075000000001"/>
  <unicode hex="005A"/>
  <anchor x="619.85" y="0.0" name="bottom"/>
  <anchor x="619.85" y="639.0" name="center"/>
  <anchor x="619.85" y="1278.0" name="top"/>
  <outline>
    <contour>
      <point x="1139.7124999999999" y="145.185" type="line"/>
      <point x="315.7625" y="145.185" type="line"/>
      <point x="1131.3574999999998" y="1142.4175" type="line"/>
      <point x="1131.3574999999998" y="1278.0" type="line"/>
      <point x="105.02000000000001" y="1278.0" type="line"/>
      <point x="105.02000000000001" y="1134.1000000000001" type="line"/>
      <point x="913.1899999999999" y="1134.1000000000001" type="line"/>
      <point x="98.9875" y="136.08249999999998" type="line"/>
      <point x="98.9875" y="0.0" type="line"/>
      <point x="1139.7124999999999" y="0.0" type="line"/>
    </contour>
  </outline>
</glyph>
<glyph name="bracketleft" format="2">
  <advance width="696.85"/>
  <unicode hex="005B"/>
  <outline>
    <contour>
      <point x="174.10500000000002" y="-243.3125" type="line"/>
      <point x="628.3075" y="-243.3125" type="line"/>
      <point x="628.3075" y="-112.08" type="line"/>
      <point x="334.4575" y="-112.08" type="line"/>
      <point x="334.4575" y="1218.445" type="line"/>
      <point x="628.3075" y="1218.445" type="line"/>
      <point x="628.3075" y="1349.285" type="line"/>
      <point x="174.10500000000002" y="1349.285" type="line"/>
    </contour>
  </outline>
</glyph>
<glyph name="backslash" format="2">
  <advance width="986.9300000000001"/>
  <unicode hex="005C"/>
  <outline>
    <contour>
      <point x="955.46" y="-238.9525" type="line"/>
      <point x="197.10750000000002" y="1335.42" type="line"/>
      <point x="31.47" y="1335.42" type="line"/>
      <point x="789.0375" y="-238.9525" type="line"/>
    </contour>
  </outline>
</glyph>
<glyph name="bracketright" format="2">
  <advance width="696.85"/>
  <unicode hex="005D"/>
  <outline>
    <contour>
      <point x="522.745" y="-243.3125" type="line"/>
      <point x="522.745" y="1349.285" type="line"/>
      <point x="68.5425" y="1349.285" type="line"/>
      <point x="68.5425" y="1218.445" type="line"/>
      <point x="362.39250000000004" y="1218.445" type="line"/>
      <point x="362.39250000000004" y="-112.08" type="line"/>
      <point x="68.5425" y="-112.08" type="line"/>
      <point x="68.5425" y="-243.3125" type="line"/>
    </contour>
  </outline>
</glyph>
<glyph name="asciicircum" format="2">
  <advance width="981.4925"/>
  <unicode hex="005E"/>
  <outline>
    <contour>
      <point x="376.765" y="1278.0" type="line"/>
      <point x="61.239999999999995" y="607.4675000000001" type="line"/>
      <point x="215.8175" y="607.4675000000001" type="line"/>
      <point x="481.905" y="1175.635" type="line"/>
      <point x="499.58750000000003" y="1175.635" type="line"/>
      <point x="766.0675" y="607.4675000000001" type="line"/>
      <point x="920.2525" y="607.4675000000001" type="line"/>
      <point x="604.7275" y="1278.0" type="line"/>
    </contour>
  </outline>
</glyph>
<glyph name="underscore" format="2">
  <advance width="1061.8574999999998"/>
  <unicode hex="005F"/>
  <outline>
    <contour>
      <point x="63.4825" y="-218.2625" type="line"/>
      <point x="998.7675" y="-218.2625" type="line"/>
      <point x="998.7675" y="-86.175" type="line"/>
      <point x="63.4825" y="-86.175" type="line"/>
    </contour>
  </outline>
</glyph>
<glyph name="grave" format="2">
  <advance width="619.1899999999999"/>
  <unicode hex="0060"/>
  <anchor x="448.4175" y="966.6025" name="_top"/>
  <anchor x="446.7025" y="1333.5124999999998" name="top"/>
  <outline>
    <contour>
      <point x="292.875" y="1376.7475" type="line"/>
      <point x="97.8275" y="1376.7475" type="line"/>
      <point x="97.8275" y="1372.6774999999998" type="line"/>
      <point x="367.85999999999996" y="1097.5849999999998" type="line"/>
      <point x="524.3625" y="1097.5849999999998" type="line"/>
      <point x="524.3625" y="1101.0475000000001" type="line"/>
    </contour>
  </outline>
</glyph>
<glyph name="a" format="2">
  <advance width="1152.9325000000001"/>
  <unicode hex="0061"/>
  <anchor x="566.84" y="0.0" name="bottom"/>
  <anchor x="1063.16" y="1.9625" name="ogonek"/>
  <anchor x="566.84" y="966.6025" name="top"/>
  <outline>
    <contour>
      <point x="850.8825" y="0.0" type="line"/>
      <point x="1021.1550000000001" y="0.0" type="line"/>
      <point x="1021.1550000000001" y="597.5625" type="line" smooth="yes"/>
      <point x="1021.1550000000001" y="831.66"/>
      <point x="900.935" y="992.5275"/>
      <point x="573.205" y="992.5275" type="curve" smooth="yes"/>
      <point x="377.625" y="992.5275"/>
      <point x="235.845" y="932.8725"/>
      <point x="148.575" y="882.335" type="curve"/>
      <point x="131.01500000000001" y="738.3925" type="line"/>
      <point x="236.82250000000002" y="795.7575"/>
      <point x="375.5375" y="851.375"/>
      <point x="547.6925" y="851.375" type="curve" smooth="yes"/>
      <point x="758.185" y="851.375"/>
      <point x="853.4525" y="766.3825"/>
      <point x="853.4525" y="602.5575" type="curve"/>
      <point x="852.6675" y="560.0525" type="line"/>
      <point x="852.6675" y="293.28999999999996" type="line"/>
      <point x="858.4150000000001" y="261.98749999999995" type="line"/>
    </contour>
    <contour>
      <point x="436.6" y="-24.7475" type="curve" smooth="yes"/>
      <point x="700.41" y="-24.7475"/>
      <point x="818.4825000000001" y="102.8625"/>
      <point x="852.2525" y="245.14499999999998" type="curve"/>
      <point x="885.34" y="245.14499999999998" type="line"/>
      <point x="858.5975" y="364.8875" type="line"/>
      <point x="826.9200000000001" y="228.155"/>
      <point x="697.89" y="116.2975"/>
      <point x="485.6675" y="116.2975" type="curve" smooth="yes"/>
      <point x="335.51" y="116.2975"/>
      <point x="255.0075" y="171.4625"/>
      <point x="255.0075" y="272.69" type="curve" smooth="yes"/>
      <point x="255.0075" y="284.58750000000003" type="line" smooth="yes"/>
      <point x="255.0075" y="388.38"/>
      <point x="325.29" y="431.185"/>
      <point x="518.64" y="450.90500000000003" type="curve" smooth="yes"/>
      <point x="879.3725000000001" y="488.40999999999997" type="line"/>
      <point x="873.3775" y="608.7225" type="line"/>
      <point x="502.0425" y="570.7175" type="line" smooth="yes"/>
      <point x="214.5425" y="541.325"/>
      <point x="84.8425" y="461.72249999999997"/>
      <point x="84.8425" y="272.42" type="curve" smooth="yes"/>
      <point x="84.8425" y="253.0275" type="line" smooth="yes"/>
      <point x="84.8425" y="74.10249999999999"/>
      <point x="213.3475" y="-24.7475"/>
    </contour>
  </outline>
</glyph>
<glyph name="b" format="2">
  <advance width="1266.3999999999999"/>
  <unicode hex="0062"/>
  <anchor x="636.985" y="0.0" name="bottom"/>
  <anchor x="636.985" y="1322.575" name="top"/>
  <outline>
    <contour>
      <point x="716.8325" y="-24.7475" type="curve" smooth="yes"/>
      <point x="1001.6274999999999" y="-24.7475"/>
      <point x="1164.735" y="136.2475"/>
      <point x="1164.735" y="438.49" type="curve" smooth="yes"/>
      <point x="1164.735" y="530.075" type="line" smooth="yes"/>
      <point x="1164.735" y="830.71"/>
      <point x="1002.9125" y="991.35"/>
      <point x="723.6875" y="991.35" type="curve" smooth="yes"/>
      <point x="480.775" y="991.35"/>
      <point x="355.0575" y="867.1"/>
      <point x="321.25" y="721.2049999999999" type="curve"/>
      <point x="269.43" y="721.2049999999999" type="line"/>
      <point x="310.5875" y="594.8975" type="line"/>
      <point x="344.265" y="742.7325"/>
      <point x="478.26250000000005" y="853.8375000000001"/>
      <point x="667.27" y="853.8375000000001" type="curve" smooth="yes"/>
      <point x="875.255" y="853.8375000000001"/>
      <point x="993.0" y="744.485"/>
      <point x="993.0" y="537.8175" type="curve" smooth="yes"/>
      <point x="993.0" y="435.95750000000004" type="line" smooth="yes"/>
      <point x="993.0" y="226.365"/>
      <point x="874.6474999999999" y="116.2975"/>
      <point x="669.9849999999999" y="116.2975" type="curve" smooth="yes"/>
      <point x="479.2025" y="116.2975"/>
      <point x="326.77" y="214.35500000000002"/>
      <point x="316.08750000000003" y="421.46500000000003" type="curve"/>
      <point x="263.15" y="250.5575" type="line"/>
      <point x="320.325" y="250.5575" type="line"/>
      <point x="353.9025" y="80.8575"/>
      <point x="496.415" y="-24.7475"/>
    </contour>
    <contour>
      <point x="150.6" y="0.0" type="line"/>
      <point x="321.1575" y="0.0" type="line"/>
      <point x="313.3025" y="262.7075" type="line"/>
      <point x="316.08750000000003" y="316.4575" type="line"/>
      <point x="316.08750000000003" y="659.0649999999999" type="line"/>
      <point x="314.98" y="695.3349999999999" type="line"/>
      <point x="319.97999999999996" y="981.4899999999999" type="line"/>
      <point x="319.97999999999996" y="1322.575" type="line"/>
      <point x="150.6" y="1322.575" type="line"/>
    </contour>
  </outline>
</glyph>
<glyph name="c" format="2">
  <advance width="1050.4625"/>
  <unicode hex="0063"/>
  <anchor x="572.855" y="0.0" name="bottom"/>
  <anchor x="572.855" y="966.6025" name="top"/>
  <outline>
    <contour>
      <point x="597.6625" y="-26.3175" type="curve" smooth="yes"/>
      <point x="764.72" y="-26.3175"/>
      <point x="883.0" y="21.445"/>
      <point x="955.635" y="68.05749999999999" type="curve"/>
      <point x="971.84" y="219.6025" type="line"/>
      <point x="887.4200000000001" y="164.345"/>
      <point x="779.2375000000001" y="117.2975"/>
      <point x="624.7825" y="117.2975" type="curve" smooth="yes"/>
      <point x="391.5325" y="117.2975"/>
      <point x="272.2225" y="235.075"/>
      <point x="272.2225" y="445.5925" type="curve" smooth="yes"/>
      <point x="272.2225" y="526.865" type="line" smooth="yes"/>
      <point x="272.2225" y="738.0600000000001"/>
      <point x="390.285" y="852.9449999999999"/>
      <point x="620.89" y="852.9449999999999" type="curve" smooth="yes"/>
      <point x="773.5175" y="852.9449999999999"/>
      <point x="881.3075" y="806.5425"/>
      <point x="961.3399999999999" y="751.355" type="curve"/>
      <point x="945.35" y="901.115" type="line"/>
      <point x="876.4300000000001" y="945.1899999999999"/>
      <point x="760.22" y="994.0975"/>
      <point x="596.8775" y="994.0975" type="curve" smooth="yes"/>
      <point x="269.585" y="994.0975"/>
      <point x="100.4875" y="827.285"/>
      <point x="100.4875" y="528.8275" type="curve" smooth="yes"/>
      <point x="100.4875" y="443.13" type="line" smooth="yes"/>
      <point x="100.4875" y="141.8875"/>
      <point x="269.085" y="-26.3175"/>
    </contour>
  </outline>
</glyph>
<glyph name="d" format="2">
  <advance width="1266.3999999999999"/>
  <unicode hex="0064"/>
  <anchor x="629.5224999999999" y="0.0" name="bottom"/>
  <anchor x="629.5224999999999" y="483.7475" name="center"/>
  <anchor x="629.5224999999999" y="1322.575" name="top"/>
  <anchor x="1286.3825" y="1322.575" name="topright"/>
  <outline>
    <contour>
      <point x="544.4975000000001" y="-24.7475" type="curve" smooth="yes"/>
      <point x="788.48" y="-24.7475"/>
      <point x="912.52" y="99.61"/>
      <point x="946.7199999999999" y="245.39749999999998" type="curve"/>
      <point x="998.7175" y="245.39749999999998" type="line"/>
      <point x="955.8125" y="373.77500000000003" type="line"/>
      <point x="922.35" y="226.725"/>
      <point x="787.9225" y="116.2975"/>
      <point x="599.6299999999999" y="116.2975" type="curve" smooth="yes"/>
      <point x="391.0375" y="116.2975"/>
      <point x="273.4" y="226.4725"/>
      <point x="273.4" y="432.8175" type="curve" smooth="yes"/>
      <point x="273.4" y="536.2475" type="line" smooth="yes"/>
      <point x="273.4" y="744.1625"/>
      <point x="391.93" y="853.8375000000001"/>
      <point x="598.555" y="853.8375000000001" type="curve" smooth="yes"/>
      <point x="793.6875" y="853.8375000000001"/>
      <point x="940.0224999999999" y="753.0"/>
      <point x="950.3125" y="548.67" type="curve"/>
      <point x="1001.465" y="716.0450000000001" type="line"/>
      <point x="944.505" y="716.0450000000001" type="line"/>
      <point x="911.32" y="885.745"/>
      <point x="769.7700000000001" y="991.35"/>
      <point x="549.745" y="991.35" type="curve" smooth="yes"/>
      <point x="264.16499999999996" y="991.35"/>
      <point x="101.665" y="830.355"/>
      <point x="101.665" y="528.22" type="curve" smooth="yes"/>
      <point x="101.665" y="436.5275" type="line" smooth="yes"/>
      <point x="101.665" y="136.1075"/>
      <point x="261.6325" y="-24.7475"/>
    </contour>
    <contour>
      <point x="945.2425" y="0.0" type="line"/>
      <point x="1115.8" y="0.0" type="line"/>
      <point x="1115.8" y="1322.575" type="line"/>
      <point x="946.42" y="1322.575" type="line"/>
      <point x="946.42" y="981.4899999999999" type="line"/>
      <point x="951.3125" y="696.905" type="line"/>
      <point x="950.3125" y="659.0649999999999" type="line"/>
      <point x="950.3125" y="316.4575" type="line"/>
      <point x="952.99" y="262.7075" type="line"/>
    </contour>
  </outline>
</glyph>
<glyph name="e" format="2">
  <advance width="1167.115"/>
  <unicode hex="0065"/>
  <anchor x="595.1625" y="0.0" name="bottom"/>
  <anchor x="932.2325000000001" y="5.640000000000001" name="ogonek"/>
  <anchor x="592.84" y="966.6025" name="top"/>
  <outline>
    <contour>
      <point x="625.1525" y="-26.3175" type="curve" smooth="yes"/>
      <point x="795.04" y="-26.3175"/>
      <point x="932.75" y="14.08"/>
      <point x="1037.8899999999999" y="79.735" type="curve"/>
      <point x="1055.45" y="226.07" type="line"/>
      <point x="936.095" y="155.98"/>
      <point x="804.4925000000001" y="115.72749999999999"/>
      <point x="651.665" y="115.72749999999999" type="curve" smooth="yes"/>
      <point x="378.2675" y="115.72749999999999"/>
      <point x="270.26" y="235.9675"/>
      <point x="270.26" y="414.855" type="curve" smooth="yes"/>
      <point x="270.26" y="477.3925" type="line"/>
      <point x="269.8675" y="496.845" type="line"/>
      <point x="269.8675" y="550.845" type="line" smooth="yes"/>
      <point x="269.8675" y="744.5875"/>
      <point x="376.58" y="857.8000000000001"/>
      <point x="588.0600000000001" y="857.8000000000001" type="curve" smooth="yes"/>
      <point x="801.2874999999999" y="857.8000000000001"/>
      <point x="911.0325" y="746.045"/>
      <point x="911.0325" y="557.7425" type="curve" smooth="yes"/>
      <point x="911.0325" y="516.65"/>
      <point x="909.855" y="467.74"/>
      <point x="907.0" y="420.29249999999996" type="curve"/>
      <point x="1065.245" y="420.29249999999996" type="line"/>
      <point x="1070.885" y="454.4275"/>
      <point x="1074.4175" y="493.15999999999997"/>
      <point x="1074.4175" y="530.4300000000001" type="curve" smooth="yes"/>
      <point x="1074.4175" y="551.3924999999999" type="line" smooth="yes"/>
      <point x="1074.4175" y="820.71"/>
      <point x="909.46" y="994.5275"/>
      <point x="588.0600000000001" y="994.5275" type="curve" smooth="yes"/>
      <point x="271.6175" y="994.5275"/>
      <point x="100.4875" y="825.4625000000001"/>
      <point x="100.4875" y="532.005" type="curve" smooth="yes"/>
      <point x="100.4875" y="433.195" type="line" smooth="yes"/>
      <point x="100.4875" y="138.67749999999998"/>
      <point x="277.085" y="-26.3175"/>
    </contour>
    <contour>
      <point x="183.9275" y="420.29249999999996" type="line"/>
      <point x="1030.6575000000003" y="420.29249999999996" type="line"/>
      <point x="1030.6575000000003" y="548.5625" type="line"/>
      <point x="183.9275" y="548.5625" type="line"/>
    </contour>
  </outline>
</glyph>
<glyph name="f" format="2">
  <advance width="878.0475"/>
  <unicode hex="0066"/>
  <anchor x="441.29" y="0.0" name="bottom"/>
  <anchor x="441.29" y="1302.0" name="top"/>
  <outline>
    <contour>
      <point x="535.9399999999999" y="1350.7849999999999" type="curve" smooth="yes"/>
      <point x="278.95" y="1350.7849999999999"/>
      <point x="170.035" y="1249.2475000000002"/>
      <point x="170.035" y="1097.6675" type="curve" smooth="yes"/>
      <point x="170.035" y="1093.4524999999999" type="line" smooth="yes"/>
      <point x="170.035" y="1013.5749999999999"/>
      <point x="207.6275" y="956.6450000000001"/>
      <point x="252.67249999999999" y="923.5325" type="curve"/>
      <point x="252.67249999999999" y="903.9725000000001" type="line"/>
      <point x="366.02750000000003" y="908.9725" type="line"/>
      <point x="350.92" y="941.4449999999999"/>
      <point x="336.275" y="983.2075000000001"/>
      <point x="336.275" y="1031.5775" type="curve" smooth="yes"/>
      <point x="336.275" y="1035.9" type="line" smooth="yes"/>
      <point x="336.275" y="1143.435"/>
      <point x="396.365" y="1210.4175"/>
      <point x="580.2925" y="1210.4175" type="curve" smooth="yes"/>
      <point x="682.905" y="1210.4175"/>
      <point x="761.2650000000001" y="1192.2350000000001"/>
      <point x="843.92" y="1164.585" type="curve"/>
      <point x="825.9675" y="1298.1025000000002" type="line"/>
      <point x="743.8225" y="1329.355"/>
      <point x="652.7624999999999" y="1350.7849999999999"/>
    </contour>
    <contour>
      <point x="205.60500000000002" y="0.0" type="line"/>
      <point x="374.8775" y="0.0" type="line"/>
      <point x="374.8775" y="866.25" type="line"/>
      <point x="205.60500000000002" y="866.25" type="line"/>
    </contour>
    <contour>
      <point x="18.542499999999997" y="784.6" type="line"/>
      <point x="821.1775" y="784.6" type="line"/>
      <point x="837.56" y="919.0425" type="line"/>
      <point x="338.865" y="919.0425" type="line"/>
      <point x="273.9475" y="917.865" type="line"/>
      <point x="18.542499999999997" y="919.0425" type="line"/>
    </contour>
  </outline>
</glyph>
<glyph name="g" format="2">
  <advance width="1199.5175000000002"/>
  <unicode hex="0067"/>
  <anchor x="599.5649999999999" y="-342.96250000000003" name="bottom"/>
  <anchor x="598.9575000000001" y="968.1725" name="top"/>
  <outline>
    <contour>
      <point x="599.85" y="312.425" type="curve"/>
      <point x="916.0075" y="312.425"/>
      <point x="1075.895" y="417.1775"/>
      <point x="1075.895" y="618.8275" type="curve" smooth="yes"/>
      <point x="1075.895" y="633.8475" type="line" smooth="yes"/>
      <point x="1075.895" y="760.2325000000001"/>
      <point x="1007.0575" y="844.6925"/>
      <point x="848.57" y="872.225" type="curve"/>
      <point x="848.2475" y="879.5" type="line"/>
      <point x="1178.96" y="871.4675" type="line"/>
      <point x="1178.96" y="1004.3074999999999" type="line"/>
      <point x="572.9675" y="985.3874999999999" type="line" smooth="yes"/>
      <point x="255.095" y="975.6775"/>
      <point x="112.2075" y="862.2425000000001"/>
      <point x="112.2075" y="657.29" type="curve" smooth="yes"/>
      <point x="112.2075" y="640.345" type="line" smooth="yes"/>
      <point x="112.2075" y="429.27500000000003"/>
      <point x="280.30500000000006" y="312.425"/>
    </contour>
    <contour>
      <point x="591.2425" y="-244.515" type="line" smooth="yes"/>
      <point x="375.41749999999996" y="-244.515"/>
      <point x="240.5125" y="-209.1875"/>
      <point x="240.5125" y="-97.10999999999999" type="curve" smooth="yes"/>
      <point x="240.5125" y="-95.0025" type="line" smooth="yes"/>
      <point x="240.5125" y="1.5000000000000009"/>
      <point x="335.6275" y="40.9025"/>
      <point x="464.4725" y="55.870000000000005" type="curve"/>
      <point x="407.9175" y="52.1225" type="line"/>
      <point x="757.445" y="27.09" type="line" smooth="yes"/>
      <point x="906.065" y="16.445"/>
      <point x="965.0474999999999" y="-20.3975"/>
      <point x="965.0474999999999" y="-99.49749999999999" type="curve" smooth="yes"/>
      <point x="965.0474999999999" y="-103.10499999999999" type="line" smooth="yes"/>
      <point x="965.0474999999999" y="-209.1125"/>
      <point x="828.745" y="-244.515"/>
      <point x="611.99" y="-244.515" type="curve" smooth="yes"/>
    </contour>
    <contour>
      <point x="580.2525" y="-379.78000000000003" type="curve" smooth="yes"/>
      <point x="609.635" y="-379.78000000000003" type="line" smooth="yes"/>
      <point x="926.3575" y="-379.78000000000003"/>
      <point x="1128.825" y="-306.8325"/>
      <point x="1128.825" y="-106.885" type="curve" smooth="yes"/>
      <point x="1128.825" y="-102.99249999999999" type="line" smooth="yes"/>
      <point x="1128.825" y="59.9725"/>
      <point x="1022.6949999999999" y="134.4725"/>
      <point x="785.9575" y="153.6825" type="curve" smooth="yes"/>
      <point x="496.8775" y="176.60750000000002" type="line" smooth="yes"/>
      <point x="349.43" y="188.0375"/>
      <point x="298.7" y="209.29999999999998"/>
      <point x="298.7" y="257.535" type="curve" smooth="yes"/>
      <point x="298.7" y="258.4275" type="line" smooth="yes"/>
      <point x="298.7" y="300.84000000000003"/>
      <point x="333.3175" y="323.4575"/>
      <point x="440.55" y="325.2425" type="curve"/>
      <point x="523.1524999999999" y="322.8875" type="line"/>
      <point x="314.35" y="374.695" type="line"/>
      <point x="314.35" y="350.63" type="line"/>
      <point x="191.1325" y="342.6025"/>
      <point x="140.06250000000003" y="295.78000000000003"/>
      <point x="140.06250000000003" y="216.5" type="curve" smooth="yes"/>
      <point x="140.06250000000003" y="215.60750000000002" type="line" smooth="yes"/>
      <point x="140.06250000000003" y="137.995"/>
      <point x="195.93249999999998" y="91.1025"/>
      <point x="309.745" y="74.3925" type="curve"/>
      <point x="310.9275" y="68.37" type="line"/>
      <point x="182.1725" y="54.0525"/>
      <point x="78.59" y="-6.797499999999999"/>
      <point x="78.59" y="-131.82750000000001" type="curve" smooth="yes"/>
      <point x="78.59" y="-135.32750000000001" type="line" smooth="yes"/>
      <point x="78.59" y="-318.1125"/>
      <point x="272.2025" y="-379.78000000000003"/>
    </contour>
    <contour>
      <point x="597.1025" y="437.3775" type="curve" smooth="yes"/>
      <point x="377.95" y="437.3775"/>
      <point x="277.1625" y="511.365"/>
      <point x="277.1625" y="643.8774999999999" type="curve" smooth="yes"/>
      <point x="277.1625" y="660.4300000000001" type="line" smooth="yes"/>
      <point x="277.1625" y="786.0825000000001"/>
      <point x="372.1975" y="864.005"/>
      <point x="595.71" y="864.005" type="curve" smooth="yes"/>
      <point x="603.57" y="864.005" type="line" smooth="yes"/>
      <point x="815.615" y="864.005"/>
      <point x="915.365" y="788.6575"/>
      <point x="915.365" y="660.2525" type="curve" smooth="yes"/>
      <point x="915.365" y="642.77" type="line" smooth="yes"/>
      <point x="915.365" y="509.6875"/>
      <point x="814.47" y="437.3775"/>
    </contour>
  </outline>
</glyph>
<glyph name="h" format="2">
  <advance width="1236.61"/>
  <unicode hex="0068"/>
  <anchor x="619.055" y="0.0" name="bottom"/>
  <anchor x="619.055" y="651.5" name="center"/>
  <anchor x="235.54" y="1322.575" name="top"/>
  <outline>
    <contour>
      <point x="930.42" y="0.0" type="line"/>
      <point x="1100.9775000000002" y="0.0" type="line"/>
      <point x="1100.9775000000002" y="575.8225" type="line" smooth="yes"/>
      <point x="1100.9775000000002" y="838.2375000000001"/>
      <point x="992.4499999999999" y="991.35"/>
      <point x="714.3975" y="991.35" type="curve" smooth="yes"/>
      <point x="482.65250000000003" y="991.35"/>
      <point x="355.735" y="866.885"/>
      <point x="321.25" y="722.1725" type="curve"/>
      <point x="281.345" y="722.1725" type="line"/>
      <point x="314.12" y="596.935" type="line"/>
      <point x="346.3675" y="739.3775"/>
      <point x="462.44" y="849.52"/>
      <point x="653.5925000000001" y="849.52" type="curve" smooth="yes"/>
      <point x="859.755" y="849.52"/>
      <point x="930.42" y="732.21"/>
      <point x="930.42" y="557.37" type="curve" smooth="yes"/>
    </contour>
    <contour>
      <point x="150.6" y="0.0" type="line"/>
      <point x="321.1575" y="0.0" type="line"/>
      <point x="321.1575" y="680.0224999999999" type="line"/>
      <point x="315.195" y="691.3774999999999" type="line"/>
      <point x="319.97999999999996" y="982.5275" type="line"/>
      <point x="319.97999999999996" y="1322.575" type="line"/>
      <point x="150.6" y="1322.575" type="line"/>
    </contour>
  </outline>
</glyph>
<glyph name="i" format="2">
  <advance width="477.01"/>
  <unicode hex="0069"/>
  <anchor x="238.755" y="0.0" name="bottom"/>
  <anchor x="365.985" y="1.9625" name="ogonek"/>
  <outline>
    <contour>
      <point x="153.42249999999999" y="0.0" type="line"/>
      <point x="323.5875" y="0.0" type="line"/>
      <point x="323.5875" y="966.6025" type="line"/>
      <point x="153.42249999999999" y="966.6025" type="line"/>
    </contour>
    <contour>
      <point x="238.255" y="1138.1575" type="curve" smooth="yes"/>
      <point x="311.29" y="1138.1575"/>
      <point x="346.84499999999997" y="1173.82"/>
      <point x="346.84499999999997" y="1236.795" type="curve" smooth="yes"/>
      <point x="346.84499999999997" y="1241.2250000000001" type="line" smooth="yes"/>
      <point x="346.84499999999997" y="1302.3075000000001"/>
      <point x="311.29" y="1339.1475"/>
      <point x="238.255" y="1339.1475" type="curve" smooth="yes"/>
      <point x="165.54250000000002" y="1339.1475"/>
      <point x="130.5575" y="1302.3075000000001"/>
      <point x="130.5575" y="1241.2250000000001" type="curve" smooth="yes"/>
      <point x="130.5575" y="1236.795" type="line" smooth="yes"/>
      <point x="130.5575" y="1174.605"/>
      <point x="165.54250000000002" y="1138.1575"/>
    </contour>
  </outline>
</glyph>
<glyph name="j" format="2">
  <advance width="516.595"/>
  <unicode hex="006A"/>
  <outline>
    <contour>
      <point x="193.00750000000002" y="152.725" type="line"/>
      <point x="363.17249999999996" y="152.725" type="line"/>
      <point x="363.17249999999996" y="966.6025" type="line"/>
      <point x="193.00750000000002" y="966.6025" type="line"/>
    </contour>
    <contour>
      <point x="277.84" y="1130.3075" type="curve" smooth="yes"/>
      <point x="350.875" y="1130.3075"/>
      <point x="386.42999999999995" y="1165.97"/>
      <point x="386.42999999999995" y="1228.945" type="curve" smooth="yes"/>
      <point x="386.42999999999995" y="1233.375" type="line" smooth="yes"/>
      <point x="386.42999999999995" y="1294.4575"/>
      <point x="350.875" y="1331.2975"/>
      <point x="277.84" y="1331.2975" type="curve" smooth="yes"/>
      <point x="205.1275" y="1331.2975"/>
      <point x="170.14249999999998" y="1294.4575"/>
      <point x="170.14249999999998" y="1233.375" type="curve" smooth="yes"/>
      <point x="170.14249999999998" y="1228.945" type="line" smooth="yes"/>
      <point x="170.14249999999998" y="1166.755"/>
      <point x="205.1275" y="1130.3075"/>
    </contour>
    <component base="jbottom"/>
  </outline>
</glyph>
<glyph name="k" format="2">
  <advance width="1151.295"/>
  <unicode hex="006B"/>
  <anchor x="588.4425000000001" y="0.0" name="bottom"/>
  <anchor x="585.405" y="1322.575" name="top"/>
  <outline>
    <contour>
      <point x="897.3774999999999" y="0.0" type="line"/>
      <point x="1118.195" y="0.0" type="line"/>
      <point x="554.91" y="540.205" type="line"/>
      <point x="554.91" y="500.39750000000004" type="line"/>
      <point x="1097.2275000000002" y="966.6025" type="line"/>
      <point x="880.12" y="966.6025" type="line"/>
      <point x="429.29" y="582.67" type="line"/>
      <point x="295.42" y="582.67" type="line"/>
      <point x="295.42" y="445.4425" type="line"/>
      <point x="428.11249999999995" y="445.4425" type="line"/>
    </contour>
    <contour>
      <point x="150.6" y="0.0" type="line"/>
      <point x="320.765" y="0.0" type="line"/>
      <point x="320.765" y="1322.575" type="line"/>
      <point x="150.6" y="1322.575" type="line"/>
    </contour>
  </outline>
</glyph>
<glyph name="l" format="2">
  <advance width="478.6175"/>
  <unicode hex="006C"/>
  <anchor x="239.755" y="0.0" name="bottom"/>
  <anchor x="239.755" y="651.5" name="center"/>
  <anchor x="239.755" y="1322.575" name="top"/>
  <anchor x="495.67" y="1322.575" name="topright"/>
  <outline>
    <contour>
      <point x="154.03" y="0.0" type="line"/>
      <point x="324.58750000000003" y="0.0" type="line"/>
      <point x="324.58750000000003" y="1322.575" type="line"/>
      <point x="154.03" y="1322.575" type="line"/>
    </contour>
  </outline>
</glyph>
<glyph name="m" format="2">
  <advance width="1906.7275"/>
  <unicode hex="006D"/>
  <anchor x="953.1675" y="0.0" name="bottom"/>
  <anchor x="953.1675" y="966.6025" name="top"/>
  <outline>
    <contour>
      <point x="1600.5375000000001" y="0.0" type="line"/>
      <point x="1771.095" y="0.0" type="line"/>
      <point x="1771.095" y="577.4625000000001" type="line" smooth="yes"/>
      <point x="1771.095" y="839.99"/>
      <point x="1669.4225000000001" y="991.35"/>
      <point x="1411.735" y="991.35" type="curve" smooth="yes"/>
      <point x="1184.6499999999999" y="991.35"/>
      <point x="1071.335" y="865.3525000000001"/>
      <point x="1033.3175" y="724.1075000000001" type="curve"/>
      <point x="1011.6125" y="724.1075000000001" type="line"/>
      <point x="1037.8225" y="599.7950000000001" type="line"/>
      <point x="1067.355" y="740.3774999999999"/>
      <point x="1174.82" y="849.52"/>
      <point x="1350.0375" y="849.52" type="curve" smooth="yes"/>
      <point x="1536.695" y="849.52"/>
      <point x="1600.5375000000001" y="732.9949999999999"/>
      <point x="1600.5375000000001" y="559.3325" type="curve" smooth="yes"/>
    </contour>
    <contour>
      <point x="150.6" y="0.0" type="line"/>
      <point x="321.1575" y="0.0" type="line"/>
      <point x="321.1575" y="688.415" type="line"/>
      <point x="313.625" y="705.2925" type="line"/>
      <point x="321.1575" y="966.6025" type="line"/>
      <point x="150.6" y="966.6025" type="line"/>
    </contour>
    <contour>
      <point x="875.765" y="0.0" type="line"/>
      <point x="1045.93" y="0.0" type="line"/>
      <point x="1045.93" y="589.0274999999999" type="line" smooth="yes"/>
      <point x="1045.93" y="619.3125"/>
      <point x="1042.575" y="656.055"/>
      <point x="1037.0049999999999" y="684.5600000000001" type="curve"/>
      <point x="1008.8974999999999" y="884.9250000000001"/>
      <point x="901.1075" y="991.35"/>
      <point x="686.785" y="991.35" type="curve" smooth="yes"/>
      <point x="469.08250000000004" y="991.35"/>
      <point x="352.665" y="866.885"/>
      <point x="320.0725" y="722.1725" type="curve"/>
      <point x="287.34000000000003" y="722.1725" type="line"/>
      <point x="312.9425" y="596.8275" type="line"/>
      <point x="342.7975" y="739.3775"/>
      <point x="449.6175" y="849.52"/>
      <point x="625.3725000000001" y="849.52" type="curve" smooth="yes"/>
      <point x="811.9225" y="849.52"/>
      <point x="875.765" y="732.9949999999999"/>
      <point x="875.765" y="559.225" type="curve" smooth="yes"/>
    </contour>
  </outline>
</glyph>
<glyph name="n" format="2">
  <advance width="1236.61"/>
  <unicode hex="006E"/>
  <anchor x="619.055" y="0.0" name="bottom"/>
  <anchor x="619.055" y="966.6025" name="top"/>
  <outline>
    <contour>
      <point x="930.42" y="0.0" type="line"/>
      <point x="1100.9775000000002" y="0.0" type="line"/>
      <point x="1100.9775000000002" y="575.8225" type="line" smooth="yes"/>
      <point x="1100.9775000000002" y="838.2375000000001"/>
      <point x="992.4499999999999" y="991.35"/>
      <point x="714.3975" y="991.35" type="curve" smooth="yes"/>
      <point x="480.0125" y="991.35"/>
      <point x="354.5575" y="866.885"/>
      <point x="319.68" y="722.1725" type="curve"/>
      <point x="284.56" y="722.1725" type="line"/>
      <point x="312.9425" y="596.8275" type="line"/>
      <point x="345.19" y="739.3775"/>
      <point x="461.7625" y="849.52"/>
      <point x="652.8075" y="849.52" type="curve" smooth="yes"/>
      <point x="859.755" y="849.52"/>
      <point x="930.42" y="732.21"/>
      <point x="930.42" y="557.37" type="curve" smooth="yes"/>
    </contour>
    <contour>
      <point x="150.6" y="0.0" type="line"/>
      <point x="321.1575" y="0.0" type="line"/>
      <point x="321.1575" y="690.2" type="line"/>
      <point x="313.625" y="705.5075" type="line"/>
      <point x="321.1575" y="966.6025" type="line"/>
      <point x="150.6" y="966.6025" type="line"/>
    </contour>
  </outline>
</glyph>
<glyph name="o" format="2">
  <advance width="1222.475"/>
  <unicode hex="006F"/>
  <anchor x="611.63" y="0.0" name="bottom"/>
  <anchor x="614.56" y="429.18" name="center"/>
  <anchor x="878.9125" y="3.925" name="ogonek"/>
  <anchor x="611.63" y="966.6025" name="top"/>
  <anchor x="1074.9099999999999" y="966.6025" name="topright"/>
  <outline>
    <contour>
      <point x="611.345" y="-26.7475" type="curve" smooth="yes"/>
      <point x="944.25" y="-26.7475"/>
      <point x="1121.9875" y="138.21"/>
      <point x="1121.9875" y="441.1675" type="curve"/>
      <point x="1121.9875" y="528.22" type="line"/>
      <point x="1121.9875" y="829.6775"/>
      <point x="944.25" y="994.5275"/>
      <point x="611.345" y="994.5275" type="curve" smooth="yes"/>
      <point x="278.72499999999997" y="994.5275"/>
      <point x="100.4875" y="829.6775"/>
      <point x="100.4875" y="528.22" type="curve"/>
      <point x="100.4875" y="441.1675" type="line"/>
      <point x="100.4875" y="138.925"/>
      <point x="278.01000000000005" y="-26.7475"/>
    </contour>
    <contour>
      <point x="611.345" y="110.765" type="curve" smooth="yes"/>
      <point x="391.75250000000005" y="110.765"/>
      <point x="271.83000000000004" y="225.86499999999998"/>
      <point x="271.83000000000004" y="436.4575" type="curve" smooth="yes"/>
      <point x="271.83000000000004" y="532.93" type="line" smooth="yes"/>
      <point x="271.83000000000004" y="742.5225"/>
      <point x="391.75250000000005" y="857.0150000000001"/>
      <point x="611.345" y="857.0150000000001" type="curve" smooth="yes"/>
      <point x="831.7225" y="857.0150000000001"/>
      <point x="951.0375" y="742.5225"/>
      <point x="951.0375" y="532.93" type="curve" smooth="yes"/>
      <point x="951.0375" y="436.4575" type="line" smooth="yes"/>
      <point x="951.0375" y="225.86499999999998"/>
      <point x="831.0075" y="110.765"/>
    </contour>
  </outline>
</glyph>
<glyph name="p" format="2">
  <advance width="1266.3999999999999"/>
  <unicode hex="0070"/>
  <anchor x="637.485" y="0.0" name="bottom"/>
  <anchor x="637.485" y="966.6025" name="top"/>
  <outline>
    <contour>
      <point x="716.4399999999999" y="-24.7475" type="curve" smooth="yes"/>
      <point x="1002.0200000000001" y="-24.7475"/>
      <point x="1164.735" y="136.2475"/>
      <point x="1164.735" y="438.8825" type="curve" smooth="yes"/>
      <point x="1164.735" y="530.4675" type="line" smooth="yes"/>
      <point x="1164.735" y="830.71"/>
      <point x="1004.875" y="991.35"/>
      <point x="721.3325" y="991.35" type="curve" smooth="yes"/>
      <point x="478.42" y="991.35"/>
      <point x="353.88" y="867.1"/>
      <point x="319.68" y="721.2049999999999" type="curve"/>
      <point x="267.25250000000005" y="721.2049999999999" type="line"/>
      <point x="310.5875" y="594.8975" type="line"/>
      <point x="344.265" y="742.7325"/>
      <point x="478.26250000000005" y="853.8375000000001"/>
      <point x="666.8774999999999" y="853.8375000000001" type="curve" smooth="yes"/>
      <point x="875.255" y="853.8375000000001"/>
      <point x="993.0" y="744.485"/>
      <point x="993.0" y="538.21" type="curve" smooth="yes"/>
      <point x="993.0" y="434.78000000000003" type="line" smooth="yes"/>
      <point x="993.0" y="226.7575"/>
      <point x="874.255" y="117.0825"/>
      <point x="668.4150000000001" y="117.0825" type="curve" smooth="yes"/>
      <point x="477.24" y="117.0825"/>
      <point x="326.3775" y="213.1775"/>
      <point x="316.08750000000003" y="418.32500000000005" type="curve"/>
      <point x="265.365" y="250.5575" type="line"/>
      <point x="321.895" y="250.5575" type="line"/>
      <point x="355.08" y="80.8575"/>
      <point x="496.8075" y="-24.7475"/>
    </contour>
    <contour>
      <point x="150.6" y="-341.0" type="line"/>
      <point x="319.97999999999996" y="-341.0" type="line"/>
      <point x="319.97999999999996" y="-12.560000000000002" type="line"/>
      <point x="314.8725" y="269.9125" type="line"/>
      <point x="316.08750000000003" y="312.925" type="line"/>
      <point x="316.08750000000003" y="643.7574999999999" type="line"/>
      <point x="313.41" y="704.2175" type="line"/>
      <point x="321.1575" y="966.6025" type="line"/>
      <point x="150.6" y="966.6025" type="line"/>
    </contour>
  </outline>
</glyph>
<glyph name="q" format="2">
  <advance width="1266.3999999999999"/>
  <unicode hex="0071"/>
  <anchor x="629.5224999999999" y="0.0" name="bottom"/>
  <anchor x="629.5224999999999" y="966.6025" name="top"/>
  <outline>
    <contour>
      <point x="544.4975000000001" y="-24.7475" type="curve" smooth="yes"/>
      <point x="787.695" y="-24.7475"/>
      <point x="910.95" y="99.61"/>
      <point x="945.15" y="245.39749999999998" type="curve"/>
      <point x="997.755" y="245.39749999999998" type="line"/>
      <point x="955.8125" y="374.56" type="line"/>
      <point x="922.35" y="227.51"/>
      <point x="787.9225" y="117.0825"/>
      <point x="599.2375000000001" y="117.0825" type="curve" smooth="yes"/>
      <point x="391.0375" y="117.0825"/>
      <point x="273.4" y="226.7575"/>
      <point x="273.4" y="433.21000000000004" type="curve" smooth="yes"/>
      <point x="273.4" y="535.0699999999999" type="line" smooth="yes"/>
      <point x="273.4" y="744.1625"/>
      <point x="391.645" y="853.8375000000001"/>
      <point x="597.8074999999999" y="853.8375000000001" type="curve" smooth="yes"/>
      <point x="791.9399999999999" y="853.8375000000001"/>
      <point x="939.63" y="755.7475000000001"/>
      <point x="950.3125" y="552.5949999999999" type="curve"/>
      <point x="1001.8199999999999" y="715.6525" type="line"/>
      <point x="946.075" y="715.6525" type="line"/>
      <point x="912.89" y="885.745"/>
      <point x="770.77" y="991.35"/>
      <point x="550.0675" y="991.35" type="curve" smooth="yes"/>
      <point x="265.165" y="991.35"/>
      <point x="101.665" y="830.355"/>
      <point x="101.665" y="528.22" type="curve" smooth="yes"/>
      <point x="101.665" y="436.5275" type="line" smooth="yes"/>
      <point x="101.665" y="135.89249999999998"/>
      <point x="261.6325" y="-24.7475"/>
    </contour>
    <contour>
      <point x="946.42" y="-341.0" type="line"/>
      <point x="1115.8" y="-341.0" type="line"/>
      <point x="1115.8" y="966.6025" type="line"/>
      <point x="945.2425" y="966.6025" type="line"/>
      <point x="952.8824999999999" y="703.8249999999999" type="line"/>
      <point x="950.3125" y="643.7574999999999" type="line"/>
      <point x="950.3125" y="314.495" type="line"/>
      <point x="951.42" y="272.02000000000004" type="line"/>
      <point x="946.42" y="-12.560000000000002" type="line"/>
    </contour>
  </outline>
</glyph>
<glyph name="r" format="2">
  <advance width="879.5600000000001"/>
  <unicode hex="0072"/>
  <anchor x="236.4325" y="0.0" name="bottom"/>
  <anchor x="469.8225" y="966.6025" name="top"/>
  <outline>
    <contour>
      <point x="312.98" y="562.09" type="line"/>
      <point x="375.5275" y="733.295"/>
      <point x="511.5525" y="824.75"/>
      <point x="686.2125000000001" y="824.75" type="curve" smooth="yes"/>
      <point x="748.8299999999999" y="824.75"/>
      <point x="802.835" y="813.5675"/>
      <point x="845.3025" y="798.7774999999999" type="curve"/>
      <point x="832.99" y="960.2" type="line"/>
      <point x="798.485" y="972.99"/>
      <point x="754.1524999999999" y="984.1725"/>
      <point x="694.53" y="984.1725" type="curve" smooth="yes"/>
      <point x="497.44" y="984.1725"/>
      <point x="369.1575" y="872.3625"/>
      <point x="318.03999999999996" y="690.8974999999999" type="curve"/>
      <point x="277.28000000000003" y="688.5325" type="line"/>
    </contour>
    <contour>
      <point x="150.6" y="0.0" type="line"/>
      <point x="321.1575" y="0.0" type="line"/>
      <point x="321.1575" y="645.7" type="line"/>
      <point x="311.1625" y="655.6574999999999" type="line"/>
      <point x="319.195" y="966.6025" type="line"/>
      <point x="150.6" y="966.6025" type="line"/>
    </contour>
  </outline>
</glyph>
<glyph name="s" format="2">
  <advance width="1048.4050000000002"/>
  <unicode hex="0073"/>
  <anchor x="523.8449999999999" y="0.0" name="bottom"/>
  <anchor x="523.4525000000001" y="966.6025" name="top"/>
  <outline>
    <contour>
      <point x="531.92" y="-26.3175" type="curve" smooth="yes"/>
      <point x="823.0350000000001" y="-26.3175"/>
      <point x="972.7075" y="66.8925"/>
      <point x="972.7075" y="262.0125" type="curve" smooth="yes"/>
      <point x="972.7075" y="270.265" type="line" smooth="yes"/>
      <point x="972.7075" y="457.71750000000003"/>
      <point x="863.7925" y="519.61"/>
      <point x="553.6424999999999" y="559.4975" type="curve" smooth="yes"/>
      <point x="311.92499999999995" y="590.2825"/>
      <point x="251.045" y="625.61"/>
      <point x="251.045" y="719.4449999999999" type="curve" smooth="yes"/>
      <point x="251.045" y="723.2674999999999" type="line" smooth="yes"/>
      <point x="251.045" y="805.13"/>
      <point x="320.575" y="855.0849999999999"/>
      <point x="510.62" y="855.0849999999999" type="curve" smooth="yes"/>
      <point x="684.9475" y="855.0849999999999"/>
      <point x="823.76" y="811.935"/>
      <point x="930.0725" y="756.285" type="curve"/>
      <point x="912.1899999999999" y="899.905" type="line"/>
      <point x="823.915" y="948.4100000000001"/>
      <point x="684.0975" y="993.3825"/>
      <point x="496.0275" y="993.3825" type="curve" smooth="yes"/>
      <point x="218.65" y="993.3825"/>
      <point x="83.3425" y="902.0649999999999"/>
      <point x="83.3425" y="725.6225" type="curve" smooth="yes"/>
      <point x="83.3425" y="720.23" type="line" smooth="yes"/>
      <point x="83.3425" y="549.9825"/>
      <point x="179.805" y="473.21750000000003"/>
      <point x="487.1975" y="433.65250000000003" type="curve" smooth="yes"/>
      <point x="732.0649999999999" y="401.54499999999996"/>
      <point x="804.2199999999999" y="368.6375"/>
      <point x="804.2199999999999" y="268.48" type="curve" smooth="yes"/>
      <point x="804.2199999999999" y="263.19" type="line" smooth="yes"/>
      <point x="804.2199999999999" y="162.53750000000002"/>
      <point x="709.2225" y="115.72749999999999"/>
      <point x="523.7149999999999" y="115.72749999999999" type="curve" smooth="yes"/>
      <point x="338.4625" y="115.72749999999999"/>
      <point x="196.365" y="164.765"/>
      <point x="79.725" y="224.0225" type="curve"/>
      <point x="97.5" y="66.80499999999999" type="line"/>
      <point x="193.13500000000002" y="20.584999999999997"/>
      <point x="335.4525" y="-26.3175"/>
    </contour>
  </outline>
</glyph>
<glyph name="t" format="2">
  <advance width="942.0475"/>
  <unicode hex="0074"/>
  <anchor x="525.0475" y="0.0" name="bottom"/>
  <anchor x="473.28999999999996" y="483.7475" name="center"/>
  <anchor x="285.75500000000005" y="1207.5049999999999" name="top"/>
  <anchor x="700.335" y="1413.7749999999999" name="topright"/>
  <outline>
    <contour>
      <point x="564.7525" y="-23.07" type="curve" smooth="yes"/>
      <point x="678.0324999999999" y="-23.07"/>
      <point x="783.8925" y="-0.06500000000000011"/>
      <point x="862.3225" y="38.44" type="curve"/>
      <point x="878.705" y="184.915" type="line"/>
      <point x="798.0124999999999" y="144.1525"/>
      <point x="703.0775" y="122.115"/>
      <point x="604.895" y="122.115" type="curve" smooth="yes"/>
      <point x="430.355" y="122.115"/>
      <point x="366.7325" y="192.56"/>
      <point x="366.7325" y="344.3425" type="curve" smooth="yes"/>
      <point x="366.7325" y="877.8525000000001" type="line"/>
      <point x="197.8525" y="877.8525000000001" type="line"/>
      <point x="197.8525" y="325.96500000000003" type="line" smooth="yes"/>
      <point x="197.8525" y="91.7"/>
      <point x="297.245" y="-23.07"/>
    </contour>
    <contour>
      <point x="11.505" y="815.4350000000001" type="line"/>
      <point x="856.215" y="815.4350000000001" type="line"/>
      <point x="872.99" y="949.485" type="line"/>
      <point x="11.505" y="949.485" type="line"/>
    </contour>
    <contour>
      <point x="199.815" y="932.9200000000001" type="line"/>
      <point x="362.2" y="932.9200000000001" type="line"/>
      <point x="369.125" y="1236.43" type="line"/>
      <point x="199.03" y="1215.9350000000002" type="line"/>
    </contour>
  </outline>
</glyph>
<glyph name="u" format="2">
  <advance width="1236.61"/>
  <unicode hex="0075"/>
  <anchor x="618.4100000000001" y="0.0" name="bottom"/>
  <anchor x="1127.7625" y="1.9625" name="ogonek"/>
  <anchor x="618.4100000000001" y="966.6025" name="top"/>
  <anchor x="1216.605" y="966.6025" name="topright"/>
  <outline>
    <contour>
      <point x="306.19" y="966.6025" type="line"/>
      <point x="135.6325" y="966.6025" type="line"/>
      <point x="135.6325" y="390.78000000000003" type="line" smooth="yes"/>
      <point x="135.6325" y="128.365"/>
      <point x="244.16" y="-24.7475"/>
      <point x="522.2125000000001" y="-24.7475" type="curve" smooth="yes"/>
      <point x="756.5975" y="-24.7475"/>
      <point x="882.0525" y="99.7175"/>
      <point x="916.93" y="244.43" type="curve"/>
      <point x="952.05" y="244.43" type="line"/>
      <point x="923.6675" y="369.775" type="line"/>
      <point x="891.42" y="227.225"/>
      <point x="774.8475000000001" y="117.0825"/>
      <point x="583.8025000000001" y="117.0825" type="curve" smooth="yes"/>
      <point x="376.855" y="117.0825"/>
      <point x="306.19" y="234.39249999999998"/>
      <point x="306.19" y="409.2325" type="curve" smooth="yes"/>
    </contour>
    <contour>
      <point x="1086.0100000000002" y="966.6025" type="line"/>
      <point x="915.4525" y="966.6025" type="line"/>
      <point x="915.4525" y="276.4025" type="line"/>
      <point x="922.985" y="261.095" type="line"/>
      <point x="915.4525" y="0.0" type="line"/>
      <point x="1086.0100000000002" y="0.0" type="line"/>
    </contour>
  </outline>
</glyph>
<glyph name="v" format="2">
  <advance width="1147.54"/>
  <unicode hex="0076"/>
  <anchor x="574.27" y="0.0" name="bottom"/>
  <anchor x="574.27" y="966.6025" name="top"/>
  <outline>
    <contour>
      <point x="588.6624999999999" y="118.065" type="line"/>
      <point x="561.0550000000001" y="118.065" type="line"/>
      <point x="225.1475" y="966.6025" type="line"/>
      <point x="44.595000000000006" y="966.6025" type="line"/>
      <point x="436.86" y="0.0" type="line"/>
      <point x="712.465" y="0.0" type="line"/>
      <point x="1102.945" y="966.6025" type="line"/>
      <point x="923.1775" y="966.6025" type="line"/>
    </contour>
  </outline>
</glyph>
<glyph name="w" format="2">
  <advance width="1728.2275"/>
  <unicode hex="0077"/>
  <anchor x="864.5600000000001" y="0.0" name="bottom"/>
  <anchor x="864.5600000000001" y="966.6025" name="top"/>
  <outline>
    <contour>
      <point x="358.145" y="0.0" type="line"/>
      <point x="615.475" y="0.0" type="line"/>
      <point x="805.5875" y="644.23" type="line"/>
      <point x="856.3825" y="816.0425" type="line"/>
      <point x="871.63" y="816.0425" type="line"/>
      <point x="923.3175" y="644.23" type="line"/>
      <point x="1113.43" y="0.0" type="line"/>
      <point x="1370.0825" y="0.0" type="line"/>
      <point x="1668.8425" y="966.6025" type="line"/>
      <point x="1490.2525" y="966.6025" type="line"/>
      <point x="1246.28" y="123.56" type="line"/>
      <point x="1227.42" y="123.56" type="line"/>
      <point x="983.0875" y="939.28" type="line"/>
      <point x="744.64" y="939.28" type="line"/>
      <point x="501.8775" y="123.56" type="line"/>
      <point x="482.34000000000003" y="123.56" type="line"/>
      <point x="238.76" y="966.6025" type="line"/>
      <point x="59.385000000000005" y="966.6025" type="line"/>
    </contour>
  </outline>
</glyph>
<glyph name="x" format="2">
  <advance width="1140.2350000000001"/>
  <unicode hex="0078"/>
  <anchor x="570.3675000000001" y="0.0" name="bottom"/>
  <anchor x="570.3675000000001" y="966.6025" name="top"/>
  <outline>
    <contour>
      <point x="55.6375" y="0.0" type="line"/>
      <point x="251.89499999999998" y="0.0" type="line"/>
      <point x="562.405" y="414.265" type="line"/>
      <point x="578.7225000000001" y="414.265" type="line"/>
      <point x="888.84" y="0.0" type="line"/>
      <point x="1084.5975" y="0.0" type="line"/>
      <point x="693.1" y="523.0875000000001" type="line"/>
      <point x="693.1" y="480.22499999999997" type="line"/>
      <point x="1076.635" y="966.6025" type="line"/>
      <point x="881.2700000000001" y="966.6025" type="line"/>
      <point x="578.7225000000001" y="576.805" type="line"/>
      <point x="562.405" y="576.805" type="line"/>
      <point x="259.46500000000003" y="966.6025" type="line"/>
      <point x="64.1" y="966.6025" type="line"/>
      <point x="447.2425" y="479.51" type="line"/>
      <point x="447.2425" y="522.765" type="line"/>
    </contour>
  </outline>
</glyph>
<glyph name="y" format="2">
  <advance width="1149.1475"/>
  <unicode hex="0079"/>
  <anchor x="838.4625" y="-22.5175" name="bottom"/>
  <anchor x="575.1625" y="966.6025" name="top"/>
  <outline>
    <contour>
      <point x="656.505" y="154.48999999999998" type="line"/>
      <point x="557.345" y="154.48999999999998" type="line"/>
      <point x="225.9325" y="966.6025" type="line"/>
      <point x="44.595000000000006" y="966.6025" type="line"/>
      <point x="438.2525" y="38.387499999999996" type="line"/>
      <point x="626.235" y="38.387499999999996" type="line"/>
      <point x="556.505" y="107.015" type="line"/>
      <point x="363.655" y="-341.0" type="line"/>
      <point x="541.8525000000001" y="-341.0" type="line"/>
      <point x="1104.5525" y="966.6025" type="line"/>
      <point x="924.0" y="966.6025" type="line"/>
      <point x="561.6824999999999" y="104.67" type="line"/>
    </contour>
  </outline>
</glyph>
<glyph name="z" format="2">
  <advance width="1068.91"/>
  <unicode hex="007A"/>
  <anchor x="534.705" y="0.0" name="bottom"/>
  <anchor x="535.205" y="483.7475" name="center"/>
  <anchor x="534.705" y="966.6025" name="top"/>
  <outline>
    <contour>
      <point x="976.4325" y="137.69" type="line"/>
      <point x="309.64500000000004" y="137.69" type="line"/>
      <point x="970.755" y="840.4399999999999" type="line"/>
      <point x="970.755" y="966.21" type="line"/>
      <point x="95.7625" y="966.21" type="line"/>
      <point x="95.7625" y="829.02" type="line"/>
      <point x="752.98" y="829.02" type="line"/>
      <point x="92.37" y="126.66250000000001" type="line"/>
      <point x="92.37" y="0.0" type="line"/>
      <point x="976.4325" y="0.0" type="line"/>
    </contour>
  </outline>
</glyph>
<glyph name="braceleft" format="2">
  <advance width="760.8925"/>
  <unicode hex="007B"/>
  <outline>
    <contour>
      <point x="693.0600000000001" y="1325.28" type="line"/>
      <point x="647.2425000000001" y="1340.3175"/>
      <point x="583.2099999999999" y="1352.14"/>
      <point x="515.425" y="1352.14" type="curve" smooth="yes"/>
      <point x="322.8425" y="1352.14"/>
      <point x="236.64249999999998" y="1269.8600000000001"/>
      <point x="236.64249999999998" y="1077.3474999999999" type="curve" smooth="yes"/>
      <point x="236.64249999999998" y="999.4075"/>
      <point x="251.68" y="869.9025"/>
      <point x="251.68" y="791.21" type="curve" smooth="yes"/>
      <point x="251.68" y="689.2275000000001"/>
      <point x="214.8575" y="632.3575"/>
      <point x="74.22500000000001" y="625.175" type="curve"/>
      <point x="74.22500000000001" y="486.3725" type="line"/>
      <point x="214.8575" y="477.3675"/>
      <point x="251.68" y="419.675"/>
      <point x="251.68" y="316.2625" type="curve" smooth="yes"/>
      <point x="251.68" y="238.28500000000003"/>
      <point x="236.64249999999998" y="108.06500000000001"/>
      <point x="236.64249999999998" y="28.125" type="curve" smooth="yes"/>
      <point x="236.64249999999998" y="-164.67249999999999"/>
      <point x="322.95" y="-247.73749999999998"/>
      <point x="515.425" y="-247.73749999999998" type="curve" smooth="yes"/>
      <point x="583.2099999999999" y="-247.73749999999998"/>
      <point x="647.2425000000001" y="-235.8075"/>
      <point x="693.0600000000001" y="-220.27" type="curve"/>
      <point x="693.0600000000001" y="-92.4625" type="line"/>
      <point x="658.2325000000001" y="-104.7525"/>
      <point x="613.0075" y="-115.32749999999999"/>
      <point x="558.9925" y="-115.32749999999999" type="curve" smooth="yes"/>
      <point x="443.89750000000004" y="-115.32749999999999"/>
      <point x="397.88750000000005" y="-69.6725"/>
      <point x="397.88750000000005" y="47.717499999999994" type="curve" smooth="yes"/>
      <point x="397.88750000000005" y="118.1575"/>
      <point x="412.3175" y="243.13"/>
      <point x="412.3175" y="328.86" type="curve" smooth="yes"/>
      <point x="412.3175" y="452.1175"/>
      <point x="372.06" y="540.0475"/>
      <point x="214.63" y="553.3649999999999" type="curve"/>
      <point x="226.6575" y="533.9449999999999" type="line"/>
      <point x="226.6575" y="560.2525" type="line"/>
      <point x="373.28000000000003" y="577.9625"/>
      <point x="412.3175" y="659.505"/>
      <point x="412.3175" y="779.22" type="curve" smooth="yes"/>
      <point x="412.3175" y="863.8425000000001"/>
      <point x="397.88750000000005" y="987.9225"/>
      <point x="397.88750000000005" y="1058.7549999999999" type="curve" smooth="yes"/>
      <point x="397.88750000000005" y="1175.145"/>
      <point x="443.505" y="1220.8000000000002"/>
      <point x="556.6374999999999" y="1220.8000000000002" type="curve" smooth="yes"/>
      <point x="611.83" y="1220.8000000000002"/>
      <point x="657.84" y="1210.8325"/>
      <point x="693.0600000000001" y="1198.935" type="curve"/>
    </contour>
  </outline>
</glyph>
<glyph name="bar" format="2">
  <advance width="543.26"/>
  <unicode hex="007C"/>
  <outline>
    <contour>
      <point x="345.36499999999995" y="-442.6925" type="line"/>
      <point x="345.36499999999995" y="1418.0" type="line"/>
      <point x="197.89499999999998" y="1418.0" type="line"/>
      <point x="197.89499999999998" y="-442.6925" type="line"/>
    </contour>
  </outline>
</glyph>
<glyph name="braceright" format="2">
  <advance width="760.8925"/>
  <unicode hex="007D"/>
  <outline>
    <contour>
      <point x="67.8325" y="1325.28" type="curve"/>
      <point x="67.8325" y="1198.935" type="line"/>
      <point x="103.0525" y="1210.8325"/>
      <point x="149.0625" y="1220.8000000000002"/>
      <point x="204.255" y="1220.8000000000002" type="curve" smooth="yes"/>
      <point x="317.3875" y="1220.8000000000002"/>
      <point x="363.005" y="1175.145"/>
      <point x="363.005" y="1058.7549999999999" type="curve" smooth="yes"/>
      <point x="363.005" y="987.9225"/>
      <point x="348.575" y="863.8425000000001"/>
      <point x="348.575" y="779.22" type="curve" smooth="yes"/>
      <point x="348.575" y="659.505"/>
      <point x="387.61249999999995" y="577.9625"/>
      <point x="534.235" y="560.2525" type="curve"/>
      <point x="534.235" y="533.9449999999999" type="line"/>
      <point x="546.2624999999999" y="553.3649999999999" type="line"/>
      <point x="388.8325" y="540.0475"/>
      <point x="348.575" y="452.1175"/>
      <point x="348.575" y="328.86" type="curve" smooth="yes"/>
      <point x="348.575" y="243.13"/>
      <point x="363.005" y="118.1575"/>
      <point x="363.005" y="47.717499999999994" type="curve" smooth="yes"/>
      <point x="363.005" y="-69.6725"/>
      <point x="316.99499999999995" y="-115.32749999999999"/>
      <point x="201.9" y="-115.32749999999999" type="curve" smooth="yes"/>
      <point x="147.885" y="-115.32749999999999"/>
      <point x="102.66" y="-104.7525"/>
      <point x="67.8325" y="-92.4625" type="curve"/>
      <point x="67.8325" y="-220.27" type="line"/>
      <point x="113.64999999999999" y="-235.8075"/>
      <point x="177.6825" y="-247.73749999999998"/>
      <point x="245.4675" y="-247.73749999999998" type="curve" smooth="yes"/>
      <point x="437.9425" y="-247.73749999999998"/>
      <point x="524.25" y="-164.67249999999999"/>
      <point x="524.25" y="28.125" type="curve" smooth="yes"/>
      <point x="524.25" y="108.06500000000001"/>
      <point x="509.21250000000003" y="238.28500000000003"/>
      <point x="509.21250000000003" y="316.2625" type="curve" smooth="yes"/>
      <point x="509.21250000000003" y="419.675"/>
      <point x="546.035" y="477.3675"/>
      <point x="686.6675" y="486.3725" type="curve"/>
      <point x="686.6675" y="625.175" type="line"/>
      <point x="546.035" y="632.3575"/>
      <point x="509.21250000000003" y="689.2275000000001"/>
      <point x="509.21250000000003" y="791.21" type="curve" smooth="yes"/>
      <point x="509.21250000000003" y="869.9025"/>
      <point x="524.25" y="999.4075"/>
      <point x="524.25" y="1077.3474999999999" type="curve" smooth="yes"/>
      <point x="524.25" y="1269.8600000000001"/>
      <point x="438.05" y="1352.14"/>
      <point x="245.4675" y="1352.14" type="curve" smooth="yes"/>
      <point x="177.6825" y="1352.14"/>
      <point x="113.64999999999999" y="1340.3175"/>
    </contour>
  </outline>
</glyph>
<glyph name="asciitilde" format="2">
  <advance width="1225.995"/>
  <unicode hex="007E"/>
  <outline>
    <contour>
      <point x="851.9024999999999" y="452.935" type="curve" smooth="yes"/>
      <point x="1019.9375" y="452.935"/>
      <point x="1084.54" y="548.5175"/>
      <point x="1084.54" y="715.6424999999999" type="curve" smooth="yes"/>
      <point x="1084.54" y="751.8425" type="line"/>
      <point x="957.7325" y="751.8425" type="line"/>
      <point x="957.7325" y="734.735" type="line" smooth="yes"/>
      <point x="957.7325" y="641.0275"/>
      <point x="926.0024999999999" y="592.2325000000001"/>
      <point x="842.2675" y="592.2325000000001" type="curve" smooth="yes"/>
      <point x="703.2475" y="592.2325000000001"/>
      <point x="550.0174999999999" y="727.875"/>
      <point x="374.3075" y="727.875" type="curve" smooth="yes"/>
      <point x="205.2725" y="727.875"/>
      <point x="141.45499999999998" y="629.83"/>
      <point x="141.45499999999998" y="464.23749999999995" type="curve" smooth="yes"/>
      <point x="141.45499999999998" y="428.86" type="line"/>
      <point x="267.47749999999996" y="428.86" type="line"/>
      <point x="267.47749999999996" y="445.6825" type="line" smooth="yes"/>
      <point x="267.47749999999996" y="537.82"/>
      <point x="301.66999999999996" y="587.1149999999999"/>
      <point x="383.33500000000004" y="587.1149999999999" type="curve" smooth="yes"/>
      <point x="522.4250000000001" y="587.1149999999999"/>
      <point x="677.1875" y="452.935"/>
    </contour>
  </outline>
</glyph>
<glyph name="exclamdown" format="2">
  <advance width="512.39"/>
  <unicode hex="00A1"/>
  <outline>
    <contour>
      <point x="328.89250000000004" y="573.0575" type="line"/>
      <point x="183.7825" y="573.0575" type="line"/>
      <point x="164.1525" y="-311.3975" type="line"/>
      <point x="348.02250000000004" y="-311.3975" type="line"/>
    </contour>
    <contour>
      <point x="255.97999999999996" y="987.06" type="curve" smooth="yes"/>
      <point x="181.305" y="987.06"/>
      <point x="144.75" y="946.9725"/>
      <point x="144.75" y="878.2875" type="curve" smooth="yes"/>
      <point x="144.75" y="871.2875" type="line" smooth="yes"/>
      <point x="144.75" y="803.21"/>
      <point x="181.305" y="763.3375"/>
      <point x="255.97999999999996" y="763.3375" type="curve" smooth="yes"/>
      <point x="331.585" y="763.3375"/>
      <point x="368.0325" y="803.21"/>
      <point x="368.0325" y="871.2875" type="curve" smooth="yes"/>
      <point x="368.0325" y="878.2875" type="line" smooth="yes"/>
      <point x="368.0325" y="946.9725"/>
      <point x="331.585" y="987.06"/>
    </contour>
  </outline>
</glyph>
<glyph name="cent" format="2">
  <advance width="1050.4625"/>
  <unicode hex="00A2"/>
  <anchor x="572.855" y="0.0" name="bottom"/>
  <anchor x="572.855" y="966.6025" name="top"/>
  <outline>
    <contour>
      <point x="672.645" y="914.26" type="line"/>
      <point x="672.645" y="1203.72" type="line"/>
      <point x="519.7874999999999" y="1203.72" type="line"/>
      <point x="519.7874999999999" y="914.26" type="line"/>
    </contour>
    <contour>
      <point x="672.645" y="-236.83249999999998" type="line"/>
      <point x="672.645" y="68.79" type="line"/>
      <point x="519.7874999999999" y="68.79" type="line"/>
      <point x="519.7874999999999" y="-236.83249999999998" type="line"/>
    </contour>
    <component base="c"/>
  </outline>
</glyph>
<glyph name="sterling" format="2">
  <advance width="1289.1125"/>
  <unicode hex="00A3"/>
  <outline>
    <contour>
      <point x="94.655" y="583.2925" type="line"/>
      <point x="1081.0600000000002" y="583.2925" type="line"/>
      <point x="1092.6625000000001" y="714.6325" type="line"/>
      <point x="106.36500000000001" y="714.6325" type="line"/>
    </contour>
    <contour>
      <point x="337.755" y="145.97" type="line"/>
      <point x="338.83000000000004" y="152.7125" type="line"/>
      <point x="449.11" y="197.64249999999998"/>
      <point x="510.265" y="281.0875"/>
      <point x="510.265" y="434.57" type="curve" smooth="yes"/>
      <point x="510.265" y="602.5875000000001"/>
      <point x="427.47" y="750.2325000000001"/>
      <point x="427.47" y="912.6374999999999" type="curve" smooth="yes"/>
      <point x="427.47" y="1075.3974999999998"/>
      <point x="532.795" y="1156.0949999999998"/>
      <point x="771.245" y="1156.0949999999998" type="curve" smooth="yes"/>
      <point x="896.4325" y="1156.0949999999998"/>
      <point x="1017.55" y="1134.735"/>
      <point x="1134.0549999999998" y="1093.8700000000001" type="curve"/>
      <point x="1119.2425" y="1240.8449999999998" type="line"/>
      <point x="1012.6025000000001" y="1277.705"/>
      <point x="873.14" y="1302.4950000000001"/>
      <point x="735.9575" y="1302.4950000000001" type="curve" smooth="yes"/>
      <point x="402.3425" y="1302.4950000000001"/>
      <point x="244.7075" y="1179.6074999999998"/>
      <point x="244.7075" y="932.7625" type="curve" smooth="yes"/>
      <point x="244.7075" y="743.76"/>
      <point x="332.03499999999997" y="587.8075"/>
      <point x="331.03499999999997" y="416.875" type="curve" smooth="yes"/>
      <point x="330.82" y="270.345"/>
      <point x="273.72999999999996" y="177.0025"/>
      <point x="147.89249999999998" y="150.00250000000003" type="curve" smooth="yes"/>
      <point x="102.155" y="140.47000000000003" type="line"/>
      <point x="102.155" y="0.0" type="line"/>
      <point x="1216.5649999999998" y="0.0" type="line"/>
      <point x="1216.5649999999998" y="145.97" type="line"/>
    </contour>
  </outline>
</glyph>
<glyph name="currency" format="2">
  <advance width="1149.1275"/>
  <unicode hex="00A4"/>
  <outline>
    <contour>
      <point x="573.9749999999999" y="229.385" type="curve" smooth="yes"/>
      <point x="835.6650000000001" y="229.385"/>
      <point x="981.87" y="364.1975"/>
      <point x="981.87" y="605.3275" type="curve" smooth="yes"/>
      <point x="981.87" y="632.6550000000001" type="line" smooth="yes"/>
      <point x="981.87" y="873.1775"/>
      <point x="836.2725" y="1007.2750000000001"/>
      <point x="574.5824999999999" y="1007.2750000000001" type="curve" smooth="yes"/>
      <point x="313.285" y="1007.2750000000001"/>
      <point x="167.07999999999998" y="873.1775"/>
      <point x="167.07999999999998" y="632.6550000000001" type="curve" smooth="yes"/>
      <point x="167.07999999999998" y="605.3275" type="line" smooth="yes"/>
      <point x="167.07999999999998" y="364.1975"/>
      <point x="312.6775" y="229.385"/>
    </contour>
    <contour>
      <point x="574.5824999999999" y="359.94" type="curve" smooth="yes"/>
      <point x="412.32250000000005" y="359.94"/>
      <point x="321.15250000000003" y="445.4275"/>
      <point x="321.15250000000003" y="604.15" type="curve" smooth="yes"/>
      <point x="321.15250000000003" y="633.8325" type="line" smooth="yes"/>
      <point x="321.15250000000003" y="791.84"/>
      <point x="412.32250000000005" y="876.72"/>
      <point x="574.5824999999999" y="876.72" type="curve" smooth="yes"/>
      <point x="736.02" y="876.72"/>
      <point x="827.405" y="791.84"/>
      <point x="827.405" y="633.8325" type="curve" smooth="yes"/>
      <point x="827.7974999999999" y="604.15" type="line" smooth="yes"/>
      <point x="827.7974999999999" y="445.4275"/>
      <point x="736.02" y="359.94"/>
    </contour>
    <contour>
      <point x="857.8475" y="409.9225" type="line"/>
      <point x="762.0525" y="326.3" type="line"/>
      <point x="965.14" y="117.315" type="line"/>
      <point x="1058.4350000000002" y="202.33" type="line"/>
    </contour>
    <contour>
      <point x="384.005" y="323.33750000000003" type="line"/>
      <point x="295.02750000000003" y="412.885" type="line"/>
      <point x="91.085" y="202.33" type="line"/>
      <point x="184.4875" y="117.315" type="line"/>
    </contour>
    <contour>
      <point x="283.28499999999997" y="832.6625" type="line"/>
      <point x="382.21999999999997" y="912.5375" type="line"/>
      <point x="183.9875" y="1117.1675" type="line"/>
      <point x="91.085" y="1031.76" type="line"/>
    </contour>
    <contour>
      <point x="765.3000000000001" y="910.0375" type="line"/>
      <point x="859.8475" y="825.275" type="line"/>
      <point x="1058.0425" y="1031.76" type="line"/>
      <point x="965.14" y="1117.1675" type="line"/>
    </contour>
  </outline>
</glyph>
<glyph name="yen" format="2">
  <advance width="1319.4325"/>
  <unicode hex="00A5"/>
  <anchor x="657.7325000000001" y="0.0" name="bottom"/>
  <anchor x="657.7325000000001" y="1278.0" name="top"/>
  <anchor x="26.005" y="1278.0" name="topleft"/>
  <outline>
    <contour>
      <point x="763.435" y="557.2375" type="line"/>
      <point x="1178.46" y="557.2375" type="line"/>
      <point x="1190.955" y="681.19" type="line"/>
      <point x="798.2425" y="681.19" type="line"/>
    </contour>
    <contour>
      <point x="143.935" y="373.84749999999997" type="line"/>
      <point x="131.04749999999999" y="250.2875" type="line"/>
      <point x="1178.46" y="250.2875" type="line"/>
      <point x="1190.955" y="373.84749999999997" type="line"/>
    </contour>
    <contour>
      <point x="521.4000000000001" y="681.19" type="line"/>
      <point x="143.935" y="681.19" type="line"/>
      <point x="131.04749999999999" y="557.2375" type="line"/>
      <point x="556.7075" y="557.2375" type="line"/>
    </contour>
    <component base="Y" xOffset="5.36"/>
  </outline>
</glyph>
<glyph name="brokenbar" format="2">
  <advance width="544.83"/>
  <unicode hex="00A6"/>
  <outline>
    <contour>
      <point x="346.93499999999995" y="587.9350000000001" type="line"/>
      <point x="346.93499999999995" y="1418.0" type="line"/>
      <point x="197.89499999999998" y="1418.0" type="line"/>
      <point x="197.89499999999998" y="587.9350000000001" type="line"/>
    </contour>
    <contour>
      <point x="346.93499999999995" y="-442.6925" type="line"/>
      <point x="346.93499999999995" y="389.9425" type="line"/>
      <point x="197.89499999999998" y="389.9425" type="line"/>
      <point x="197.89499999999998" y="-442.6925" type="line"/>
    </contour>
  </outline>
</glyph>
<glyph name="section" format="2">
  <advance width="1122.995"/>
  <unicode hex="00A7"/>
  <outline>
    <contour>
      <point x="670.38" y="414.315" type="curve"/>
      <point x="805.25" y="367.5825" type="line"/>
      <point x="804.8575" y="402.605" type="line"/>
      <point x="928.7875" y="419.185"/>
      <point x="1002.2550000000001" y="497.12"/>
      <point x="1002.2550000000001" y="610.69" type="curve" smooth="yes"/>
      <point x="1002.2550000000001" y="613.905" type="line" smooth="yes"/>
      <point x="1001.6475" y="779.9"/>
      <point x="890.1574999999999" y="838.48"/>
      <point x="587.0074999999999" y="881.7225000000001" type="curve" smooth="yes"/>
      <point x="348.93" y="915.185"/>
      <point x="287.6575" y="946.9475"/>
      <point x="287.6575" y="1033.955" type="curve" smooth="yes"/>
      <point x="287.6575" y="1038.6325" type="line" smooth="yes"/>
      <point x="287.6575" y="1118.4575"/>
      <point x="355.72499999999997" y="1165.945"/>
      <point x="544.0925" y="1165.945" type="curve" smooth="yes"/>
      <point x="716.85" y="1165.945"/>
      <point x="856.055" y="1121.6175"/>
      <point x="961.5825" y="1064.0049999999999" type="curve"/>
      <point x="943.7" y="1208.41" type="line"/>
      <point x="855.4250000000001" y="1256.915"/>
      <point x="714.8225" y="1301.8875"/>
      <point x="529.5000000000001" y="1301.8875" type="curve" smooth="yes"/>
      <point x="253.4075" y="1301.8875"/>
      <point x="119.955" y="1213.43"/>
      <point x="119.955" y="1041.38" type="curve" smooth="yes"/>
      <point x="119.955" y="1035.5249999999999" type="line" smooth="yes"/>
      <point x="119.955" y="869.4649999999999"/>
      <point x="225.8375" y="797.835"/>
      <point x="520.5625" y="759.5175" type="curve" smooth="yes"/>
      <point x="764.3924999999999" y="727.695"/>
      <point x="839.2625" y="691.9225"/>
      <point x="839.2625" y="579.5425" type="curve" smooth="yes"/>
      <point x="839.2625" y="576.1500000000001" type="line" smooth="yes"/>
      <point x="839.2625" y="499.08750000000003"/>
      <point x="778.705" y="438.2775"/>
    </contour>
    <contour>
      <point x="449.29249999999996" y="787.625" type="curve"/>
      <point x="309.175" y="823.255" type="line"/>
      <point x="309.5675" y="793.8025" type="line"/>
      <point x="189.38" y="769.2275000000001"/>
      <point x="120.74000000000001" y="699.0675"/>
      <point x="120.74000000000001" y="588.9275" type="curve" smooth="yes"/>
      <point x="120.74000000000001" y="584.535" type="line" smooth="yes"/>
      <point x="120.74000000000001" y="430.46"/>
      <point x="229.375" y="362.2075"/>
      <point x="528.9125" y="316.755" type="curve" smooth="yes"/>
      <point x="762.7900000000001" y="280.83000000000004"/>
      <point x="834.5525" y="250.2775"/>
      <point x="834.5525" y="155.975" type="curve" smooth="yes"/>
      <point x="834.5525" y="151.405" type="line" smooth="yes"/>
      <point x="834.5525" y="57.8925"/>
      <point x="742.125" y="13.905"/>
      <point x="557.1875" y="13.905" type="curve" smooth="yes"/>
      <point x="375.4675" y="13.905"/>
      <point x="228.16" y="62.550000000000004"/>
      <point x="114.66" y="121.415" type="curve"/>
      <point x="132.435" y="-34.2325" type="line"/>
      <point x="225.715" y="-79.6675"/>
      <point x="374.02750000000003" y="-125.78500000000001"/>
      <point x="568.14" y="-125.78500000000001" type="curve" smooth="yes"/>
      <point x="858.2925" y="-125.78500000000001"/>
      <point x="1003.0400000000001" y="-33.8275"/>
      <point x="1003.0400000000001" y="148.265" type="curve" smooth="yes"/>
      <point x="1003.0400000000001" y="155.19" type="line" smooth="yes"/>
      <point x="1003.0400000000001" y="332.7925"/>
      <point x="894.125" y="395.4325"/>
      <point x="595.3575000000001" y="438.96" type="curve" smooth="yes"/>
      <point x="355.8925" y="473.385"/>
      <point x="282.555" y="516.115"/>
      <point x="282.555" y="621.2524999999999" type="curve" smooth="yes"/>
      <point x="282.555" y="625.43" type="line"/>
      <point x="282.555" y="703.455"/>
      <point x="336.36" y="760.555"/>
    </contour>
  </outline>
</glyph>
<glyph name="copyright" format="2">
  <advance width="1534.6850000000002"/>
  <unicode hex="00A9"/>
  <outline>
    <contour>
      <point x="767.0925000000001" y="-27.35" type="curve" smooth="yes"/>
      <point x="1184.965" y="-27.35"/>
      <point x="1423.3425" y="200.215"/>
      <point x="1423.3425" y="595.8825" type="curve" smooth="yes"/>
      <point x="1423.3425" y="687.72" type="line" smooth="yes"/>
      <point x="1423.45" y="1080.64"/>
      <point x="1184.965" y="1305.35"/>
      <point x="767.0925000000001" y="1305.35" type="curve" smooth="yes"/>
      <point x="349.3275" y="1305.35"/>
      <point x="111.3425" y="1080.64"/>
      <point x="111.3425" y="687.72" type="curve" smooth="yes"/>
      <point x="111.3425" y="595.8825" type="line" smooth="yes"/>
      <point x="111.3425" y="200.215"/>
      <point x="349.3275" y="-27.35"/>
    </contour>
    <contour>
      <point x="801.8725000000001" y="312.145" type="curve" smooth="yes"/>
      <point x="912.1725" y="312.145"/>
      <point x="988.92" y="343.22499999999997"/>
      <point x="1036.2375000000002" y="374.9075" type="curve"/>
      <point x="1046.0175" y="482.4175" type="line"/>
      <point x="991.6999999999999" y="445.805"/>
      <point x="922.4100000000001" y="415.22499999999997"/>
      <point x="821.82" y="415.22499999999997" type="curve" smooth="yes"/>
      <point x="676.4725" y="415.22499999999997"/>
      <point x="602.35" y="486.675"/>
      <point x="602.35" y="616.8549999999999" type="curve" smooth="yes"/>
      <point x="602.35" y="666.93" type="line" smooth="yes"/>
      <point x="602.35" y="796.2175000000001"/>
      <point x="674.8325" y="865.9525"/>
      <point x="817.3575" y="865.9525" type="curve" smooth="yes"/>
      <point x="917.55" y="865.9525"/>
      <point x="986.8399999999999" y="835.3025"/>
      <point x="1039.91" y="798.975" type="curve"/>
      <point x="1029.3449999999998" y="905.8075" type="line"/>
      <point x="984.85" y="935.5600000000001"/>
      <point x="909.1725" y="967.0699999999999"/>
      <point x="801.5875000000001" y="967.0699999999999" type="curve" smooth="yes"/>
      <point x="590.1725" y="967.0699999999999"/>
      <point x="481.355" y="859.43"/>
      <point x="481.355" y="665.93" type="curve" smooth="yes"/>
      <point x="481.355" y="616.7475000000001" type="line" smooth="yes"/>
      <point x="481.355" y="420.78499999999997"/>
      <point x="589.565" y="312.145"/>
    </contour>
    <contour>
      <point x="767.0925000000001" y="71.6975" type="curve" smooth="yes"/>
      <point x="426.17" y="71.6975"/>
      <point x="228.9125" y="260.3575"/>
      <point x="228.9125" y="592.35" type="curve" smooth="yes"/>
      <point x="228.9125" y="691.3599999999999" type="line" smooth="yes"/>
      <point x="228.9125" y="1020.9975"/>
      <point x="426.17" y="1206.3025"/>
      <point x="767.0925000000001" y="1206.3025" type="curve" smooth="yes"/>
      <point x="1108.1225" y="1206.3025"/>
      <point x="1305.7724999999998" y="1020.9975"/>
      <point x="1305.7724999999998" y="691.3599999999999" type="curve" smooth="yes"/>
      <point x="1305.7724999999998" y="592.35" type="line" smooth="yes"/>
      <point x="1305.7724999999998" y="260.3575"/>
      <point x="1108.1225" y="71.6975"/>
    </contour>
  </outline>
</glyph>
<glyph name="ordfeminine" format="2">
  <advance width="777.6925"/>
  <unicode hex="00AA"/>
  <outline>
    <contour>
      <point x="542.0975000000001" y="643.7524999999999" type="line"/>
      <point x="664.625" y="643.7524999999999" type="line"/>
      <point x="664.625" y="1042.6599999999999" type="line" smooth="yes"/>
      <point x="664.625" y="1184.95"/>
      <point x="593.5825" y="1293.215"/>
      <point x="385.8325" y="1293.215" type="curve" smooth="yes"/>
      <point x="266.0375" y="1293.215"/>
      <point x="177.86" y="1256.135"/>
      <point x="120.37" y="1222.5275" type="curve"/>
      <point x="109.02" y="1117.1625" type="line"/>
      <point x="175.54749999999999" y="1153.8449999999998"/>
      <point x="261.3375" y="1191.065"/>
      <point x="365.66999999999996" y="1191.065" type="curve" smooth="yes"/>
      <point x="493.045" y="1191.065"/>
      <point x="545.7375" y="1138.9750000000001"/>
      <point x="545.7375" y="1045.6225" type="curve"/>
      <point x="545.7375" y="993.8000000000001" type="line"/>
      <point x="545.7375" y="820.5424999999999" type="line"/>
      <point x="547.4525" y="807.3699999999999" type="line"/>
    </contour>
    <contour>
      <point x="296.59999999999997" y="628.9675" type="curve" smooth="yes"/>
      <point x="449.51750000000004" y="628.9675"/>
      <point x="517.6925" y="698.8149999999999"/>
      <point x="543.8925" y="788.3349999999999" type="curve"/>
      <point x="566.63" y="788.3349999999999" type="line"/>
      <point x="550.13" y="876.8125" type="line"/>
      <point x="528.205" y="795.1425"/>
      <point x="447.26" y="732.6875"/>
      <point x="335.8925" y="732.6875" type="curve" smooth="yes"/>
      <point x="248.5025" y="732.6875"/>
      <point x="203.8" y="766.0625"/>
      <point x="203.8" y="825.27" type="curve" smooth="yes"/>
      <point x="203.8" y="833.415" type="line" smooth="yes"/>
      <point x="203.8" y="897.945"/>
      <point x="248.4975" y="923.0675"/>
      <point x="353.51000000000005" y="934.965" type="curve" smooth="yes"/>
      <point x="564.5875" y="958.325" type="line"/>
      <point x="559.1625" y="1045.9150000000002" type="line"/>
      <point x="330.95500000000004" y="1021.0550000000001" type="line" smooth="yes"/>
      <point x="161.05249999999998" y="1001.9475"/>
      <point x="78.525" y="948.9475000000001"/>
      <point x="78.525" y="824.5649999999999" type="curve" smooth="yes"/>
      <point x="78.525" y="813.5649999999999" type="line" smooth="yes"/>
      <point x="78.525" y="695.355"/>
      <point x="158.10000000000002" y="628.9675"/>
    </contour>
  </outline>
</glyph>
<glyph name="logicalnot" format="2">
  <advance width="1185.725"/>
  <unicode hex="00AC"/>
  <outline>
    <contour>
      <point x="1045.77" y="145.725" type="line"/>
      <point x="1045.77" y="631.4150000000001" type="line"/>
      <point x="901.5475" y="631.4150000000001" type="line"/>
      <point x="901.5475" y="145.725" type="line"/>
    </contour>
    <contour>
      <point x="124.94500000000001" y="547.4425" type="line"/>
      <point x="1045.77" y="547.4425" type="line"/>
      <point x="1045.77" y="682.3149999999999" type="line"/>
      <point x="124.94500000000001" y="682.3149999999999" type="line"/>
    </contour>
  </outline>
</glyph>
<glyph name="registered" format="2">
  <advance width="924.435"/>
  <unicode hex="00AE"/>
  <outline>
    <contour>
      <point x="462.85999999999996" y="535.0250000000001" type="curve" smooth="yes"/>
      <point x="710.9525" y="535.0250000000001"/>
      <point x="855.695" y="666.8375"/>
      <point x="855.695" y="895.225" type="curve" smooth="yes"/>
      <point x="855.695" y="938.37" type="line" smooth="yes"/>
      <point x="855.695" y="1166.7575"/>
      <point x="710.9525" y="1298.07"/>
      <point x="462.85999999999996" y="1298.07" type="curve" smooth="yes"/>
      <point x="213.875" y="1298.07"/>
      <point x="68.74" y="1166.7575"/>
      <point x="68.74" y="938.37" type="curve" smooth="yes"/>
      <point x="68.74" y="895.225" type="line" smooth="yes"/>
      <point x="68.74" y="666.8375"/>
      <point x="213.875" y="535.0250000000001"/>
    </contour>
    <contour>
      <point x="462.85999999999996" y="604.3125" type="curve" smooth="yes"/>
      <point x="259.78" y="604.3125"/>
      <point x="149.26999999999998" y="704.995"/>
      <point x="149.26999999999998" y="894.5475" type="curve" smooth="yes"/>
      <point x="149.26999999999998" y="940.3325000000001" type="line" smooth="yes"/>
      <point x="149.26999999999998" y="1128.7075"/>
      <point x="259.67249999999996" y="1228.675"/>
      <point x="462.85999999999996" y="1228.675" type="curve" smooth="yes"/>
      <point x="665.0475" y="1228.675"/>
      <point x="774.7724999999999" y="1128.7075"/>
      <point x="774.7724999999999" y="940.3325000000001" type="curve" smooth="yes"/>
      <point x="774.7724999999999" y="894.5475" type="line" smooth="yes"/>
      <point x="774.7724999999999" y="705.1025000000001"/>
      <point x="665.1550000000001" y="604.3125"/>
    </contour>
    <contour>
      <point x="567.175" y="733.435" type="line"/>
      <point x="645.2425000000001" y="733.435" type="line"/>
      <point x="630.8125" y="804.51" type="line" smooth="yes"/>
      <point x="618.205" y="866.2950000000001"/>
      <point x="599.205" y="901.085"/>
      <point x="529.6299999999999" y="905.9399999999999" type="curve"/>
      <point x="545.13" y="897.155" type="line"/>
      <point x="545.56" y="906.435" type="line"/>
      <point x="608.3875" y="910.72"/>
      <point x="637.995" y="944.1175"/>
      <point x="637.995" y="997.295" type="curve" smooth="yes"/>
      <point x="637.995" y="1003.5475" type="line" smooth="yes"/>
      <point x="637.995" y="1072.365"/>
      <point x="596.1775" y="1110.4725"/>
      <point x="503.6875" y="1110.4725" type="curve" smooth="yes"/>
      <point x="360.13500000000005" y="1110.4725" type="line"/>
      <point x="360.13500000000005" y="1051.535" type="line"/>
      <point x="491.69750000000005" y="1051.535" type="line" smooth="yes"/>
      <point x="541.4225" y="1051.535"/>
      <point x="561.7124999999999" y="1028.9924999999998"/>
      <point x="561.7124999999999" y="992.52" type="curve" smooth="yes"/>
      <point x="561.7124999999999" y="985.9825" type="line" smooth="yes"/>
      <point x="561.7124999999999" y="948.01"/>
      <point x="540.8149999999999" y="925.2525"/>
      <point x="492.02000000000004" y="925.2525" type="curve" smooth="yes"/>
      <point x="360.7425" y="924.86" type="line"/>
      <point x="360.7425" y="867.2075" type="line"/>
      <point x="474.5525" y="867.2075" type="line" smooth="yes"/>
      <point x="527.31" y="867.2075"/>
      <point x="545.385" y="847.7025"/>
      <point x="555.815" y="794.16" type="curve" smooth="yes"/>
    </contour>
    <contour>
      <point x="312.33750000000003" y="733.435" type="line"/>
      <point x="387.05" y="733.435" type="line"/>
      <point x="387.05" y="877.8475000000001" type="line"/>
      <point x="387.05" y="902.4075" type="line"/>
      <point x="387.05" y="1110.4725" type="line"/>
      <point x="312.33750000000003" y="1110.4725" type="line"/>
    </contour>
  </outline>
</glyph>
<glyph name="degree" format="2">
  <advance width="728.5225"/>
  <unicode hex="00B0"/>
  <outline>
    <contour>
      <point x="363.9575" y="768.5350000000001" type="curve" smooth="yes"/>
      <point x="538.1149999999999" y="768.5350000000001"/>
      <point x="636.605" y="871.7075000000001"/>
      <point x="636.605" y="1033.015" type="curve" smooth="yes"/>
      <point x="636.605" y="1041.87" type="line" smooth="yes"/>
      <point x="636.605" y="1202.785"/>
      <point x="538.1149999999999" y="1305.35"/>
      <point x="363.9575" y="1305.35" type="curve" smooth="yes"/>
      <point x="190.4075" y="1305.35"/>
      <point x="91.9175" y="1202.785"/>
      <point x="91.9175" y="1041.87" type="curve" smooth="yes"/>
      <point x="91.9175" y="1033.015" type="line" smooth="yes"/>
      <point x="91.9175" y="871.7075000000001"/>
      <point x="190.4075" y="768.5350000000001"/>
    </contour>
    <contour>
      <point x="363.9575" y="881.7125" type="curve" smooth="yes"/>
      <point x="272.175" y="881.7125"/>
      <point x="221.0475" y="940.055"/>
      <point x="221.0475" y="1032.515" type="curve" smooth="yes"/>
      <point x="221.0475" y="1041.585" type="line" smooth="yes"/>
      <point x="221.0475" y="1134.4375"/>
      <point x="272.175" y="1192.1725"/>
      <point x="363.9575" y="1192.1725" type="curve" smooth="yes"/>
      <point x="456.6325" y="1192.1725"/>
      <point x="507.26" y="1134.4375"/>
      <point x="507.26" y="1041.585" type="curve" smooth="yes"/>
      <point x="507.26" y="1032.515" type="line" smooth="yes"/>
      <point x="507.26" y="940.055"/>
      <point x="456.6325" y="881.7125"/>
    </contour>
  </outline>
</glyph>
<glyph name="plusminus" format="2">
  <advance width="1200.9025"/>
  <unicode hex="00B1"/>
  <outline>
    <contour>
      <point x="140.23499999999999" y="113.335" type="line"/>
      <point x="1060.6675" y="113.335" type="line"/>
      <point x="1060.6675" y="247.1" type="line"/>
      <point x="140.23499999999999" y="247.1" type="line"/>
    </contour>
    <contour>
      <point x="673.455" y="385.5975" type="line"/>
      <point x="673.455" y="1140.2" type="line"/>
      <point x="527.555" y="1140.2" type="line"/>
      <point x="527.555" y="385.5975" type="line"/>
    </contour>
    <contour>
      <point x="140.23499999999999" y="696.2125" type="line"/>
      <point x="1060.6675" y="696.2125" type="line"/>
      <point x="1060.6675" y="829.585" type="line"/>
      <point x="140.23499999999999" y="829.585" type="line"/>
    </contour>
  </outline>
</glyph>
<glyph name="twosuperior" format="2">
  <advance width="707.505"/>
  <unicode hex="00B2"/>
  <outline>
    <contour>
      <point x="46.9775" y="738.285" type="line"/>
      <point x="653.705" y="738.285" type="line"/>
      <point x="653.705" y="847.7149999999999" type="line"/>
      <point x="179.6675" y="847.1075" type="line"/>
      <point x="252.935" y="824.87" type="line"/>
      <point x="252.935" y="852.355" type="line"/>
      <point x="404.86999999999995" y="941.4375" type="line" smooth="yes"/>
      <point x="558.6050000000001" y="1029.345"/>
      <point x="640.3075" y="1099.5974999999999"/>
      <point x="640.3075" y="1217.7525" type="curve" smooth="yes"/>
      <point x="640.3075" y="1226.2150000000001" type="line" smooth="yes"/>
      <point x="640.3075" y="1355.7849999999999"/>
      <point x="535.7425000000001" y="1429.3875"/>
      <point x="345.295" y="1429.3875" type="curve" smooth="yes"/>
      <point x="240.935" y="1429.3875"/>
      <point x="129.39749999999998" y="1399.9525"/>
      <point x="65.005" y="1364.48" type="curve"/>
      <point x="53.155" y="1254.0125" type="line"/>
      <point x="133.87500000000003" y="1291.49"/>
      <point x="224.7775" y="1321.135"/>
      <point x="329.48749999999995" y="1321.135" type="curve" smooth="yes"/>
      <point x="450.0125" y="1321.135"/>
      <point x="505.005" y="1284.6200000000001"/>
      <point x="505.005" y="1211.9775" type="curve" smooth="yes"/>
      <point x="505.005" y="1207.37" type="line" smooth="yes"/>
      <point x="505.005" y="1126.2275000000002"/>
      <point x="419.02750000000003" y="1070.0075000000002"/>
      <point x="300.2725" y="999.5525" type="curve" smooth="yes"/>
      <point x="46.9775" y="851.9350000000001" type="line"/>
    </contour>
  </outline>
</glyph>
<glyph name="threesuperior" format="2">
  <advance width="741.51"/>
  <unicode hex="00B3"/>
  <outline>
    <contour>
      <point x="350.15500000000003" y="722.005" type="curve" smooth="yes"/>
      <point x="575.2524999999999" y="722.005"/>
      <point x="678.7800000000001" y="802.29"/>
      <point x="678.7800000000001" y="922.9575" type="curve" smooth="yes"/>
      <point x="678.7800000000001" y="932.21" type="line" smooth="yes"/>
      <point x="678.7800000000001" y="1024.07"/>
      <point x="625.6999999999999" y="1076.6875"/>
      <point x="507.5525" y="1091.1775" type="curve"/>
      <point x="511.515" y="1080.645" type="line"/>
      <point x="512.16" y="1094.135" type="line"/>
      <point x="621.555" y="1105.6625"/>
      <point x="672.135" y="1160.64"/>
      <point x="672.135" y="1241.8925000000002" type="curve" smooth="yes"/>
      <point x="672.135" y="1249.2525" type="line" smooth="yes"/>
      <point x="672.135" y="1364.565"/>
      <point x="571.1825" y="1428.3875"/>
      <point x="361.1225" y="1428.3875" type="curve" smooth="yes"/>
      <point x="231.36" y="1428.3875"/>
      <point x="131.43" y="1400.845"/>
      <point x="70.01" y="1372.1299999999999" type="curve"/>
      <point x="57.660000000000004" y="1268.05" type="line"/>
      <point x="124.66" y="1295.0925"/>
      <point x="223.585" y="1323.275"/>
      <point x="346.24" y="1323.275" type="curve" smooth="yes"/>
      <point x="488.7325" y="1323.275"/>
      <point x="535.9399999999999" y="1290.0075"/>
      <point x="535.9399999999999" y="1232.0525" type="curve" smooth="yes"/>
      <point x="535.9399999999999" y="1227.1924999999999" type="line" smooth="yes"/>
      <point x="535.9399999999999" y="1170.42"/>
      <point x="489.71" y="1136.3625"/>
      <point x="368.84250000000003" y="1134.5774999999999" type="curve" smooth="yes"/>
      <point x="181.1375" y="1131.2225" type="line"/>
      <point x="181.1375" y="1037.0675" type="line"/>
      <point x="369.165" y="1033.9975" type="line" smooth="yes"/>
      <point x="511.5425" y="1032.105"/>
      <point x="541.0150000000001" y="992.2575"/>
      <point x="541.0150000000001" y="939.3824999999999" type="curve" smooth="yes"/>
      <point x="541.0150000000001" y="934.3075" type="line" smooth="yes"/>
      <point x="541.0150000000001" y="871.5625"/>
      <point x="490.84000000000003" y="828.6875"/>
      <point x="334.4925" y="828.6875" type="curve" smooth="yes"/>
      <point x="224.9825" y="828.6875"/>
      <point x="121.6925" y="855.37"/>
      <point x="53.552499999999995" y="881.445" type="curve"/>
      <point x="65.79500000000002" y="769.9775000000001" type="line"/>
      <point x="120.4675" y="750.0475"/>
      <point x="223.35999999999999" y="722.005"/>
    </contour>
  </outline>
</glyph>
<glyph name="micro" format="2">
  <advance width="1251.97"/>
  <unicode hex="00B5"/>
  <outline>
    <contour>
      <point x="1101.37" y="966.6025" type="line"/>
      <point x="930.8125" y="966.6025" type="line"/>
      <point x="930.8125" y="276.4025" type="line"/>
      <point x="938.345" y="261.095" type="line"/>
      <point x="930.8125" y="0.0" type="line"/>
      <point x="1101.37" y="0.0" type="line"/>
    </contour>
    <contour>
      <point x="320.7275" y="419.71750000000003" type="curve" smooth="yes"/>
      <point x="321.1575" y="966.6025" type="line"/>
      <point x="150.6" y="966.6025" type="line"/>
      <point x="150.6" y="-341.0" type="line"/>
      <point x="318.8025" y="-341.0" type="line"/>
      <point x="318.8025" y="-194.3875" type="line"/>
      <point x="308.66249999999997" y="163.505" type="line"/>
      <point x="314.79749999999996" y="163.6125" type="line"/>
      <point x="357.5775" y="42.152499999999996"/>
      <point x="452.8975" y="-24.355"/>
      <point x="609.1999999999999" y="-24.355" type="curve" smooth="yes"/>
      <point x="797.1850000000001" y="-24.355"/>
      <point x="902.6225" y="93.83"/>
      <point x="932.2900000000001" y="242.46749999999997" type="curve"/>
      <point x="967.0175" y="242.46749999999997" type="line"/>
      <point x="938.635" y="370.56" type="line"/>
      <point x="908.5649999999999" y="228.4025"/>
      <point x="792.385" y="117.8675"/>
      <point x="615.4475" y="117.8675" type="curve" smooth="yes"/>
      <point x="431.245" y="117.8675"/>
      <point x="320.7275" y="219.8875"/>
    </contour>
  </outline>
</glyph>
<glyph name="paragraph" format="2">
  <advance width="819.6075"/>
  <unicode hex="00B6"/>
  <outline>
    <contour>
      <point x="414.3125" y="659.015" type="curve"/>
      <point x="516.3175" y="659.015" type="line"/>
      <point x="515.21" y="1278.0" type="line"/>
      <point x="414.205" y="1278.0" type="line" smooth="yes"/>
      <point x="194.7625" y="1278.0"/>
      <point x="93.0575" y="1166.785"/>
      <point x="93.0575" y="985.5474999999999" type="curve" smooth="yes"/>
      <point x="93.0575" y="952.1825" type="line" smooth="yes"/>
      <point x="93.0575" y="771.1225000000001"/>
      <point x="194.7625" y="659.015"/>
    </contour>
    <contour>
      <point x="646.0024999999999" y="0.0" type="line"/>
      <point x="646.0024999999999" y="1278.0" type="line"/>
      <point x="475.40749999999997" y="1278.0" type="line"/>
      <point x="475.40749999999997" y="0.0" type="line"/>
    </contour>
  </outline>
</glyph>
<glyph name="onesuperior" format="2">
  <advance width="481.9525"/>
  <unicode hex="00B9"/>
  <outline>
    <contour>
      <point x="254.8675" y="738.285" type="line"/>
      <point x="383.5675" y="738.285" type="line"/>
      <point x="383.5675" y="1413.6775" type="line"/>
      <point x="258.2075" y="1413.6775" type="line"/>
      <point x="40.6875" y="1302.045" type="line"/>
      <point x="35.655" y="1182.62" type="line"/>
      <point x="247.19000000000003" y="1288.94" type="line"/>
      <point x="254.8675" y="1288.94" type="line"/>
    </contour>
  </outline>
</glyph>
<glyph name="ordmasculine" format="2">
  <advance width="797.075"/>
  <unicode hex="00BA"/>
  <outline>
    <contour>
      <point x="398.64500000000004" y="629.4675" type="curve" smooth="yes"/>
      <point x="607.9525000000001" y="629.4675"/>
      <point x="723.625" y="736.785"/>
      <point x="723.625" y="936.1025" type="curve" smooth="yes"/>
      <point x="723.625" y="988.1875" type="line" smooth="yes"/>
      <point x="723.625" y="1186.6125"/>
      <point x="608.845" y="1294.215"/>
      <point x="398.64500000000004" y="1294.215" type="curve" smooth="yes"/>
      <point x="189.23" y="1294.215"/>
      <point x="73.44999999999999" y="1186.6125"/>
      <point x="73.44999999999999" y="988.1875" type="curve" smooth="yes"/>
      <point x="73.44999999999999" y="936.1025" type="line" smooth="yes"/>
      <point x="73.44999999999999" y="737.285"/>
      <point x="188.6225" y="629.4675"/>
    </contour>
    <contour>
      <point x="398.64500000000004" y="733.9725" type="curve" smooth="yes"/>
      <point x="272.0675" y="733.9725"/>
      <point x="203.14999999999998" y="803.5300000000001"/>
      <point x="203.14999999999998" y="934.0325" type="curve" smooth="yes"/>
      <point x="203.14999999999998" y="991.0425" type="line" smooth="yes"/>
      <point x="203.14999999999998" y="1120.76"/>
      <point x="272.0675" y="1189.71"/>
      <point x="398.64500000000004" y="1189.71" type="curve" smooth="yes"/>
      <point x="525.2225000000001" y="1189.71"/>
      <point x="593.925" y="1120.8675"/>
      <point x="593.925" y="991.0425" type="curve" smooth="yes"/>
      <point x="593.925" y="934.0325" type="line" smooth="yes"/>
      <point x="593.925" y="803.0300000000001"/>
      <point x="524.115" y="733.9725"/>
    </contour>
  </outline>
</glyph>
<glyph name="guillemetright" format="2">
  <advance width="1141.355"/>
  <unicode hex="00BB"/>
  <outline>
    <contour>
      <point x="402.01" y="481.7475" type="line"/>
      <point x="49.0675" y="84.6175" type="line"/>
      <point x="228.915" y="84.6175" type="line"/>
      <point x="569.0300000000001" y="461.8175" type="line"/>
      <point x="569.0300000000001" y="506.3875" type="line"/>
      <point x="228.915" y="876.5224999999999" type="line"/>
      <point x="49.0675" y="876.5224999999999" type="line"/>
    </contour>
    <contour>
      <point x="895.1275" y="481.7475" type="line"/>
      <point x="542.185" y="84.6175" type="line"/>
      <point x="722.0325" y="84.6175" type="line"/>
      <point x="1062.1475" y="461.8175" type="line"/>
      <point x="1062.1475" y="506.3875" type="line"/>
      <point x="722.0325" y="876.5224999999999" type="line"/>
      <point x="542.185" y="876.5224999999999" type="line"/>
    </contour>
  </outline>
</glyph>
<glyph name="questiondown" format="2">
  <advance width="1088.6675"/>
  <unicode hex="00BF"/>
  <outline>
    <contour>
      <point x="736.9825000000001" y="557.77" type="line"/>
      <point x="627.395" y="542.0925" type="line" smooth="yes"/>
      <point x="280.39250000000004" y="496.80249999999995"/>
      <point x="98.52499999999999" y="368.5125"/>
      <point x="98.52499999999999" y="98.6125" type="curve" smooth="yes"/>
      <point x="98.52499999999999" y="47.4525" type="line" smooth="yes"/>
      <point x="98.52499999999999" y="-199.3225"/>
      <point x="246.3225" y="-334.57"/>
      <point x="566.0500000000001" y="-334.57" type="curve" smooth="yes"/>
      <point x="764.0550000000001" y="-334.57"/>
      <point x="920.84" y="-273.7"/>
      <point x="1005.8725" y="-223.29749999999999" type="curve"/>
      <point x="1025.895" y="-69.82749999999999" type="line"/>
      <point x="909.41" y="-133.6225"/>
      <point x="753.835" y="-189.0625"/>
      <point x="584.2125" y="-189.0625" type="curve" smooth="yes"/>
      <point x="356.34999999999997" y="-189.0625"/>
      <point x="273.00750000000005" y="-99.0"/>
      <point x="273.00750000000005" y="55.8025" type="curve" smooth="yes"/>
      <point x="273.00750000000005" y="100.07499999999999" type="line" smooth="yes"/>
      <point x="273.00750000000005" y="274.5125"/>
      <point x="388.71999999999997" y="364.575"/>
      <point x="645.9225" y="400.5475" type="curve" smooth="yes"/>
      <point x="736.9825000000001" y="413.8325" type="line"/>
    </contour>
    <contour>
      <point x="653.5274999999999" y="986.6674999999999" type="curve" smooth="yes"/>
      <point x="577.9224999999999" y="986.6674999999999"/>
      <point x="541.4750000000001" y="946.5799999999999"/>
      <point x="541.4750000000001" y="877.895" type="curve" smooth="yes"/>
      <point x="541.4750000000001" y="870.895" type="line" smooth="yes"/>
      <point x="541.4750000000001" y="802.8175"/>
      <point x="577.9224999999999" y="762.9449999999999"/>
      <point x="653.5274999999999" y="762.9449999999999" type="curve" smooth="yes"/>
      <point x="728.2025" y="762.9449999999999"/>
      <point x="764.7574999999999" y="802.8175"/>
      <point x="764.7574999999999" y="870.895" type="curve" smooth="yes"/>
      <point x="764.7574999999999" y="877.895" type="line" smooth="yes"/>
      <point x="764.7574999999999" y="946.5799999999999"/>
      <point x="728.2025" y="986.6674999999999"/>
    </contour>
  </outline>
</glyph>
<glyph name="AE" format="2">
  <advance width="2119.1925"/>
  <unicode hex="00C6"/>
  <anchor x="1059.4700000000003" y="0.0" name="bottom"/>
  <anchor x="1059.4700000000003" y="1278.0" name="top"/>
  <outline>
    <contour>
      <point x="53.17" y="0.0" type="line"/>
      <point x="245.25" y="0.0" type="line"/>
      <point x="976.6625" y="1163.575" type="line"/>
      <point x="1073.4375" y="1163.575" type="line"/>
      <point x="1074.2225" y="1278.0" type="line"/>
      <point x="860.995" y="1278.0" type="line"/>
    </contour>
    <contour>
      <point x="414.79" y="378.425" type="line"/>
      <point x="1069.4374999999998" y="378.425" type="line"/>
      <point x="1069.4374999999998" y="521.6475" type="line"/>
      <point x="414.79" y="521.6475" type="line"/>
    </contour>
    <contour>
      <point x="1065.625" y="0.0" type="line"/>
      <point x="2003.8174999999999" y="0.0" type="line"/>
      <point x="2003.8174999999999" y="144.4" type="line"/>
      <point x="1065.625" y="144.4" type="line"/>
    </contour>
    <contour>
      <point x="1034.3875" y="0.0" type="line"/>
      <point x="1206.4450000000002" y="0.0" type="line"/>
      <point x="1206.4450000000002" y="1278.0" type="line"/>
      <point x="1034.3875" y="1278.0" type="line"/>
    </contour>
    <contour>
      <point x="1128.3925000000002" y="579.6949999999999" type="line"/>
      <point x="1974.855" y="579.6949999999999" type="line"/>
      <point x="1974.855" y="722.1324999999999" type="line"/>
      <point x="1128.3925000000002" y="722.1324999999999" type="line"/>
    </contour>
    <contour>
      <point x="1065.0175000000002" y="1133.9925" type="line"/>
      <point x="1993.9625" y="1133.9925" type="line"/>
      <point x="1993.9625" y="1278.0" type="line"/>
      <point x="1065.0175000000002" y="1278.0" type="line"/>
    </contour>
  </outline>
</glyph>
<glyph name="Eth" format="2">
  <advance width="1406.7225"/>
  <unicode hex="00D0"/>
  <anchor x="690.3825" y="0.0" name="bottom"/>
  <anchor x="707.8075" y="639.0" name="center"/>
  <anchor x="690.3825" y="1278.0" name="top"/>
  <outline>
    <contour>
      <point x="1.6450000000000005" y="590.05" type="line"/>
      <point x="742.275" y="589.6575" type="line"/>
      <point x="742.275" y="720.2125" type="line"/>
      <point x="1.6450000000000005" y="720.605" type="line"/>
    </contour>
    <component base="D"/>
  </outline>
</glyph>
<glyph name="multiply" format="2">
  <advance width="1150.865"/>
  <unicode hex="00D7"/>
  <outline>
    <contour>
      <point x="1009.5024999999999" y="275.6475" type="line"/>
      <point x="244.8675" y="1040.41" type="line"/>
      <point x="146.3625" y="948.2225" type="line"/>
      <point x="910.89" y="183.0675" type="line"/>
    </contour>
    <contour>
      <point x="141.3625" y="275.6475" type="line"/>
      <point x="239.975" y="183.0675" type="line"/>
      <point x="1004.5025" y="948.2225" type="line"/>
      <point x="905.9975" y="1040.41" type="line"/>
    </contour>
  </outline>
</glyph>
<glyph name="Oslash" format="2">
  <advance width="1440.885"/>
  <unicode hex="00D8"/>
  <anchor x="720.55" y="0.0" name="bottom"/>
  <anchor x="720.55" y="639.785" name="center"/>
  <anchor x="1302.175" y="10.785" name="ogonek"/>
  <anchor x="720.55" y="1278.0" name="top"/>
  <anchor x="13.1075" y="1278.785" name="topleft"/>
  <anchor x="1427.385" y="1278.785" name="topright"/>
  <outline>
    <contour>
      <point x="720.3349999999999" y="-27.35" type="curve" smooth="yes"/>
      <point x="1116.5900000000001" y="-27.35"/>
      <point x="1329.5425" y="185.285"/>
      <point x="1329.5425" y="561.5225" type="curve" smooth="yes"/>
      <point x="1329.5425" y="718.155" type="line" smooth="yes"/>
      <point x="1329.6499999999999" y="1084.435"/>
      <point x="1107.4175" y="1305.35"/>
      <point x="720.3349999999999" y="1305.35" type="curve" smooth="yes"/>
      <point x="323.795" y="1305.35"/>
      <point x="111.3425" y="1093.6075"/>
      <point x="111.3425" y="718.155" type="curve" smooth="yes"/>
      <point x="111.3425" y="561.5225" type="line" smooth="yes"/>
      <point x="111.3425" y="194.4575"/>
      <point x="332.96750000000003" y="-27.35"/>
    </contour>
    <contour>
      <point x="120.75" y="-62.4575" type="line"/>
      <point x="293.7425" y="-62.4575" type="line"/>
      <point x="414.3125" y="100.145" type="line"/>
      <point x="432.27000000000004" y="125.24249999999999" type="line"/>
      <point x="1102.4850000000001" y="1058.1774999999998" type="line"/>
      <point x="1141.8525" y="1109.0024999999998" type="line"/>
      <point x="1320.2424999999998" y="1340.2425" type="line"/>
      <point x="1148.7125" y="1340.2425" type="line"/>
      <point x="1036.245" y="1192.5225" type="line"/>
      <point x="1016.5024999999999" y="1161.215" type="line"/>
      <point x="341.3625" y="222.4625" type="line"/>
      <point x="298.6775" y="170.39" type="line"/>
    </contour>
    <contour>
      <point x="720.3349999999999" y="118.265" type="curve" smooth="yes"/>
      <point x="437.5" y="118.265"/>
      <point x="291.0725" y="280.36500000000007"/>
      <point x="291.0725" y="557.9900000000001" type="curve" smooth="yes"/>
      <point x="291.0725" y="721.7950000000001" type="line" smooth="yes"/>
      <point x="291.0725" y="1002.42"/>
      <point x="438.925" y="1160.9125"/>
      <point x="720.3349999999999" y="1160.9125" type="curve" smooth="yes"/>
      <point x="1002.6" y="1160.9125"/>
      <point x="1149.8125" y="999.92"/>
      <point x="1149.8125" y="721.7950000000001" type="curve" smooth="yes"/>
      <point x="1149.8125" y="557.9900000000001" type="line" smooth="yes"/>
      <point x="1149.8125" y="277.86500000000007"/>
      <point x="1001.175" y="118.265"/>
    </contour>
  </outline>
</glyph>
<glyph name="Thorn" format="2">
  <advance width="1321.83"/>
  <unicode hex="00DE"/>
  <anchor x="659.9150000000001" y="0.0" name="bottom"/>
  <anchor x="659.9150000000001" y="1278.0" name="top"/>
  <outline>
    <contour>
      <point x="294.375" y="216.81" type="line"/>
      <point x="773.22" y="216.81" type="line" smooth="yes"/>
      <point x="1087.9325" y="216.81"/>
      <point x="1229.95" y="368.5575"/>
      <point x="1229.95" y="613.715" type="curve" smooth="yes"/>
      <point x="1229.95" y="671.215" type="line" smooth="yes"/>
      <point x="1229.95" y="916.8349999999999"/>
      <point x="1088.4325" y="1067.3675"/>
      <point x="773.935" y="1067.3675" type="curve" smooth="yes"/>
      <point x="290.22999999999996" y="1067.3675" type="line"/>
      <point x="290.22999999999996" y="924.645" type="line"/>
      <point x="771.9350000000001" y="924.645" type="line" smooth="yes"/>
      <point x="968.5925" y="924.645"/>
      <point x="1052.6825" y="829.6475"/>
      <point x="1052.6825" y="668.8225" type="curve" smooth="yes"/>
      <point x="1052.6825" y="616.3925" type="line" smooth="yes"/>
      <point x="1052.6825" y="456.4225"/>
      <point x="968.485" y="360.425"/>
      <point x="770.8275" y="360.425" type="curve" smooth="yes"/>
      <point x="294.375" y="360.425" type="line"/>
    </contour>
    <contour>
      <point x="173.60500000000002" y="0.0" type="line"/>
      <point x="345.77" y="0.0" type="line"/>
      <point x="345.77" y="259.1025" type="line"/>
      <point x="345.77" y="311.10499999999996" type="line"/>
      <point x="345.77" y="965.9375" type="line"/>
      <point x="345.77" y="1029.1074999999998" type="line"/>
      <point x="345.77" y="1278.0" type="line"/>
      <point x="173.60500000000002" y="1278.0" type="line"/>
    </contour>
  </outline>
</glyph>
<glyph name="germandbls" format="2">
  <advance width="1299.0349999999999"/>
  <unicode hex="00DF"/>
  <anchor x="621.8725" y="0.0" name="bottom"/>
  <anchor x="621.8725" y="966.6025" name="top"/>
  <outline>
    <contour>
      <point x="150.6" y="952.7675" type="curve" smooth="yes"/>
      <point x="150.6" y="0.0" type="line"/>
      <point x="319.48" y="0.0" type="line"/>
      <point x="319.48" y="947.52" type="line" smooth="yes"/>
      <point x="319.48" y="1115.6725"/>
      <point x="380.35" y="1215.52"/>
      <point x="578.125" y="1215.52" type="curve" smooth="yes"/>
      <point x="733.7125" y="1215.52"/>
      <point x="810.1574999999999" y="1156.7425"/>
      <point x="810.1574999999999" y="1074.82" type="curve" smooth="yes"/>
      <point x="810.1574999999999" y="936.485"/>
      <point x="550.6825" y="884.9075"/>
      <point x="550.1825" y="690.7575" type="curve" smooth="yes"/>
      <point x="550.1825" y="683.4350000000001" type="line" smooth="yes"/>
      <point x="550.1825" y="545.8"/>
      <point x="631.285" y="490.9175"/>
      <point x="828.8975" y="440.7825" type="curve" smooth="yes"/>
      <point x="986.5775" y="400.78249999999997"/>
      <point x="1044.0225" y="369.1225"/>
      <point x="1044.0225" y="273.90000000000003" type="curve" smooth="yes"/>
      <point x="1044.0225" y="264.9325" type="line" smooth="yes"/>
      <point x="1044.0225" y="169.6775"/>
      <point x="967.61" y="118.8675"/>
      <point x="817.365" y="118.8675" type="curve" smooth="yes"/>
      <point x="709.6625" y="118.8675"/>
      <point x="621.1724999999999" y="143.19"/>
      <point x="530.0225" y="179.41" type="curve"/>
      <point x="547.0124999999999" y="27.724999999999998" type="line"/>
      <point x="621.8349999999999" y="1.22"/>
      <point x="713.615" y="-20.8225"/>
      <point x="834.2425" y="-20.8225" type="curve" smooth="yes"/>
      <point x="1068.9325" y="-20.8225"/>
      <point x="1211.3325" y="74.71"/>
      <point x="1211.3325" y="264.755" type="curve" smooth="yes"/>
      <point x="1211.3325" y="275.96999999999997" type="line" smooth="yes"/>
      <point x="1211.3325" y="448.17499999999995"/>
      <point x="1117.665" y="506.89"/>
      <point x="914.6825" y="558.1" type="curve" smooth="yes"/>
      <point x="769.83" y="595.1375"/>
      <point x="718.8475000000001" y="620.6424999999999"/>
      <point x="718.8475000000001" y="695.1025000000001" type="curve" smooth="yes"/>
      <point x="718.8475000000001" y="699.3925" type="line" smooth="yes"/>
      <point x="718.8475000000001" y="826.7975"/>
      <point x="979.5375" y="875.31"/>
      <point x="979.5375" y="1076.4975" type="curve"/>
      <point x="979.5375" y="1254.6025"/>
      <point x="819.0075" y="1350.7849999999999"/>
      <point x="578.5175" y="1350.7849999999999" type="curve" smooth="yes"/>
      <point x="263.15000000000003" y="1350.7849999999999"/>
      <point x="150.6" y="1206.64"/>
    </contour>
  </outline>
</glyph>
<glyph name="ae" format="2">
  <advance width="1919.1875"/>
  <unicode hex="00E6"/>
  <anchor x="958.72" y="0.0" name="bottom"/>
  <anchor x="958.72" y="966.6025" name="top"/>
  <outline>
    <contour>
      <point x="1376.4399999999998" y="-26.3175" type="curve" smooth="yes"/>
      <point x="1546.72" y="-26.3175"/>
      <point x="1684.43" y="14.08"/>
      <point x="1789.9625" y="79.735" type="curve"/>
      <point x="1807.5225" y="226.07" type="line"/>
      <point x="1688.1675" y="155.98"/>
      <point x="1556.565" y="115.72749999999999"/>
      <point x="1403.7375" y="115.72749999999999" type="curve" smooth="yes"/>
      <point x="1130.555" y="115.72749999999999"/>
      <point x="1022.3325" y="237.145"/>
      <point x="1022.3325" y="414.855" type="curve" smooth="yes"/>
      <point x="1022.3325" y="476.2475" type="line"/>
      <point x="1022.3325" y="492.9525" type="line"/>
      <point x="1022.3325" y="550.7375" type="line" smooth="yes"/>
      <point x="1022.3325" y="739.8774999999999"/>
      <point x="1130.33" y="857.8000000000001"/>
      <point x="1341.1325" y="857.8000000000001" type="curve" smooth="yes"/>
      <point x="1553.86" y="857.8000000000001"/>
      <point x="1663.105" y="746.045"/>
      <point x="1663.105" y="557.7425" type="curve" smooth="yes"/>
      <point x="1663.105" y="515.865"/>
      <point x="1661.9275" y="467.74"/>
      <point x="1659.0725" y="420.29249999999996" type="curve"/>
      <point x="1817.3175" y="420.29249999999996" type="line"/>
      <point x="1822.9575" y="454.4275"/>
      <point x="1826.49" y="493.15999999999997"/>
      <point x="1826.49" y="530.4300000000001" type="curve" smooth="yes"/>
      <point x="1826.49" y="551.3924999999999" type="line" smooth="yes"/>
      <point x="1826.49" y="820.3175"/>
      <point x="1664.3875" y="994.5275"/>
      <point x="1357.6175" y="994.5275" type="curve" smooth="yes"/>
      <point x="1129.3174999999999" y="994.5275"/>
      <point x="986.4525" y="896.9375"/>
      <point x="938.64" y="736.6775" type="curve"/>
      <point x="934.8325" y="737.1075" type="line"/>
      <point x="900.7075" y="891.9"/>
      <point x="787.3050000000001" y="992.5275"/>
      <point x="556.505" y="992.5275" type="curve" smooth="yes"/>
      <point x="368.0975" y="992.5275"/>
      <point x="231.92" y="932.8725"/>
      <point x="148.575" y="882.335" type="curve"/>
      <point x="131.01500000000001" y="738.3925" type="line"/>
      <point x="236.43" y="795.7575"/>
      <point x="375.0375" y="851.375"/>
      <point x="547.4775" y="851.375" type="curve" smooth="yes"/>
      <point x="753.76" y="851.375"/>
      <point x="853.0600000000001" y="764.985"/>
      <point x="853.0600000000001" y="598.6875" type="curve"/>
      <point x="853.4525000000001" y="496.1325" type="line"/>
      <point x="852.56" y="434.825"/>
      <point x="854.9525000000001" y="364.56"/>
      <point x="864.5925000000001" y="306.61249999999995" type="curve"/>
      <point x="878.5825" y="279.1975" type="line"/>
      <point x="928.7175000000001" y="90.15"/>
      <point x="1091.175" y="-26.3175"/>
    </contour>
    <contour>
      <point x="440.74" y="-24.7475" type="curve" smooth="yes"/>
      <point x="715.04" y="-24.7475"/>
      <point x="837.8175" y="93.97"/>
      <point x="895.255" y="229.08" type="curve"/>
      <point x="929.02" y="229.08" type="line"/>
      <point x="869.125" y="346.46750000000003" type="line"/>
      <point x="826.5600000000001" y="219.05249999999998"/>
      <point x="699.245" y="116.2975"/>
      <point x="485.8825" y="116.2975" type="curve" smooth="yes"/>
      <point x="335.6175" y="116.2975"/>
      <point x="255.0075" y="171.4625"/>
      <point x="255.0075" y="272.69" type="curve" smooth="yes"/>
      <point x="255.0075" y="284.58750000000003" type="line" smooth="yes"/>
      <point x="255.0075" y="388.38"/>
      <point x="325.29" y="431.185"/>
      <point x="518.64" y="450.90500000000003" type="curve" smooth="yes"/>
      <point x="879.3725000000001" y="488.40999999999997" type="line"/>
      <point x="873.3775" y="608.7225" type="line"/>
      <point x="502.0425" y="570.7175" type="line" smooth="yes"/>
      <point x="215.32750000000001" y="541.325"/>
      <point x="84.8425" y="461.72249999999997"/>
      <point x="84.8425" y="272.42" type="curve" smooth="yes"/>
      <point x="84.8425" y="253.0275" type="line" smooth="yes"/>
      <point x="84.8425" y="75.28"/>
      <point x="213.0625" y="-24.7475"/>
    </contour>
    <contour>
      <point x="937.57" y="420.29249999999996" type="line"/>
      <point x="1782.6225" y="420.29249999999996" type="line"/>
      <point x="1782.6225" y="548.955" type="line"/>
      <point x="937.57" y="548.955" type="line"/>
    </contour>
  </outline>
</glyph>
<glyph name="eth" format="2">
  <advance width="1221.33"/>
  <unicode hex="00F0"/>
  <outline>
    <contour>
      <point x="610.9150000000001" y="-26.7475" type="curve" smooth="yes"/>
      <point x="940.46" y="-26.7475"/>
      <point x="1120.8425" y="137.995"/>
      <point x="1120.8425" y="433.4575" type="curve"/>
      <point x="1120.8425" y="504.66" type="line"/>
      <point x="1120.8425" y="883.1899999999999"/>
      <point x="869.35" y="1084.1924999999999"/>
      <point x="517.45" y="1322.575" type="curve"/>
      <point x="287.38499999999993" y="1322.575" type="line"/>
      <point x="287.38499999999993" y="1321.29" type="line"/>
      <point x="667.5649999999999" y="1076.5900000000001"/>
      <point x="912.715" y="888.615"/>
      <point x="943.7900000000001" y="646.7875" type="curve"/>
      <point x="945.4300000000001" y="599.145"/>
      <point x="947.6075000000001" y="572.09"/>
      <point x="949.6775" y="513.0649999999999" type="curve"/>
      <point x="949.6775" y="479.2975"/>
      <point x="949.6775" y="453.7725"/>
      <point x="949.6775" y="423.93" type="curve" smooth="yes"/>
      <point x="949.6775" y="220.155"/>
      <point x="826.4325" y="110.765"/>
      <point x="610.9150000000001" y="110.765" type="curve" smooth="yes"/>
      <point x="394.6825" y="110.765"/>
      <point x="271.83000000000004" y="219.44"/>
      <point x="271.83000000000004" y="422.96250000000003" type="curve" smooth="yes"/>
      <point x="271.83000000000004" y="476.65500000000003" type="line" smooth="yes"/>
      <point x="271.83000000000004" y="679.1775"/>
      <point x="393.22" y="784.6049999999999"/>
      <point x="606.5174999999999" y="784.6049999999999" type="curve" smooth="yes"/>
      <point x="802.5" y="784.6049999999999"/>
      <point x="942.135" y="687.3375"/>
      <point x="949.6775" y="480.4975" type="curve"/>
      <point x="956.6550000000001" y="727.62" type="line"/>
      <point x="909.7925" y="712.92" type="line"/>
      <point x="861.515" y="843.6324999999999"/>
      <point x="741.58" y="920.155"/>
      <point x="553.0674999999999" y="920.155" type="curve" smooth="yes"/>
      <point x="274.12750000000005" y="920.155"/>
      <point x="100.4875" y="759.4825"/>
      <point x="100.4875" y="475.8" type="curve" smooth="yes"/>
      <point x="100.4875" y="428.065" type="line" smooth="yes"/>
      <point x="100.4875" y="132.8925"/>
      <point x="280.94000000000005" y="-26.7475"/>
    </contour>
    <contour>
      <point x="239.16" y="994.0825" type="line"/>
      <point x="1050.8474999999999" y="1172.8025" type="line"/>
      <point x="1050.8474999999999" y="1282.5549999999998" type="line"/>
      <point x="239.16" y="1104.2275" type="line"/>
    </contour>
  </outline>
</glyph>
